<?xml version="1.0" encoding="utf-8"?>
<!-- Generator: Adobe Illustrator 27.3.1, SVG Export Plug-In . SVG Version: 6.00 Build 0)  -->
<svg version="1.1" id="Ebene_1" xmlns="http://www.w3.org/2000/svg" xmlns:xlink="http://www.w3.org/1999/xlink" x="0px" y="0px"
	 viewBox="0 0 990 490" style="enable-background:new 0 0 990 490;" xml:space="preserve">
<style type="text/css">
	.st0{fill:#FFFFFF;}
</style>
<path class="st0" d="M511.8,89l-1.2-6.7l-2,8.2c-0.3,1.3-1.4,2-2.5,1.6c-0.6-0.2-1.1-0.5-1.4-0.9c-0.3-0.5-0.4-1.1-0.2-1.7l3.5-14.6
	c0.2-0.8,0.5-1.4,1.1-1.7s1.2-0.5,1.9-0.3c1.4,0.4,1.9,1.4,2.2,2.8l1.7,9.6l5.8-7.7c0.9-1.2,1.7-1.9,3.2-1.5
	c0.7,0.2,1.3,0.5,1.5,1.2c0.3,0.5,0.4,1.3,0.2,2.1l-3.4,14.5c-0.3,1.1-1,1.7-2,1.7c-0.2,0-0.4,0-0.5-0.1c-0.6-0.2-1.1-0.5-1.4-0.9
	c-0.3-0.5-0.4-1.1-0.2-1.7l2-8.2l-4.1,5.4c-0.9,1.3-1.5,1.5-2.6,1.3C512.4,91.1,512.1,90.5,511.8,89 M487.8,89.4l-0.3-15.2
	c0-1.3,0.7-2.1,2-2.1l9.2-0.2c0,0,0,0,0.1,0c1.3,0,2.1,0.8,2.1,2s-0.9,2-2.1,2l-6.7,0.1l0.1,3.9l5.3-0.1c0.6,0,1.2,0.2,1.5,0.5
	c0.4,0.4,0.5,0.8,0.6,1.4c0,0.5-0.2,1.1-0.5,1.4c-0.4,0.4-0.9,0.5-1.5,0.5l-5.3,0.2l0.1,5.4c0,1.4-0.9,2.4-2.3,2.4l0,0
	C488.8,91.8,487.9,90.8,487.8,89.4 M470.8,91.1L470.8,91.1L470.8,91.1l0.1,0.2L470.8,91.1z M475.5,87.7c0,1.4-1,2.4-2.9,2.9
	l-1.8,0.5l-3.1-10.9l1.8-0.5c1.9-0.5,3.2-0.2,4,1c0.4,0.6,0.8,1.8,1.3,3.4C475.3,85.8,475.5,87,475.5,87.7 M477.4,78
	c-1.8-2.7-4.6-3.4-8.8-2.3l-4.3,1.2c-1.2,0.4-1.7,1.4-1.4,2.5l4.2,14.9c0.3,1,1,1.5,1.8,1.5c0.2,0,0.5,0,0.6-0.1l4.3-1.2
	c4.2-1.2,6.2-3.3,6.3-6.5c0.1-1.1-0.1-2.4-0.8-5.2C478.6,80.1,477.9,78.9,477.4,78 M544.7,169.1c0.4-2.4-0.7-4.4-3.2-4.4
	c-1.7,0-4.4,0.6-6,5.9l-1.3,4.7c0.5-0.3,1.2-0.4,1.8-0.3C541.9,175.5,544.4,172.3,544.7,169.1 M559.6,184.5
	c-1.4,4.8-5.9,9.6-12.7,9.6c-7.5,0-12.3-4.3-14.3-12.6l-2.8,10.2c-0.5,1.6-2,2.7-3.6,2.7c-0.4,0-0.6,0-1-0.1c-2-0.5-3.2-2.6-2.6-4.5
	l0.2-0.6c-2.8,2.8-6.2,4.5-9.5,4.5s-7.2-1.4-9.9-5.2c-3.7,3.4-7.6,5.2-11.9,5.2c-3.1,0-5.9-1.4-7.9-3.5c-2.1,2.1-5,3.5-8.8,3.5
	c-3.3,0-6.2-1.4-8.1-3.9c-2.2-2.9-2.7-6.8-1.4-11c1-3.3,5.2-18.2,5.2-18.2c0.5-2,2.5-3.1,4.5-2.5c2,0.5,3.2,2.5,2.7,4.5
	c0,0-4.2,14.9-5.2,18.4c-0.5,1.9-0.5,3.5,0.3,4.4c0.6,0.8,1.4,1,2.2,1c1.6,0,4.6,0,7.1-8.8c2.5-8.6,4.6-16.8,4.7-16.9
	c0.5-2,2.5-3.2,4.5-2.6s3.2,2.5,2.6,4.5c0,0.1-2.2,8.4-4.7,17.1c-0.1,0.5-0.3,0.9-0.5,1.4c-0.5,1.8-0.4,3.3,0.4,4.3
	c0.5,0.7,1.4,1.1,2.4,1.1c3.1,0,6.2-2,9.1-5.8c0-0.5-0.1-1.2-0.1-1.8c0-14.4,9.2-20.9,15.8-20.9c3,0,5.2,0.6,6.9,1.9
	c1.6,1.3,1.9,3.6,0.6,5.2c-0.7,1-1.5,1.2-3.1,1.2c-1.4,0-2.4-0.9-4.5-0.9c-3.3,0-8.4,4.3-8.4,13.5c0,6.2,3.7,7.5,6.9,7.5
	c3.6,0,9.9-4.3,11.9-12.4c0,0,0,0,0-0.1l1.4-5.1v-0.1c0-0.2,0.1-0.3,0.2-0.5L535,143c0.5-2,2.6-3.2,4.5-2.6c2,0.5,3.2,2.6,2.6,4.5
	l-3.3,12.4c0.8-0.2,1.6-0.2,2.4-0.2c3.1,0,5.9,1.3,7.9,3.4c2.2,2.4,3.1,5.8,2.7,9.3c-0.6,5.5-4.5,11-11.7,12.2
	c1.6,4.1,4.1,4.5,6.4,4.5c2.9,0,4.9-2.2,5.5-4.3c0.6-2,2.7-3.1,4.6-2.4C559.1,180.5,560.2,182.5,559.6,184.5 M584.4,145.6l-8.1,29.8
	c-0.5,1.6-2,2.7-3.6,2.7c-0.4,0-0.6,0-1-0.1c-2-0.5-3.2-2.6-2.6-4.5l8.1-29.8c0.5-2,2.6-3.2,4.5-2.6
	C583.8,141.5,585,143.6,584.4,145.6 M573.4,187.8c0,2.4-1.9,4.3-4.3,4.3c-2.4,0-4.3-1.9-4.3-4.3c0-2.4,1.9-4.3,4.3-4.3
	S573.4,185.4,573.4,187.8 M441.8,211.9c-2.6-1.9-4.3-3.2-6.9-3.2c-4,0-7.1,1.4-7.1,5.2c0,4.6,2.9,6.2,6.4,6.2
	C437.1,220.1,439.6,217.6,441.8,211.9 M544,210.7c1.4,1.4,1.4,3.8,0,5.2c-12.8,12.8-30.6,20.3-48.8,20.3c-0.1,0-0.1,0-0.2,0
	c-0.1,0-0.1,0-0.2,0c-23.8,0-37.4-11.1-47.2-19.5c-3.1,6.5-7.1,10.8-13.3,10.8c-6.8,0-14.1-4.3-14.1-13.6c0-6.1,4.5-12.7,14.6-12.7
	c3.3,0,6.3,1.3,9.4,3.3c1.3-4.3,2.4-9,3.4-13.7c-3.1,2-6.6,3-10.5,3c-4.2,0-7.8-1.7-10.1-4.8c-2.2-2.9-4.3-8.2-1.8-17.3
	c0.7-2.5,1.8-6.3,3.1-10.2c1.6-5.4,3.5-11.5,4.1-14.1c0.5-2.8,0.5-7-1.7-9.7c-1.4-1.8-3.8-2.7-7.1-2.7c-5.1,0-9,3.3-10.5,8.6
	c-0.9,3.3-0.6,6.2,0.7,8.1c1.2,1.7,3.2,2.8,5.6,3.1c2.1,0.3,3.5,2.1,3.3,4.1c-0.3,2.1-2.1,3.5-4.1,3.3c-4.5-0.5-8.5-2.8-10.9-6.2
	c-1.8-2.6-3.6-7.3-1.8-14.3c2.3-8.6,9.2-14.2,17.6-14.2c7,0,10.9,3,12.8,5.4c3.8,4.7,4.2,11.2,3.2,15.8c-0.6,2.9-2.4,8.9-4.3,14.7
	c-1.2,3.8-2.3,7.5-3,10c-1.3,4.8-1.1,8.7,0.5,10.9c1.2,1.5,3,1.9,4.3,1.9c3.2,0,11.6,0,16.7-21.1l0,0c3.6-14.4,7.2-28,7.2-28.2
	c0.5-2,2.5-3.2,4.5-2.6c2,0.5,3.2,2.5,2.6,4.5c-0.1,0.3-8.2,31.6-12.5,49.4l-0.9,3.8c-1.4,6.1-2.8,11.9-4.4,17.1
	c0.5,0.5,1.1,0.9,1.5,1.4c9.5,8.1,21.4,18,42.8,18c0.1,0,0.1,0,0.2,0c0.1,0,0.1,0,0.2,0c16.2,0,32-6.6,43.4-18.1
	C540.2,209.2,542.6,209.2,544,210.7 M547.3,132.2c-1.2,0-2.3-0.5-3-1.4c-11.5-15.4-29.9-24.6-49.1-24.6c-14.5,0-28.5,5.2-39.6,14.5
	c-1.5,1.4-3.9,1.1-5.2-0.5s-1.1-3.9,0.5-5.2c12.4-10.5,28.1-16.3,44.4-16.3c21.5,0,42.2,10.3,55.1,27.6c1.3,1.6,0.9,4-0.7,5.2
	C549,132,548.2,132.2,547.3,132.2 M495,55.9c61.6,0,111.7,49.9,111.7,111.7s-50,111.6-111.7,111.6s-111.7-49.9-111.7-111.7
	S433.3,55.9,495,55.9 M495,63.3c-57.5,0-104.1,46.7-104.1,104.1S437.6,271.6,495,271.6s104.1-46.7,104.1-104.1S552.4,63.3,495,63.3
	 M518.2,252.9l-3.3-5.2l-0.5,6.2L518.2,252.9z M524.1,259.4c-1,0.3-1.9-0.2-2.4-1.1l-1.3-1.9L514,258l-0.2,2.3
	c-0.1,1.1-0.7,1.8-1.7,2.1c-0.2,0.1-0.4,0.1-0.5,0.1c-0.4,0-0.7-0.1-1.1-0.3c-0.5-0.3-0.9-0.7-1-1.4c-0.1-0.3-0.1-0.6-0.1-0.9
	l1.6-15.1c0.2-1.8,0.9-2.9,2.4-3.3c1.4-0.4,2.6,0.2,3.6,1.7l8.3,12.7c0.2,0.3,0.3,0.5,0.4,0.8C526.1,258.1,525.2,259.2,524.1,259.4
	 M497.3,251.6l-1-0.1c-2.4-0.3-2.8-1.2-2.8-1.8c0-0.5,0.2-1,0.5-1.4c0.4-0.4,1-0.5,1.8-0.5c1.1,0,2.2,0.3,3.2,0.7
	c0.5,0.2,0.9,0.3,1.3,0.3c1.2,0,2-0.9,2-2.1c0-0.8-0.4-1.4-1.1-1.8c-1.3-0.7-3.4-1.3-5.4-1.2c-4.3,0.1-7,2.5-6.9,6.2
	c0.1,3.3,2.2,5.3,6.3,5.9l1,0.1c2.3,0.3,2.8,0.9,2.8,1.9c0,0.6-0.3,1.1-0.7,1.4c-0.5,0.4-1.3,0.6-2.2,0.6H496
	c-1.3,0-2.4-0.3-3.9-1.2c-0.3-0.2-0.7-0.4-1.4-0.4c-0.5,0-1.1,0.3-1.4,0.6s-0.5,0.9-0.5,1.4c0,0.8,0.5,1.4,1.1,1.9l0,0
	c1,0.6,3.1,1.5,6,1.5c0.1,0,0.2,0,0.2,0c2.4,0,4.4-0.7,5.7-1.9c1.3-1.1,1.9-2.7,1.9-4.5C503.6,254,501.5,252.1,497.3,251.6
	 M483.6,244c0.3,0.5,0.4,1.2,0.2,1.8l-2.4,9.8c-0.5,2.3-1.7,4-3.3,5c-1,0.6-2.2,0.9-3.5,0.9c-0.7,0-1.4-0.1-2.2-0.3
	c-2.3-0.5-3.9-1.6-4.9-3.2s-1.3-3.6-0.7-6l2.4-9.8c0.4-1.4,1.4-2.1,2.8-1.8c1.3,0.3,2,1.5,1.6,2.9l-2.4,9.9c-0.3,1-0.2,1.9,0.3,2.6
	c0.4,0.6,1,1.1,1.9,1.4c0.9,0.2,1.6,0.1,2.3-0.4c0.6-0.5,1.1-1.2,1.4-2.3l2.4-9.9c0.4-1.4,1.4-2.2,2.8-1.8
	C482.8,243.2,483.3,243.5,483.6,244 M553.9,315.5c-3.3,1.2-6.7,1.8-9.9,1.8c-6.6,0-12.1-2.5-13.8-7.1c-2.4-6.6,4.3-15.5,14.7-19.3
	c3.3-1.2,6.7-1.8,9.9-1.8c6.6,0,12.1,2.5,13.8,7.1C571,302.9,564.3,311.7,553.9,315.5 M575.6,293.7c-2.7-7.4-10.7-11.9-20.8-11.9
	c-4.1,0-8.3,0.8-12.4,2.3c-6.3,2.3-11.9,6.2-15.5,11c-3.4,4.5-5,9.4-4.4,14.1l-28.2,10.3l-33-12c1.2-8.5-3.8-17.2-12.5-20.3l0,0l0,0
	l-29.4-10.7c-1.9-0.7-4.1,0.3-4.8,2.3c-0.7,1.9,0.3,4.1,2.3,4.8l29.4,10.7l0,0l0,0c6.1,2.2,9.2,8.7,7.1,14.4
	c-2.1,5.8-8.7,8.6-14.7,6.4l0,0l0,0l-29.5-10.9c-1.9-0.7-4.1,0.3-4.8,2.3c-0.7,1.9,0.3,4.1,2.3,4.8l29.4,10.7l0,0l0,0
	c8.7,3.2,18.1-0.2,22.6-7.5l24.7,9l-44.2,16.1c-1.9,0.7-2.9,2.8-2.3,4.8c0.7,1.9,2.8,2.9,4.8,2.3l52.5-19.1l53,19.3
	c1.9,0.7,4.1-0.3,4.8-2.3c0.7-1.9-0.3-4.1-2.3-4.8l-44.6-16.3l19.9-7.2c3.6,5.4,10.6,8.7,19.1,8.7c4.1,0,8.3-0.8,12.4-2.3
	c6.3-2.4,11.9-6.2,15.5-11C576.3,305.8,577.6,299.3,575.6,293.7 M411.6,297.2l29.4,10.7c1.9,0.7,4.1-0.3,4.8-2.3
	c0.7-1.9-0.3-4.1-2.3-4.8l-29.4-10.7c-1.9-0.7-4.1,0.3-4.8,2.3C408.7,294.4,409.7,296.5,411.6,297.2 M587.2,414.9
	c0-1.8,1.1-2.9,2.7-2.9c1.4,0,2.3,0.8,3.1,2.5l4.8,10.9h0.1l4.7-10.9c0.7-1.7,1.5-2.5,3-2.5c1.6,0,2.6,1.2,2.6,2.9v17.7
	c0,1.5-0.9,2.4-2.3,2.4c-1.4,0-2.3-0.9-2.3-2.4v-10.9l0,0l-3.5,8.1c-0.7,1.6-1.3,2.1-2.4,2.1c-1.2,0-1.7-0.5-2.4-2.1l-3.5-8.1h-0.2
	v10.9c0,1.5-0.9,2.4-2.2,2.4c-1.4,0-2.3-0.9-2.3-2.4L587.2,414.9L587.2,414.9z M564.5,426.5v-11.9c0-1.5,1-2.6,2.4-2.6
	s2.4,1,2.4,2.6v12c0,2.7,1.6,4.3,3.8,4.3c2.3,0,3.8-1.5,3.8-4.3v-12c0-1.5,1-2.6,2.4-2.6s2.4,1,2.4,2.6v11.9c0,5.7-3.5,8.8-8.7,8.8
	C567.9,435.2,564.5,432.1,564.5,426.5 M544.8,414.4c0-1.3,0.8-2.2,2.2-2.2h11c1.4,0,2.3,0.9,2.3,2.2c0,1.2-0.9,2.1-2.3,2.1h-8
	c-0.1,0-0.2,0.1-0.2,0.2v4.5c0,0.1,0.1,0.2,0.2,0.2h6.4c1.4,0,2.3,0.9,2.3,2.1c0,1.3-0.9,2.1-2.3,2.1H550c-0.1,0-0.2,0.1-0.2,0.2
	v4.7c0,0.1,0.1,0.2,0.2,0.2h8.1c1.4,0,2.3,0.9,2.3,2.1c0,1.3-0.9,2.2-2.3,2.2h-11c-1.4,0-2.2-0.9-2.2-2.2L544.8,414.4L544.8,414.4z
	 M524.4,433.3c-0.7-0.5-1.2-1.3-1.2-2.1c0-1.2,0.9-2.2,2.2-2.2c0.5,0,1,0.2,1.4,0.4c1.9,1,3.2,1.4,4.9,1.4c2.4,0,3.7-1.1,3.7-2.6
	c0-1.4-0.8-2.2-3.5-2.5l-1.2-0.2c-4.6-0.6-7.1-2.8-7.1-6.8c0-4.2,3.2-7,8.1-7c2.5,0,5,0.6,6.3,1.5c0.8,0.5,1.2,1.2,1.2,2
	c0,1.3-0.9,2.2-2.2,2.2c-0.5,0-1-0.1-1.4-0.4c-1.1-0.5-2.5-0.9-3.9-0.9c-2,0-3.1,1-3.1,2.4c0,1.3,0.9,2.2,3.5,2.5l1.2,0.2
	c4.7,0.6,7.1,2.8,7.1,6.9s-3,7.1-8.9,7.1C528.3,435.2,525.8,434.2,524.4,433.3 M501.4,426.5v-11.9c0-1.5,1-2.6,2.4-2.6
	s2.4,1,2.4,2.6v12c0,2.7,1.6,4.3,3.8,4.3c2.3,0,3.8-1.5,3.8-4.3v-12c0-1.5,1-2.6,2.4-2.6s2.4,1,2.4,2.6v11.9c0,5.7-3.5,8.8-8.7,8.8
	C504.7,435.2,501.4,432.1,501.4,426.5 M474.3,414.9c0-1.8,1.1-2.9,2.7-2.9c1.4,0,2.3,0.8,3.1,2.5l4.8,10.9h0.1l4.7-10.9
	c0.7-1.7,1.5-2.5,3-2.5c1.6,0,2.6,1.2,2.6,2.9v17.7c0,1.5-0.9,2.4-2.3,2.4s-2.3-0.9-2.3-2.4v-10.9h-0.2l-3.5,8.1
	c-0.7,1.6-1.3,2.1-2.4,2.1s-1.7-0.5-2.4-2.1l-3.5-8.1h-0.2v10.9c0,1.5-0.9,2.4-2.2,2.4c-1.4,0-2.3-0.9-2.3-2.4v-17.7H474.3z
	 M450,430.5h2.3c2.3,0,3.9-0.7,4.4-2.5c0.3-0.7,0.4-2.1,0.4-4.4c0-2.4-0.2-3.6-0.4-4.4c-0.5-1.8-2.2-2.5-4.4-2.5H450
	c-0.1,0-0.2,0.1-0.2,0.2v13.6C449.8,430.4,449.8,430.5,450,430.5 M444.9,414.4c0-1.3,0.8-2.2,2.2-2.2h5.3c4.8,0,7.9,1.5,9,5.2
	c0.5,1.3,0.6,2.9,0.6,6.1s-0.3,4.8-0.6,6.1c-1.2,3.7-4.2,5.2-9,5.2h-5.3c-1.4,0-2.2-0.8-2.2-2.2V414.4z M434.8,428.4
	c0.3-0.8,0.4-2,0.4-4.9s-0.1-4.1-0.4-4.9c-0.5-1.5-1.7-2.4-3.5-2.4c-1.9,0-3.1,0.9-3.5,2.4c-0.3,0.8-0.4,2-0.4,4.9s0.1,4.1,0.4,4.9
	c0.5,1.5,1.7,2.4,3.5,2.4S434.3,429.9,434.8,428.4 M422.9,429.7c-0.5-1.6-0.6-2.9-0.6-6.2c0-3.3,0.1-4.6,0.6-6.2
	c1.2-3.7,4.3-5.5,8.2-5.5c4,0,7.1,1.8,8.2,5.5c0.5,1.6,0.6,2.9,0.6,6.2s-0.1,4.6-0.6,6.2c-1.2,3.7-4.3,5.5-8.2,5.5
	C427.3,435.2,424.2,433.4,422.9,429.7 M412.9,428.4c0.3-0.8,0.4-2,0.4-4.9s-0.1-4.1-0.4-4.9c-0.5-1.5-1.7-2.4-3.5-2.4
	c-1.9,0-3.1,0.9-3.5,2.4c-0.3,0.8-0.4,2-0.4,4.9s0.1,4.1,0.4,4.9c0.5,1.5,1.7,2.4,3.5,2.4S412.3,429.9,412.9,428.4 M401,429.7
	c-0.5-1.6-0.6-2.9-0.6-6.2c0-3.3,0.1-4.6,0.6-6.2c1.2-3.7,4.3-5.5,8.2-5.5c4,0,7.1,1.8,8.2,5.5c0.5,1.6,0.6,2.9,0.6,6.2
	s-0.1,4.6-0.6,6.2c-1.2,3.7-4.3,5.5-8.2,5.5C405.4,435.2,402.2,433.4,401,429.7 M382.8,414.4c0-1.3,0.8-2.2,2.2-2.2h11
	c1.4,0,2.3,0.9,2.3,2.2c0,1.2-0.9,2.1-2.3,2.1h-8.1c-0.1,0-0.2,0.1-0.2,0.2v4.8c0,0.1,0.1,0.2,0.2,0.2h6.4c1.4,0,2.3,0.9,2.3,2.1
	c0,1.3-0.8,2.1-2.3,2.1h-6.4c-0.1,0-0.2,0.1-0.2,0.2v6.4c0,1.5-1,2.6-2.4,2.6s-2.4-1-2.4-2.6L382.8,414.4L382.8,414.4z M572.4,390.2
	c0-3.3,0.1-4.6,0.6-6.2c1.2-3.7,4.3-5.5,8.3-5.5c3.7,0,6.2,1.5,7.4,3.5c0.3,0.5,0.5,0.9,0.5,1.4c0,1.3-1,2.2-2.3,2.2
	c-0.8,0-1.5-0.3-2.2-1.2c-0.9-1.2-2-1.6-3.4-1.6c-1.9,0-3.2,1-3.6,2.5c-0.3,0.8-0.4,1.9-0.4,4.8s0.1,4.1,0.4,4.9
	c0.5,1.5,1.7,2.5,3.7,2.5c1.7,0,3.2-0.9,3.6-2.4c0.2-0.6,0.3-1.4,0.3-2.3c0-0.1-0.1-0.2-0.2-0.2h-1.5c-1.3,0-2.1-0.7-2.1-1.9
	c0-1.2,0.8-1.9,2.1-1.9h4.7c1.3,0,1.9,0.7,1.9,1.9v0.3c0,2-0.2,3.9-0.5,5.2c-1.2,3.6-4.3,5.7-8.2,5.7c-4.1,0-7.1-1.8-8.3-5.5
	C572.6,394.7,572.4,393.5,572.4,390.2 M550.2,381.6c0-1.8,1.1-2.9,2.7-2.9c1.4,0,2.4,0.8,3.3,2.4l7,12.4h0.1v-12.4
	c0-1.5,0.9-2.4,2.3-2.4c1.4,0,2.3,0.9,2.3,2.4v17.7c0,1.8-1.1,2.9-2.7,2.9c-1.4,0-2.4-0.8-3.3-2.4l-7-12.3h-0.1v12.4
	c0,1.5-0.9,2.4-2.3,2.4c-1.4,0-2.3-0.9-2.3-2.4V381.6z M539.3,381.2c0-1.5,1-2.6,2.4-2.6s2.4,1,2.4,2.6V399c0,1.5-1,2.6-2.4,2.6
	s-2.4-1-2.4-2.6V381.2z M525,399.1v-15.7c0-0.1-0.1-0.2-0.2-0.2H521c-1.5,0-2.4-0.9-2.4-2.2c0-1.3,1-2.2,2.4-2.2h13
	c1.5,0,2.4,0.9,2.4,2.2c0,1.3-1,2.2-2.4,2.2h-3.8c-0.1,0-0.2,0.1-0.2,0.2v15.7c0,1.5-1,2.6-2.4,2.6S525,400.7,525,399.1 M499.8,400
	c-0.7-0.5-1.2-1.3-1.2-2.1c0-1.2,0.9-2.2,2.2-2.2c0.5,0,1,0.2,1.4,0.4c1.9,1,3.2,1.4,4.9,1.4c2.4,0,3.7-1.1,3.7-2.6
	c0-1.4-0.8-2.2-3.5-2.5l-1.2-0.2c-4.6-0.6-7.1-2.8-7.1-6.8c0-4.2,3.2-7,8.1-7c2.5,0,5,0.6,6.3,1.5c0.8,0.5,1.2,1.2,1.2,2
	c0,1.3-0.9,2.2-2.2,2.2c-0.5,0-1-0.1-1.4-0.4c-1.1-0.5-2.5-0.9-3.9-0.9c-2,0-3.1,1-3.1,2.4c0,1.3,0.9,2.2,3.5,2.5l1.2,0.2
	c4.7,0.6,7.1,2.8,7.1,6.9s-3,7.1-8.9,7.1C503.8,401.9,501.4,400.9,499.8,400 M476.9,393.1v-11.9c0-1.5,1-2.6,2.4-2.6s2.4,1,2.4,2.6
	v12c0,2.7,1.6,4.3,3.8,4.3c2.3,0,3.8-1.5,3.8-4.3v-12c0-1.5,1-2.6,2.4-2.6s2.4,1,2.4,2.6v11.9c0,5.7-3.5,8.8-8.7,8.8
	C480.3,401.9,476.9,398.8,476.9,393.1 M454.4,390.2c0-3.3,0.1-4.6,0.6-6.2c1.2-3.7,4.3-5.5,8.3-5.5c3.7,0,6.2,1.5,7.4,3.5
	c0.3,0.5,0.5,0.9,0.5,1.4c0,1.3-1,2.2-2.3,2.2c-0.8,0-1.5-0.3-2.2-1.2c-0.9-1.2-2-1.6-3.4-1.6c-1.9,0-3.2,1-3.6,2.5
	c-0.3,0.8-0.4,1.9-0.4,4.8s0.1,4.1,0.4,4.9c0.5,1.5,1.7,2.5,3.7,2.5c1.7,0,3.2-0.9,3.6-2.4c0.2-0.6,0.3-1.4,0.3-2.3
	c0-0.1-0.1-0.2-0.2-0.2h-1.5c-1.3,0-2.1-0.7-2.1-1.9c0-1.2,0.8-1.9,2.1-1.9h4.7c1.3,0,1.9,0.7,1.9,1.9v0.3c0,2-0.2,3.9-0.5,5.2
	c-1.2,3.6-4.3,5.7-8.2,5.7s-7.1-1.8-8.3-5.5C454.6,394.7,454.4,393.5,454.4,390.2 M434.6,400c-0.7-0.5-1.2-1.3-1.2-2.1
	c0-1.2,0.9-2.2,2.2-2.2c0.5,0,1,0.2,1.4,0.4c1.9,1,3.2,1.4,4.9,1.4c2.4,0,3.7-1.1,3.7-2.6c0-1.4-0.8-2.2-3.5-2.5l-1.2-0.2
	c-4.6-0.6-7.1-2.8-7.1-6.8c0-4.2,3.2-7,8.1-7c2.5,0,5,0.6,6.3,1.5c0.8,0.5,1.2,1.2,1.2,2c0,1.3-0.9,2.2-2.2,2.2
	c-0.5,0-1-0.1-1.4-0.4c-1.1-0.5-2.5-0.9-3.9-0.9c-2,0-3.1,1-3.1,2.4c0,1.3,0.9,2.2,3.5,2.5l1.2,0.2c4.7,0.6,7.1,2.8,7.1,6.9
	s-3,7.1-8.9,7.1C438.5,401.9,436.1,400.9,434.6,400 M423.9,381.2c0-1.5,1-2.6,2.4-2.6s2.4,1,2.4,2.6V399c0,1.5-1,2.6-2.4,2.6
	s-2.4-1-2.4-2.6V381.2z M406.5,397.2h2.3c2.3,0,3.9-0.7,4.4-2.5c0.3-0.7,0.4-2.1,0.4-4.4s-0.2-3.6-0.4-4.4c-0.5-1.8-2.2-2.5-4.4-2.5
	h-2.3c-0.1,0-0.2,0.1-0.2,0.2V397C406.3,397.1,406.4,397.2,406.5,397.2 M401.4,381c0-1.3,0.8-2.2,2.2-2.2h5.3c4.8,0,7.9,1.5,9,5.2
	c0.5,1.3,0.6,2.9,0.6,6.1s-0.3,4.8-0.6,6.1c-1.2,3.7-4.2,5.2-9,5.2h-5.3c-1.4,0-2.2-0.8-2.2-2.2V381z"/>
<path class="st0" d="M86.8,190l-0.5-2.4l-0.7,2.9c-0.1,0.5-0.5,0.7-0.9,0.6c-0.2-0.1-0.4-0.2-0.5-0.4s-0.1-0.4-0.1-0.6l1.3-5.2
	c0.1-0.3,0.2-0.5,0.4-0.6s0.5-0.2,0.7-0.1c0.5,0.1,0.6,0.5,0.7,1l0.6,3.3l2.1-2.7c0.3-0.5,0.6-0.6,1.1-0.5c0.3,0.1,0.5,0.2,0.5,0.4
	c0.1,0.2,0.1,0.5,0.1,0.7l-1.3,5.2c-0.1,0.4-0.4,0.6-0.7,0.6c-0.1,0-0.1,0-0.2,0c-0.2-0.1-0.4-0.2-0.5-0.4s-0.1-0.4-0.1-0.6l0.7-2.9
	l-1.4,1.9c-0.4,0.5-0.5,0.5-0.9,0.5C87.1,190.8,86.9,190.6,86.8,190 M78.4,190.1l-0.1-5.4c0-0.5,0.3-0.7,0.7-0.7l3.3-0.1l0,0
	c0.5,0,0.7,0.3,0.7,0.7s-0.3,0.7-0.7,0.7h-2.4v1.4h1.9c0.3,0,0.5,0.1,0.5,0.2c0.1,0.1,0.2,0.3,0.2,0.5s-0.1,0.4-0.2,0.5
	c-0.1,0.1-0.4,0.2-0.5,0.2h-1.9v1.9c0,0.5-0.4,0.9-0.8,0.9l0,0C78.6,191,78.4,190.7,78.4,190.1 M72.3,190.8L72.3,190.8L72.3,190.8
	L72.3,190.8L72.3,190.8z M73.9,189.6c0,0.5-0.4,0.8-1,1l-0.6,0.2l-1.1-3.9l0.6-0.2c0.6-0.2,1.2-0.1,1.4,0.4c0.2,0.2,0.3,0.6,0.5,1.2
	C73.9,188.9,73.9,189.3,73.9,189.6 M74.7,186.2c-0.6-1-1.6-1.3-3.1-0.8l-1.5,0.5c-0.5,0.1-0.6,0.5-0.5,0.9L71,192
	c0.1,0.4,0.4,0.5,0.6,0.5c0.1,0,0.2,0,0.3,0l1.5-0.5c1.4-0.5,2.2-1.2,2.3-2.3c0-0.4,0-0.8-0.3-1.8C75,186.9,74.8,186.4,74.7,186.2
	 M67.1,223.1c0.6-2.4,0.1-4.5-1.7-5.9c-0.5-0.5-1.4-0.4-1.9,0.2c-0.5,0.5-0.4,1.4,0.2,1.8c0.6,0.5,1.4,1.5,0.8,3.2
	c-0.6,2.3-2.4,3.4-5.2,3.4c-1.6,0-4.5-1.2-4.5-4c0-3.3,2.1-5.6,6.5-5.6c0.8,0,1.4-0.6,1.4-1.4s-0.5-1.4-1.4-1.4
	c-1.4,0-2.5-0.4-3.2-1.1c-0.6-0.7-0.5-1.7-0.5-2.3c0.2-0.9,0.9-3,4.1-3c1.7,0,2.6,1,2.6,1.9c0,0.5-0.1,0.7-0.2,0.8
	c-0.3,0.8-0.2,1.4,0.5,1.8c0.6,0.4,1.4,0.1,1.8-0.5c0.3-0.5,0.5-1.2,0.5-2c0.1-0.8-0.4-2.2-1.3-3.2c-0.7-0.7-1.9-1.6-4-1.6
	c-4.3,0-6.2,2.6-6.7,5.1c-0.3,1.7,0.1,3.3,1,4.4c0.1,0.1,0.2,0.3,0.4,0.4c-2.2,1.1-4.3,3.7-4.3,7.2c0,3.3,3,6.6,7.1,6.6
	C63.3,228.5,66.1,226.5,67.1,223.1 M94.3,221.6c0.8-2.9,1.5-5.5,1.5-5.5c0.2-0.7-0.3-1.4-0.9-1.6c-0.7-0.2-1.4,0.3-1.6,0.9
	c0,0-0.7,3-1.6,6c-0.9,3.2-2,3.2-2.5,3.2c-0.9,0-1.1-0.9-0.8-1.9c0.4-1.2,1.8-6.5,1.8-6.5c0.2-0.7-0.3-1.4-1-1.6
	c-0.7-0.2-1.4,0.2-1.6,0.9c0,0-1.4,5.2-1.8,6.4c-0.5,1.4-0.3,2.9,0.5,3.9c0.6,0.9,1.7,1.4,2.9,1.4c1.4,0,2.4-0.6,3.2-1.5
	c0.6,1,1.6,1.5,2.8,1.5c4,0,5-4.2,5.3-5.8c0.5-2,0.6-4.4,0.4-5.9c-0.1-0.7-0.8-1.2-1.5-1.1c-0.7,0.1-1.2,0.8-1.1,1.5
	c0.2,1.1,0.1,3.3-0.4,4.9c-0.7,3.3-1.7,3.7-2.7,3.7C94.4,224.5,93.7,224,94.3,221.6 M77.6,221.6c0.8-2.9,1.5-5.5,1.5-5.5
	c0.2-0.7-0.3-1.4-0.9-1.6c-0.7-0.2-1.4,0.3-1.6,0.9c0,0-0.7,3-1.6,6c-0.9,3.2-2,3.2-2.5,3.2c-0.9,0-1.1-0.9-0.8-1.9
	c0.4-1.2,1.8-6.5,1.8-6.5c0.2-0.7-0.3-1.4-1-1.6c-0.7-0.2-1.4,0.2-1.6,0.9c0,0-1.4,5.2-1.8,6.4c-0.5,1.4-0.3,2.9,0.5,3.9
	c0.6,0.9,1.7,1.4,2.9,1.4c1.4,0,2.4-0.6,3.2-1.5c0.6,1,1.6,1.5,2.8,1.5c4,0,5-4.2,5.3-5.8c0.5-2,0.6-4.4,0.4-5.9
	c-0.1-0.7-0.8-1.2-1.5-1.1c-0.7,0.1-1.2,0.8-1.1,1.5c0.2,1.1,0.1,3.3-0.4,4.9c-0.7,3.3-1.7,3.7-2.7,3.7
	C77.7,224.5,77.1,224,77.6,221.6 M77.6,221.6c0.8-2.9,1.5-5.5,1.5-5.5c0.2-0.7-0.3-1.4-0.9-1.6c-0.7-0.2-1.4,0.3-1.6,0.9
	c0,0-0.7,3-1.6,6c-0.9,3.2-2,3.2-2.5,3.2c-0.3,0-0.5-0.1-0.7-0.4c-0.3-0.4-0.3-0.9-0.1-1.6c0.4-1.2,1.8-6.5,1.8-6.5
	c0.2-0.7-0.3-1.4-1-1.6s-1.4,0.2-1.6,0.9c0,0-1.4,5.2-1.8,6.4c-0.5,1.4-0.3,2.9,0.5,3.9c0.6,0.9,1.7,1.4,2.9,1.4
	c1.4,0,2.4-0.5,3.2-1.4c0.6,0.8,1.6,1.4,2.8,1.4c4,0,5-4.2,5.3-5.8c0.5-2,0.6-4.4,0.4-5.9c-0.1-0.7-0.8-1.2-1.5-1.1
	c-0.7,0.1-1.2,0.8-1.1,1.5c0.2,1.1,0.1,3.3-0.4,4.9c-0.7,3.3-1.7,3.7-2.7,3.7c-0.5,0-0.7-0.3-0.7-0.3
	C77.4,223.8,77.4,222.8,77.6,221.6 M106.3,220.6l2.9-10.6c0.2-0.7-0.2-1.4-0.9-1.6c-0.7-0.2-1.4,0.2-1.6,0.9l-2.9,10.6
	c-0.2,0.7,0.2,1.4,0.9,1.6c0.1,0,0.3,0.1,0.4,0.1C105.7,221.6,106.2,221.3,106.3,220.6 M103.8,223.5c-0.9,0-1.6,0.7-1.6,1.6
	c0,0.9,0.7,1.6,1.6,1.6c0.9,0,1.6-0.7,1.6-1.6C105.4,224.2,104.7,223.5,103.8,223.5 M80.8,178.3c21.9,0,39.5,17.7,39.5,39.5
	s-17.7,39.5-39.5,39.5c-21.9,0-39.5-17.7-39.5-39.5S58.9,178.3,80.8,178.3 M80.8,180.9c-20.4,0-36.9,16.6-36.9,36.9
	s16.6,36.9,36.9,36.9s36.9-16.6,36.9-36.9S101.2,180.9,80.8,180.9 M99,234.2c0.5-0.5,0.5-1.4-0.1-1.9c-0.5-0.5-1.4-0.5-1.9,0.1
	c-4.2,4.5-10,7.1-16.1,7.1S69,237,65,232.5c-0.5-0.5-1.4-0.5-1.9-0.1c-0.5,0.5-0.5,1.4-0.1,1.9c4.6,5,11.1,7.8,17.8,7.8
	C87.8,242.3,94.4,239.3,99,234.2 M100.4,205.5c0.6-0.5,0.7-1.3,0.3-1.8c-4.5-6.4-12-10.2-19.9-10.2c-5,0-9.9,1.5-13.9,4.3
	c-0.6,0.5-0.7,1.3-0.4,1.8c0.5,0.6,1.3,0.7,1.8,0.4c3.7-2.5,8-3.9,12.4-3.9c7.1,0,13.7,3.4,17.7,9.1c0.3,0.4,0.6,0.5,1.1,0.5
	C99.9,205.8,100.2,205.7,100.4,205.5 M89.1,248.1l-1.2-1.9l-0.2,2.2L89.1,248.1z M91.2,250.5c-0.4,0.1-0.6-0.1-0.9-0.4l-0.5-0.7
	l-2.3,0.5l-0.1,0.8c0,0.4-0.3,0.6-0.6,0.7c-0.1,0-0.1,0-0.2,0c-0.1,0-0.3,0-0.4-0.1c-0.2-0.1-0.3-0.3-0.4-0.5c0-0.1,0-0.2,0-0.3
	l0.5-5.3c0.1-0.6,0.4-1,0.8-1.2c0.5-0.1,0.9,0.1,1.3,0.6l3,4.5c0.1,0.1,0.1,0.2,0.1,0.3C91.9,249.9,91.6,250.4,91.2,250.5
	 M81.7,247.7h-0.4c-0.9-0.1-1-0.4-1-0.6c0-0.2,0.1-0.4,0.2-0.5c0.2-0.1,0.4-0.2,0.6-0.2c0.4,0,0.8,0.1,1.2,0.3
	c0.2,0.1,0.3,0.1,0.5,0.1c0.5,0,0.7-0.4,0.7-0.7s-0.2-0.5-0.4-0.6c-0.5-0.3-1.3-0.5-1.9-0.5c-1.5,0-2.4,0.9-2.4,2.2
	c0,1.2,0.8,1.9,2.3,2.1h0.4c0.8,0.1,1,0.4,1,0.6c0,0.2-0.1,0.4-0.3,0.5s-0.5,0.2-0.8,0.2l0,0c-0.5,0-0.8-0.1-1.4-0.4
	c-0.1-0.1-0.3-0.1-0.5-0.1s-0.4,0.1-0.5,0.2c-0.1,0.2-0.2,0.4-0.2,0.5c0,0.3,0.2,0.5,0.4,0.6l0,0c0.4,0.2,1.1,0.5,2.1,0.5h0.1
	c0.8,0,1.5-0.3,2-0.6c0.5-0.4,0.7-0.9,0.6-1.6C83.9,248.6,83.2,247.9,81.7,247.7 M76.8,245c0.1,0.2,0.2,0.5,0.1,0.6l-0.8,3.4
	c-0.2,0.8-0.6,1.4-1.2,1.8c-0.4,0.2-0.8,0.4-1.3,0.4c-0.3,0-0.5,0-0.8-0.1c-0.8-0.2-1.4-0.5-1.7-1.1c-0.4-0.5-0.5-1.3-0.3-2.1
	l0.8-3.4c0.1-0.5,0.5-0.7,1-0.6c0.5,0.1,0.7,0.5,0.5,1l-0.8,3.5c-0.1,0.4-0.1,0.7,0.1,0.9c0.2,0.3,0.4,0.4,0.6,0.5s0.5,0,0.8-0.1
	c0.3-0.2,0.4-0.5,0.5-0.8l0.8-3.5c0.1-0.5,0.5-0.7,1-0.6C76.6,244.7,76.7,244.8,76.8,245 M101.7,270.3c-1.2,0.5-2.4,0.6-3.5,0.6
	c-2.4,0-4.3-0.9-4.9-2.5c-0.8-2.4,1.5-5.5,5.2-6.8c1.2-0.5,2.4-0.6,3.4-0.6c2.4,0,4.3,0.9,4.9,2.5
	C107.8,265.9,105.4,268.9,101.7,270.3 M109.4,262.6c-1-2.6-3.8-4.3-7.3-4.3c-1.4,0-3,0.3-4.3,0.8c-2.3,0.8-4.2,2.2-5.5,3.9
	c-1.2,1.6-1.7,3.3-1.5,5l-10,3.6l-11.7-4.3c0.5-3-1.4-6.1-4.4-7.2l0,0l0,0l-10.4-3.8c-0.7-0.3-1.4,0.1-1.7,0.8
	c-0.3,0.7,0.1,1.4,0.8,1.7l10.4,3.8l0,0l0,0c2.2,0.8,3.3,3.1,2.5,5.1c-0.7,2.1-3.1,3.1-5.2,2.3l0,0l0,0l-10.4-3.8
	c-0.7-0.3-1.4,0.1-1.7,0.8c-0.3,0.7,0.1,1.4,0.8,1.7l10.4,3.8l0,0l0,0c3.1,1.1,6.4-0.1,8.1-2.7l8.8,3.2l-15.7,5.7
	c-0.7,0.3-1,1-0.8,1.7c0.3,0.7,1,1,1.7,0.8l18.6-6.8l18.8,6.9c0.7,0.3,1.4-0.1,1.7-0.8c0.3-0.7-0.1-1.4-0.8-1.7L84.8,273l7.1-2.5
	c1.3,1.9,3.7,3.1,6.8,3.1c1.4,0,3-0.3,4.3-0.8c2.3-0.8,4.2-2.2,5.5-3.9C109.7,266.9,110.1,264.6,109.4,262.6 M51.3,263.9l10.4,3.8
	c0.7,0.3,1.4-0.1,1.7-0.8c0.3-0.7-0.1-1.4-0.8-1.7l-10.4-3.8c-0.7-0.3-1.4,0.1-1.7,0.8C50.3,262.8,50.7,263.6,51.3,263.9
	 M113.6,305.6c0-0.6,0.4-1,1-1c0.5,0,0.8,0.3,1.1,0.9l1.7,3.9h0.1l1.7-3.9c0.3-0.6,0.5-0.9,1.1-0.9s0.9,0.4,0.9,1v6.3
	c0,0.5-0.4,0.8-0.8,0.8s-0.8-0.3-0.8-0.8V308h-0.1l-1.3,2.9c-0.3,0.5-0.5,0.7-0.8,0.7s-0.6-0.2-0.8-0.7l-1.3-2.9h-0.1v3.9
	c0,0.5-0.4,0.8-0.8,0.8s-0.8-0.3-0.8-0.8L113.6,305.6L113.6,305.6z M105.5,309.7v-4.3c0-0.5,0.4-0.9,0.9-0.9s0.9,0.4,0.9,0.9v4.3
	c0,1,0.5,1.5,1.4,1.5s1.4-0.5,1.4-1.5v-4.3c0-0.5,0.4-0.9,0.9-0.9s0.9,0.4,0.9,0.9v4.3c0,2-1.3,3.1-3.1,3.1
	C106.7,312.7,105.5,311.7,105.5,309.7 M98.5,305.3c0-0.5,0.3-0.7,0.7-0.7h3.9c0.5,0,0.8,0.4,0.8,0.7c0,0.5-0.4,0.7-0.8,0.7h-2.8
	c-0.1,0-0.1,0-0.1,0.1v1.6c0,0.1,0,0.1,0.1,0.1h2.3c0.5,0,0.8,0.3,0.8,0.7s-0.3,0.7-0.8,0.7h-2.3c-0.1,0-0.1,0-0.1,0.1v1.6
	c0,0.1,0,0.1,0.1,0.1h2.8c0.5,0,0.8,0.4,0.8,0.7c0,0.5-0.4,0.7-0.8,0.7h-3.9c-0.5,0-0.7-0.3-0.7-0.7V305.3z M91.3,312.1
	c-0.3-0.2-0.5-0.5-0.5-0.7c0-0.5,0.4-0.7,0.8-0.7c0.2,0,0.4,0.1,0.5,0.2c0.6,0.4,1.2,0.5,1.7,0.5c0.8,0,1.3-0.4,1.3-0.9
	s-0.3-0.7-1.3-0.9l-0.5-0.1c-1.6-0.2-2.5-1-2.5-2.4s1.1-2.4,2.8-2.4c0.9,0,1.8,0.3,2.3,0.5c0.3,0.2,0.5,0.5,0.5,0.7
	c0,0.5-0.4,0.7-0.7,0.7c-0.2,0-0.4-0.1-0.5-0.1c-0.4-0.2-0.9-0.4-1.4-0.4c-0.7,0-1.1,0.4-1.1,0.9s0.4,0.7,1.3,0.9l0.5,0.1
	c1.6,0.3,2.5,1,2.5,2.4s-1.1,2.5-3.2,2.5C92.7,312.7,91.9,312.4,91.3,312.1 M83.2,309.7v-4.3c0-0.5,0.4-0.9,0.9-0.9s0.9,0.4,0.9,0.9
	v4.3c0,1,0.5,1.5,1.4,1.5s1.4-0.5,1.4-1.5v-4.3c0-0.5,0.4-0.9,0.9-0.9s0.9,0.4,0.9,0.9v4.3c0,2-1.3,3.1-3.1,3.1
	C84.3,312.7,83.2,311.7,83.2,309.7 M73.6,305.6c0-0.6,0.4-1,1-1c0.5,0,0.8,0.3,1.1,0.9l1.7,3.9h0.1l1.7-3.9c0.3-0.6,0.5-0.9,1.1-0.9
	c0.5,0,0.9,0.4,0.9,1v6.3c0,0.5-0.4,0.8-0.8,0.8s-0.8-0.3-0.8-0.8V308h-0.1l-1.3,2.9c-0.3,0.5-0.5,0.7-0.8,0.7
	c-0.4,0-0.6-0.2-0.8-0.7l-1.3-2.9h-0.1v3.9c0,0.5-0.4,0.8-0.8,0.8s-0.8-0.3-0.8-0.8L73.6,305.6L73.6,305.6z M64.9,311.1h0.8
	c0.8,0,1.4-0.3,1.6-0.9c0.1-0.3,0.2-0.7,0.2-1.5s-0.1-1.3-0.2-1.5c-0.2-0.6-0.8-0.9-1.6-0.9h-0.8c-0.1,0-0.1,0-0.1,0.1L64.9,311.1
	C64.9,311,64.9,311.1,64.9,311.1 M63.1,305.3c0-0.5,0.3-0.7,0.7-0.7h1.9c1.7,0,2.8,0.5,3.2,1.9c0.2,0.5,0.3,1,0.3,2.2
	s-0.1,1.7-0.3,2.2c-0.5,1.3-1.4,1.8-3.2,1.8h-1.9c-0.5,0-0.7-0.3-0.7-0.7V305.3z M59.5,310.4c0.1-0.3,0.1-0.7,0.1-1.7s0-1.4-0.1-1.7
	c-0.2-0.5-0.6-0.9-1.3-0.9c-0.6,0-1.1,0.4-1.3,0.9c-0.1,0.3-0.1,0.7-0.1,1.7s0,1.4,0.1,1.7c0.2,0.5,0.6,0.9,1.3,0.9
	C58.9,311.2,59.4,310.9,59.5,310.4 M55.3,310.8c-0.2-0.5-0.2-1-0.2-2.2s0.1-1.6,0.2-2.2c0.5-1.3,1.5-2,2.9-2s2.5,0.6,2.9,2
	c0.2,0.5,0.2,1,0.2,2.2s-0.1,1.6-0.2,2.2c-0.5,1.3-1.5,2-2.9,2C56.8,312.7,55.7,312.1,55.3,310.8 M51.8,310.4
	c0.1-0.3,0.1-0.7,0.1-1.7s0-1.4-0.1-1.7c-0.2-0.5-0.6-0.9-1.3-0.9c-0.6,0-1.1,0.4-1.3,0.9c-0.1,0.3-0.1,0.7-0.1,1.7s0,1.4,0.1,1.7
	c0.2,0.5,0.6,0.9,1.3,0.9C51.1,311.2,51.6,310.9,51.8,310.4 M47.6,310.8c-0.2-0.5-0.2-1-0.2-2.2s0.1-1.6,0.2-2.2
	c0.5-1.3,1.5-2,2.9-2s2.5,0.6,2.9,2c0.2,0.5,0.2,1,0.2,2.2s-0.1,1.6-0.2,2.2c-0.5,1.3-1.5,2-2.9,2C49.1,312.7,48,312.1,47.6,310.8
	 M41.1,305.3c0-0.5,0.3-0.7,0.7-0.7h3.9c0.5,0,0.8,0.4,0.8,0.7c0,0.5-0.4,0.7-0.8,0.7h-2.8c-0.1,0-0.1,0-0.1,0.1v1.7
	c0,0.1,0,0.1,0.1,0.1h2.3c0.5,0,0.8,0.3,0.8,0.7s-0.3,0.7-0.8,0.7h-2.3c-0.1,0-0.1,0-0.1,0.1v2.3c0,0.5-0.4,0.9-0.9,0.9
	s-0.9-0.4-0.9-0.9L41.1,305.3L41.1,305.3z M108.3,296.8c0-1.2,0.1-1.6,0.2-2.2c0.5-1.3,1.5-2,3-2c1.3,0,2.2,0.5,2.6,1.3
	c0.1,0.2,0.2,0.4,0.2,0.5c0,0.5-0.4,0.8-0.8,0.8c-0.3,0-0.5-0.1-0.7-0.5c-0.3-0.5-0.7-0.6-1.2-0.6c-0.7,0-1.1,0.4-1.3,0.9
	c-0.1,0.3-0.1,0.6-0.1,1.7c0,1,0,1.4,0.1,1.7c0.2,0.5,0.6,0.9,1.4,0.9c0.6,0,1.1-0.4,1.3-0.8c0.1-0.2,0.1-0.5,0.1-0.8
	c0-0.1,0-0.1-0.1-0.1h-0.6c-0.5,0-0.7-0.3-0.7-0.7s0.3-0.7,0.7-0.7h1.6c0.5,0,0.7,0.3,0.7,0.7v0.1c0,0.7-0.1,1.4-0.2,1.8
	c-0.5,1.3-1.5,2-2.9,2s-2.5-0.6-3-2C108.4,298.4,108.3,298,108.3,296.8 M100.4,293.7c0-0.6,0.4-1,1-1c0.5,0,0.8,0.3,1.2,0.8l2.4,4.3
	h0.1v-4.4c0-0.5,0.4-0.8,0.8-0.8c0.5,0,0.8,0.3,0.8,0.8v6.3c0,0.6-0.4,1-1,1c-0.5,0-0.8-0.3-1.2-0.8l-2.4-4.3H102v4.3
	c0,0.5-0.4,0.8-0.8,0.8c-0.5,0-0.8-0.3-0.8-0.8V293.7z M96.6,293.6c0-0.5,0.4-0.9,0.9-0.9s0.9,0.4,0.9,0.9v6.3
	c0,0.5-0.4,0.9-0.9,0.9s-0.9-0.4-0.9-0.9V293.6z M91.5,300v-5.6c0-0.1,0-0.1-0.1-0.1H90c-0.5,0-0.9-0.4-0.9-0.7
	c0-0.5,0.4-0.8,0.9-0.8h4.6c0.5,0,0.9,0.4,0.9,0.8c0,0.5-0.4,0.7-0.9,0.7h-1.4c-0.1,0-0.1,0-0.1,0.1v5.6c0,0.5-0.4,0.9-0.9,0.9
	C91.9,300.9,91.5,300.5,91.5,300 M82.6,300.3c-0.3-0.2-0.5-0.5-0.5-0.7c0-0.5,0.4-0.7,0.8-0.7c0.2,0,0.4,0.1,0.5,0.2
	c0.6,0.4,1.2,0.5,1.7,0.5c0.8,0,1.3-0.4,1.3-0.9s-0.3-0.7-1.3-0.9l-0.5-0.1c-1.6-0.2-2.5-1-2.5-2.4s1.1-2.4,2.8-2.4
	c0.9,0,1.8,0.3,2.3,0.5c0.3,0.2,0.5,0.5,0.5,0.7c0,0.5-0.4,0.7-0.7,0.7c-0.2,0-0.4-0.1-0.5-0.1c-0.4-0.2-0.9-0.4-1.4-0.4
	c-0.7,0-1.1,0.4-1.1,0.9s0.4,0.7,1.3,0.9l0.5,0.1c1.6,0.3,2.5,1,2.5,2.4s-1.1,2.5-3.2,2.5C84,301,83.2,300.6,82.6,300.3 M74.5,297.8
	v-4.3c0-0.5,0.4-0.9,0.9-0.9s0.9,0.4,0.9,0.9v4.3c0,1,0.5,1.5,1.4,1.5c0.8,0,1.4-0.5,1.4-1.5v-4.3c0-0.5,0.4-0.9,0.9-0.9
	s0.9,0.4,0.9,0.9v4.3c0,2-1.3,3.1-3.1,3.1C75.7,301,74.5,299.9,74.5,297.8 M66.5,296.8c0-1.2,0.1-1.6,0.2-2.2c0.5-1.3,1.5-2,3-2
	c1.3,0,2.2,0.5,2.6,1.3c0.1,0.2,0.2,0.4,0.2,0.5c0,0.5-0.4,0.8-0.8,0.8c-0.3,0-0.5-0.1-0.7-0.5c-0.3-0.5-0.7-0.6-1.2-0.6
	c-0.7,0-1.1,0.4-1.3,0.9c-0.1,0.3-0.1,0.6-0.1,1.7c0,1,0,1.4,0.1,1.7c0.2,0.5,0.6,0.9,1.3,0.9c0.6,0,1.1-0.4,1.3-0.8
	c0.1-0.2,0.1-0.5,0.1-0.8c0-0.1,0-0.1-0.1-0.1h-0.5c-0.5,0-0.7-0.3-0.7-0.7s0.3-0.7,0.7-0.7h1.6c0.5,0,0.7,0.3,0.7,0.7v0.1
	c0,0.7-0.1,1.4-0.2,1.8c-0.5,1.3-1.5,2-2.9,2s-2.5-0.6-3-2C66.5,298.4,66.5,298,66.5,296.8 M59.5,300.3c-0.3-0.2-0.5-0.5-0.5-0.7
	c0-0.5,0.4-0.7,0.8-0.7c0.2,0,0.4,0.1,0.5,0.2c0.6,0.4,1.2,0.5,1.7,0.5c0.8,0,1.3-0.4,1.3-0.9S63,298,62,297.8l-0.5-0.1
	c-1.6-0.2-2.5-1-2.5-2.4s1.1-2.4,2.8-2.4c0.9,0,1.8,0.3,2.3,0.5c0.3,0.2,0.5,0.5,0.5,0.7c0,0.5-0.4,0.7-0.7,0.7
	c-0.2,0-0.4-0.1-0.5-0.1c-0.4-0.2-0.9-0.4-1.4-0.4c-0.7,0-1.1,0.4-1.1,0.9s0.4,0.7,1.3,0.9l0.5,0.1c1.6,0.3,2.5,1,2.5,2.4
	s-1.1,2.5-3.2,2.5C60.8,301,60,300.6,59.5,300.3 M55.7,293.6c0-0.5,0.4-0.9,0.9-0.9s0.9,0.4,0.9,0.9v6.3c0,0.5-0.4,0.9-0.9,0.9
	s-0.9-0.4-0.9-0.9V293.6z M49.5,299.3h0.8c0.8,0,1.4-0.3,1.6-0.9c0.1-0.3,0.2-0.7,0.2-1.5s-0.1-1.3-0.2-1.5
	c-0.2-0.6-0.8-0.9-1.6-0.9h-0.8c-0.1,0-0.1,0-0.1,0.1L49.5,299.3C49.4,299.3,49.4,299.3,49.5,299.3 M47.7,293.6
	c0-0.5,0.3-0.7,0.7-0.7h1.9c1.7,0,2.8,0.5,3.2,1.9c0.2,0.5,0.3,1,0.3,2.2s-0.1,1.7-0.3,2.2c-0.5,1.4-1.4,1.9-3.2,1.9h-1.9
	c-0.5,0-0.7-0.3-0.7-0.7V293.6z"/>
<path class="st0" d="M917.8,246.6c-0.1,0.2-0.3,0.3-0.5,0.4l-1.2,0.3l-0.4-1.4l1.2-0.3c0.3-0.1,0.5,0,0.6,0.1
	c0.2,0.1,0.3,0.3,0.4,0.5C918,246.2,918,246.4,917.8,246.6 M920.4,249.5c0-0.2-0.1-0.3-0.2-0.4l-1.4-1.4c0.5-0.5,0.8-1.3,0.6-2.1
	c-0.3-1.3-1.4-1.9-2.8-1.5l-2.1,0.5c-0.5,0.1-0.6,0.5-0.5,0.9l1.3,5.2c0.1,0.3,0.2,0.5,0.4,0.5c0.1,0.1,0.3,0.1,0.5,0.1
	c0.1,0,0.2,0,0.2,0c0.2-0.1,0.4-0.2,0.5-0.4s0.1-0.5,0.1-0.6l-0.5-1.7l0.9-0.2l1.6,1.8l0,0c0.3,0.3,0.5,0.4,0.9,0.3
	C920.3,250.4,920.5,249.9,920.4,249.5 M911.6,250.4h-2.4V249h1.9c0.2,0,0.4-0.1,0.5-0.2c0.1-0.1,0.2-0.3,0.2-0.5s-0.1-0.4-0.2-0.5
	c-0.2-0.1-0.4-0.2-0.5-0.2h-1.9v-1.3h2.4c0.5,0,0.7-0.3,0.7-0.7s-0.3-0.7-0.7-0.7l0,0l-3.3,0.1c-0.5,0-0.7,0.3-0.7,0.7l0.1,5.5
	c0,0.2,0.1,0.4,0.2,0.5c0.1,0.2,0.3,0.2,0.5,0.2l0,0l3.3-0.1c0.2,0,0.4-0.1,0.5-0.2c0.1-0.1,0.2-0.3,0.2-0.5s-0.1-0.4-0.2-0.5
	S911.8,250.4,911.6,250.4 M903.5,244.1c-1.3-0.3-2.3,0.1-2.9,1.1c-0.3,0.5-0.4,0.8-0.6,1.8l0,0c-0.3,1-0.3,1.4-0.3,1.9
	c0.1,1.1,0.8,2,2.1,2.3c0.3,0.1,0.5,0.1,0.7,0.1c0.9,0,1.6-0.5,2.1-1.2c0.3-0.5,0.5-1,0.5-1.4v-0.1c0.1-0.4-0.1-0.7-0.5-0.8
	l-1.4-0.4c-0.4-0.1-0.7,0.1-0.8,0.5c-0.1,0.4,0.1,0.7,0.5,0.8l0.5,0.1c-0.1,0.3-0.1,0.5-0.2,0.6c-0.2,0.4-0.6,0.5-1.2,0.4
	c-0.5-0.1-0.8-0.5-0.8-0.9c0-0.3,0-0.6,0.3-1.4c0.2-0.8,0.3-1.1,0.5-1.4c0.3-0.5,0.6-0.5,1.2-0.5c0.5,0.1,0.6,0.3,0.8,0.6
	c0.1,0.3,0.3,0.5,0.6,0.5c0.5,0.1,0.8-0.1,0.9-0.5c0-0.2,0-0.3,0-0.5C905.2,244.9,904.5,244.3,903.5,244.1 M890.7,238.1
	c-1.4,0-3.4-0.6-3.4-2.4s2.1-2.4,3.3-2.4c1.9,0,3.2,0.8,4.7,2.2C893.8,237.2,892.3,238.1,890.7,238.1 M928.6,218.8
	c-0.7,0.3-1.1,1-0.8,1.7c0.3,0.7,0.2,1.8-0.4,2.6c-0.7,1-1.4,1.4-2.4,1.4c-0.3,0-0.5-0.1-0.7-0.4c-0.3-0.4-0.3-0.9-0.1-1.6
	c0.4-1.2,1.8-6.5,1.8-6.5c0.2-0.7-0.3-1.4-0.9-1.6c-0.7-0.2-1.4,0.3-1.6,0.9c0,0-1.4,5.2-1.8,6.4c-0.2,0.5-0.3,1.1-0.3,1.5
	c-0.9,0.7-1.8,1.1-2.4,1.1c-0.5,0-0.9-0.3-1.2-0.6s-0.4-0.8-0.2-1.4c0.1-0.2,0.1-0.3,0.2-0.5c0.9-3.1,1.6-6.1,1.7-6.1
	c0.2-0.7-0.3-1.4-0.9-1.6c-0.7-0.2-1.4,0.3-1.6,0.9c0,0-0.7,3-1.6,6c-0.9,3.2-2,3.2-2.5,3.2c-0.3,0-0.5-0.1-0.7-0.4
	c-0.3-0.4-0.3-0.9-0.1-1.5c0.4-1.2,1.8-6.5,1.8-6.5l0,0c0-0.1,0.1-0.2,0.1-0.4c0-0.7-0.6-1.4-1.4-1.4h-5.7c0.2-0.5,0.4-1.1,0.5-1.6
	c0.9-2.8,2-4.2,3.3-4.2c1.4,0,2.2,0.8,2.3,0.9c0.5,0.5,1.3,0.6,1.8,0.2c0.5-0.5,0.6-1.3,0.2-1.8c-0.2-0.2-1.5-1.9-4.3-1.9
	c-2.5,0-4.5,2-5.8,6.1c-0.5,1.8-1.4,4.3-2.3,6.8c-0.8,2.4-1.6,4.8-2.1,6.3c-1.1,3.3-2.3,6.1-3.5,8.1c-1.7-1.4-3.5-2.6-6.2-2.6
	c-2.9,0-6,1.8-6,5.1s3.2,5,6.1,5c2.4,0,4.5-1.2,6.5-3.5c2.6,2.3,6.2,4.8,12.6,5.1c6.6,0,13-2.7,17.6-7.5c0.5-0.5,0.5-1.4,0-1.9
	s-1.4-0.5-1.9,0c-4.1,4.3-9.8,6.7-15.7,6.7c-5.7-0.3-8.6-2.4-11-4.5c1.4-2.4,2.8-5.3,4-9c0.5-1.5,1.3-3.9,2.1-6.3
	c0.3-0.9,0.5-1.7,0.8-2.6h4.8c-0.5,1.6-1.2,4.1-1.4,4.8c-0.5,1.4-0.3,2.9,0.5,3.9c0.6,0.9,1.7,1.4,2.9,1.4c1.4,0,2.4-0.5,3.3-1.4
	c0.8,0.9,1.9,1.4,3.1,1.4c1,0,2.2-0.5,3.3-1.2c0.6,0.7,1.6,1.2,2.6,1.2c2,0,3.5-0.8,4.7-2.6c1.1-1.6,1.1-3.7,0.6-5
	C930,219,929.2,218.6,928.6,218.8 M925.8,212.7c0.9,0,1.6-0.7,1.6-1.6c0-0.9-0.7-1.6-1.6-1.6s-1.6,0.7-1.6,1.6
	C924.1,211.8,924.8,212.7,925.8,212.7 M899.2,213c0,2.9-2.2,4.4-6.4,4.8l0.2-0.8c0.8-4.4,1.3-7,2.4-8.9C898,209,899.2,211,899.2,213
	 M892.4,220.4c8.3-0.4,9.6-4.7,9.6-7.4c0-3.9-3.3-8-9-8c-7.9,0-10,4.6-10,7.3c0,2.1,1.2,3.9,2.9,4.7c0.6,0.3,1.4,0,1.7-0.6
	c0.3-0.6,0-1.4-0.6-1.7c-0.8-0.4-1.4-1.3-1.4-2.3c0-0.5,0.2-4.5,7.1-4.6c-1,2.1-1.5,4.7-2.3,8.8l-0.3,1.7c-0.8,4.6-2.4,7.1-4.6,7.1
	c-0.2,0-2.2-0.1-2.2-2.1c0-1.4,0.9-1.5,1-1.5c0.7,0,1.3-0.6,1.3-1.4c0-0.7-0.6-1.4-1.4-1.4c-1.2,0-3.6,1.1-3.6,4.2s2.4,4.7,4.8,4.7
	C887.8,228,890.7,226.6,892.4,220.4 M938,208.5c-0.7-0.2-1.4,0.2-1.6,0.9l-2.9,10.6c-0.2,0.7,0.2,1.4,0.9,1.6c0.1,0,0.3,0.1,0.4,0.1
	c0.5,0,1.1-0.4,1.3-1l2.9-10.6C939.1,209.4,938.7,208.7,938,208.5 M933.4,223.6c-0.9,0-1.6,0.7-1.6,1.6c0,0.9,0.7,1.6,1.6,1.6
	s1.6-0.7,1.6-1.6C935.1,224.3,934.3,223.6,933.4,223.6 M928.6,204.3c0.5-0.5,0.6-1.3,0.2-1.8c-4.6-5.7-11.6-9-18.9-9
	c-5,0-9.8,1.5-13.9,4.3c-0.6,0.5-0.7,1.3-0.4,1.8c0.5,0.6,1.3,0.7,1.8,0.4c3.6-2.5,8-3.9,12.4-3.9c6.6,0,12.8,2.9,16.9,8.1
	c0.3,0.4,0.6,0.5,1,0.5C928.1,204.7,928.4,204.6,928.6,204.3 M909.7,178.3c21.9,0,39.5,17.7,39.5,39.5c0,21.9-17.7,39.5-39.5,39.5
	c-21.9,0-39.5-17.7-39.5-39.5C870.1,196,887.8,178.3,909.7,178.3 M909.7,180.9c-20.4,0-36.9,16.6-36.9,36.9s16.6,36.9,36.9,36.9
	c20.4,0,36.9-16.6,36.9-36.9S930.1,180.9,909.7,180.9 M916.3,190.8c0.4,0.1,0.6,0,0.9-0.5l1.4-1.9l-0.7,2.9c-0.1,0.3,0,0.5,0.1,0.6
	s0.3,0.3,0.5,0.4c0.1,0,0.2,0,0.2,0c0.4,0,0.6-0.2,0.7-0.6l1.3-5.2c0.1-0.3,0-0.5-0.1-0.7s-0.3-0.4-0.5-0.4
	c-0.5-0.1-0.8,0.1-1.1,0.5l-2.1,2.7l-0.6-3.3c-0.1-0.5-0.3-0.9-0.7-1c-0.3-0.1-0.5,0-0.7,0.1s-0.4,0.4-0.4,0.6l-1.3,5.2
	c-0.1,0.3,0,0.5,0.1,0.6c0.1,0.2,0.3,0.3,0.5,0.4c0.5,0.1,0.8-0.1,0.9-0.6l0.7-2.9l0.5,2.4C915.8,190.5,916,190.7,916.3,190.8
	 M908,190.9L908,190.9c0.5,0,0.8-0.4,0.8-0.9v-1.9h1.9c0.3,0,0.5-0.1,0.5-0.2c0.1-0.1,0.2-0.3,0.2-0.5s-0.1-0.4-0.2-0.5
	c-0.2-0.1-0.4-0.2-0.5-0.2h-1.9v-1.4h2.4c0.5,0,0.7-0.3,0.7-0.7s-0.3-0.7-0.7-0.7l0,0l-3.3,0.1c-0.5,0-0.7,0.3-0.7,0.7l0.1,5.4
	C907.2,190.6,907.6,190.9,908,190.9 M901.2,190.8L901.2,190.8L901.2,190.8L901.2,190.8L901.2,190.8z M902.6,188.2
	c-0.2-0.5-0.4-1-0.5-1.2c-0.3-0.5-0.7-0.5-1.4-0.4l-0.6,0.2l1.1,3.9l0.6-0.2c0.6-0.2,1-0.5,1-1C902.9,189.2,902.8,188.9,902.6,188.2
	 M904.2,187.8c0.3,1,0.4,1.4,0.3,1.8c-0.1,1.2-0.7,1.9-2.3,2.3l-1.5,0.5c-0.1,0-0.2,0-0.3,0c-0.3,0-0.5-0.2-0.6-0.5l-1.4-5.2
	c-0.1-0.5,0.1-0.8,0.5-0.9l1.5-0.5c1.4-0.5,2.4-0.2,3.1,0.8C903.8,186.4,903.9,186.8,904.2,187.8 M942.4,311.8
	c0,0.5,0.4,0.8,0.8,0.8s0.8-0.3,0.8-0.8v-3.9h0.1l1.3,2.9c0.3,0.5,0.5,0.7,0.8,0.7c0.4,0,0.6-0.2,0.8-0.7l1.3-2.9h0.1v3.9
	c0,0.5,0.4,0.8,0.8,0.8s0.8-0.3,0.8-0.8v-6.3c0-0.6-0.4-1-0.9-1s-0.8,0.3-1.1,0.9l-1.7,3.9h-0.1l-1.7-3.9c-0.3-0.6-0.5-0.9-1.1-0.9
	s-1,0.4-1,1L942.4,311.8L942.4,311.8z M937.5,312.7c1.8,0,3.1-1.1,3.1-3.1v-4.3c0-0.5-0.4-0.9-0.9-0.9s-0.9,0.4-0.9,0.9v4.3
	c0,1-0.5,1.5-1.4,1.5c-0.7,0-1.4-0.5-1.4-1.5v-4.3c0-0.5-0.4-0.9-0.9-0.9s-0.9,0.4-0.9,0.9v4.3C934.4,311.7,935.6,312.7,937.5,312.7
	 M927.4,311.8c0,0.5,0.3,0.7,0.7,0.7h3.9c0.5,0,0.8-0.4,0.8-0.7c0-0.5-0.4-0.7-0.8-0.7h-2.8c-0.1,0-0.1,0-0.1-0.1v-1.6
	c0-0.1,0-0.1,0.1-0.1h2.3c0.5,0,0.8-0.3,0.8-0.7s-0.3-0.7-0.8-0.7h-2.3c-0.1,0-0.1,0-0.1-0.1v-1.6c0-0.1,0-0.1,0.1-0.1h2.8
	c0.5,0,0.8-0.4,0.8-0.7c0-0.5-0.4-0.7-0.8-0.7h-3.9c-0.5,0-0.7,0.3-0.7,0.7V311.8z M922.7,312.7c2.1,0,3.2-1.1,3.2-2.5
	s-0.9-2.2-2.5-2.4l-0.5-0.1c-0.9-0.1-1.3-0.5-1.3-0.9c0-0.5,0.4-0.9,1.1-0.9c0.5,0,1,0.2,1.4,0.4c0.2,0.1,0.4,0.1,0.5,0.1
	c0.5,0,0.7-0.4,0.7-0.7c0-0.3-0.1-0.5-0.5-0.7c-0.5-0.3-1.4-0.5-2.3-0.5c-1.7,0-2.8,1-2.8,2.4s0.9,2.2,2.5,2.4l0.5,0.1
	c1,0.1,1.3,0.5,1.3,0.9c0,0.5-0.5,0.9-1.4,0.9c-0.6,0-1.1-0.2-1.7-0.5c-0.2-0.1-0.4-0.2-0.5-0.2c-0.5,0-0.8,0.4-0.8,0.7
	c0,0.3,0.2,0.5,0.5,0.7C920.7,312.4,921.6,312.7,922.7,312.7 M915.1,312.7c1.8,0,3.1-1.1,3.1-3.1v-4.3c0-0.5-0.4-0.9-0.9-0.9
	s-0.9,0.4-0.9,0.9v4.3c0,1-0.5,1.5-1.4,1.5c-0.7,0-1.4-0.5-1.4-1.5v-4.3c0-0.5-0.4-0.9-0.9-0.9s-0.9,0.4-0.9,0.9v4.3
	C912,311.7,913.3,312.7,915.1,312.7 M902.4,311.8c0,0.5,0.4,0.8,0.8,0.8s0.8-0.3,0.8-0.8v-3.9h0.1l1.3,2.9c0.3,0.5,0.5,0.7,0.8,0.7
	c0.4,0,0.6-0.2,0.8-0.7l1.3-2.9h0.1v3.9c0,0.5,0.4,0.8,0.8,0.8s0.8-0.3,0.8-0.8v-6.3c0-0.6-0.4-1-0.9-1s-0.8,0.3-1.1,0.9l-1.7,3.9
	h-0.1l-1.7-3.9c-0.3-0.6-0.5-0.9-1.1-0.9s-1,0.4-1,1L902.4,311.8L902.4,311.8z M893.7,310.9v-4.8c0-0.1,0-0.1,0.1-0.1h0.8
	c0.8,0,1.4,0.3,1.6,0.9c0.1,0.3,0.2,0.7,0.2,1.5s-0.1,1.3-0.2,1.5c-0.2,0.6-0.8,0.9-1.6,0.9h-0.9C893.7,311,893.7,311,893.7,310.9
	 M892,311.8c0,0.5,0.3,0.7,0.7,0.7h1.9c1.7,0,2.8-0.5,3.2-1.9c0.2-0.5,0.3-1,0.3-2.2s-0.1-1.7-0.3-2.2c-0.5-1.4-1.4-1.9-3.2-1.9
	h-1.9c-0.5,0-0.7,0.3-0.7,0.7V311.8z M887.2,311.2c-0.6,0-1.1-0.4-1.3-0.9c-0.1-0.3-0.1-0.7-0.1-1.7s0-1.4,0.1-1.7
	c0.2-0.5,0.6-0.9,1.3-0.9c0.6,0,1.1,0.4,1.3,0.9c0.1,0.3,0.1,0.7,0.1,1.7s0,1.4-0.1,1.7C888.3,310.8,887.8,311.2,887.2,311.2
	 M887.2,312.7c1.4,0,2.5-0.6,2.9-2c0.2-0.5,0.2-1,0.2-2.2s-0.1-1.6-0.2-2.2c-0.5-1.3-1.5-2-2.9-2s-2.5,0.6-2.9,2
	c-0.2,0.5-0.2,1-0.2,2.2s0.1,1.6,0.2,2.2C884.7,312.1,885.8,312.7,887.2,312.7 M879.4,311.2c-0.6,0-1.1-0.4-1.3-0.9
	c-0.1-0.3-0.1-0.7-0.1-1.7s0-1.4,0.1-1.7c0.2-0.5,0.6-0.9,1.3-0.9c0.6,0,1.1,0.4,1.3,0.9c0.1,0.3,0.1,0.7,0.1,1.7s0,1.4-0.1,1.7
	C880.5,310.8,880.1,311.2,879.4,311.2 M879.4,312.7c1.4,0,2.5-0.6,2.9-2c0.2-0.5,0.2-1,0.2-2.2s-0.1-1.6-0.2-2.2
	c-0.5-1.3-1.5-2-2.9-2s-2.5,0.6-2.9,2c-0.2,0.5-0.2,1-0.2,2.2s0.1,1.6,0.2,2.2C876.9,312.1,878,312.7,879.4,312.7 M870,311.7
	c0,0.5,0.4,0.9,0.9,0.9s0.9-0.4,0.9-0.9v-2.3c0-0.1,0-0.1,0.1-0.1h2.3c0.5,0,0.8-0.3,0.8-0.7s-0.3-0.7-0.8-0.7h-2.3
	c-0.1,0-0.1,0-0.1-0.1v-1.7c0-0.1,0-0.1,0.1-0.1h2.8c0.5,0,0.8-0.4,0.8-0.7c0-0.5-0.4-0.7-0.8-0.7h-3.9c-0.5,0-0.7,0.3-0.7,0.7
	L870,311.7L870,311.7z M937.4,299c0.5,1.3,1.5,2,3,2c1.4,0,2.5-0.7,2.9-2c0.2-0.5,0.2-1.1,0.2-1.8v-0.1c0-0.5-0.3-0.7-0.7-0.7h-1.6
	c-0.5,0-0.7,0.3-0.7,0.7s0.3,0.7,0.7,0.7h0.5c0.1,0,0.1,0,0.1,0.1c0,0.3,0,0.5-0.1,0.8c-0.2,0.5-0.6,0.8-1.3,0.8
	c-0.7,0-1.2-0.4-1.3-0.9c-0.1-0.3-0.1-0.7-0.1-1.7s0-1.4,0.1-1.7c0.2-0.5,0.6-0.9,1.3-0.9c0.5,0,0.9,0.2,1.2,0.6
	c0.3,0.4,0.5,0.5,0.7,0.5c0.5,0,0.8-0.4,0.8-0.8c0-0.2-0.1-0.4-0.2-0.5c-0.5-0.7-1.4-1.3-2.6-1.3c-1.4,0-2.5,0.6-3,2
	c-0.2,0.5-0.2,1-0.2,2.2C937.2,298.1,937.2,298.4,937.4,299 M929.4,300c0,0.5,0.4,0.8,0.8,0.8s0.8-0.3,0.8-0.8v-4.3h0.1l2.4,4.3
	c0.4,0.5,0.6,0.8,1.2,0.8s1-0.4,1-1v-6.3c0-0.5-0.4-0.8-0.8-0.8c-0.5,0-0.8,0.3-0.8,0.8v4.4H934l-2.4-4.3c-0.4-0.5-0.6-0.8-1.2-0.8
	s-1,0.4-1,1V300z M925.5,299.9c0,0.5,0.4,0.9,0.9,0.9s0.9-0.4,0.9-0.9v-6.3c0-0.5-0.4-0.9-0.9-0.9s-0.9,0.4-0.9,0.9V299.9z
	 M921.3,300.8c0.5,0,0.9-0.4,0.9-0.9v-5.6c0-0.1,0-0.1,0.1-0.1h1.4c0.5,0,0.9-0.4,0.9-0.7c0-0.5-0.4-0.8-0.9-0.8h-4.6
	c-0.5,0-0.9,0.4-0.9,0.8s0.4,0.7,0.9,0.7h1.4c0.1,0,0.1,0,0.1,0.1v5.6C920.4,300.4,920.8,300.8,921.3,300.8 M914,300.9
	c2.1,0,3.2-1.1,3.2-2.5s-0.9-2.2-2.5-2.4l-0.5-0.1c-0.9-0.1-1.3-0.5-1.3-0.9c0-0.5,0.4-0.9,1.1-0.9c0.5,0,1,0.2,1.4,0.4
	c0.2,0.1,0.4,0.1,0.5,0.1c0.5,0,0.7-0.4,0.7-0.7c0-0.3-0.1-0.5-0.5-0.7c-0.5-0.3-1.4-0.5-2.3-0.5c-1.7,0-2.8,1-2.8,2.4
	s0.9,2.2,2.5,2.4l0.5,0.1c1,0.1,1.3,0.5,1.3,0.9c0,0.5-0.5,0.9-1.4,0.9c-0.6,0-1.1-0.2-1.7-0.5c-0.2-0.1-0.4-0.2-0.5-0.2
	c-0.5,0-0.8,0.4-0.8,0.7c0,0.3,0.2,0.5,0.5,0.7C912,300.5,912.9,300.9,914,300.9 M906.4,300.9c1.8,0,3.1-1.1,3.1-3.1v-4.3
	c0-0.5-0.4-0.9-0.9-0.9s-0.9,0.4-0.9,0.9v4.3c0,1-0.5,1.5-1.4,1.5c-0.7,0-1.4-0.5-1.4-1.5v-4.3c0-0.5-0.4-0.9-0.9-0.9
	s-0.9,0.4-0.9,0.9v4.3C903.3,299.8,904.6,300.9,906.4,300.9 M895.6,299c0.5,1.3,1.5,2,3,2c1.4,0,2.5-0.7,2.9-2
	c0.2-0.5,0.2-1.1,0.2-1.8v-0.1c0-0.5-0.3-0.7-0.7-0.7h-1.6c-0.5,0-0.7,0.3-0.7,0.7s0.3,0.7,0.7,0.7h0.5c0.1,0,0.1,0,0.1,0.1
	c0,0.3,0,0.5-0.1,0.8c-0.2,0.5-0.6,0.8-1.3,0.8c-0.7,0-1.2-0.4-1.4-0.9c-0.1-0.3-0.1-0.7-0.1-1.7s0-1.4,0.1-1.7
	c0.2-0.5,0.6-0.9,1.3-0.9c0.5,0,0.9,0.2,1.2,0.6c0.3,0.4,0.5,0.5,0.7,0.5c0.5,0,0.8-0.4,0.8-0.8c0-0.2-0.1-0.4-0.2-0.5
	c-0.5-0.7-1.4-1.3-2.6-1.3c-1.4,0-2.5,0.6-3,2c-0.2,0.5-0.2,1-0.2,2.2C895.3,298.1,895.4,298.4,895.6,299 M890.9,300.9
	c2.1,0,3.2-1.1,3.2-2.5s-0.9-2.2-2.5-2.4l-0.5-0.1c-0.9-0.1-1.3-0.5-1.3-0.9c0-0.5,0.4-0.9,1.1-0.9c0.5,0,1,0.2,1.4,0.4
	c0.2,0.1,0.4,0.1,0.5,0.1c0.5,0,0.7-0.4,0.7-0.7c0-0.3-0.1-0.5-0.5-0.7c-0.5-0.3-1.4-0.5-2.3-0.5c-1.7,0-2.8,1-2.8,2.4
	s0.9,2.2,2.5,2.4l0.5,0.1c1,0.1,1.3,0.5,1.3,0.9c0,0.5-0.5,0.9-1.3,0.9c-0.6,0-1.1-0.2-1.7-0.5c-0.2-0.1-0.4-0.2-0.5-0.2
	c-0.5,0-0.8,0.4-0.8,0.7c0,0.3,0.2,0.5,0.5,0.7C888.9,300.5,889.7,300.9,890.9,300.9 M884.6,299.9c0,0.5,0.4,0.9,0.9,0.9
	s0.9-0.4,0.9-0.9v-6.3c0-0.5-0.4-0.9-0.9-0.9s-0.9,0.4-0.9,0.9V299.9z M878.3,299.2v-4.8c0-0.1,0-0.1,0.1-0.1h0.8
	c0.8,0,1.4,0.3,1.6,0.9c0.1,0.3,0.2,0.7,0.2,1.5s-0.1,1.3-0.2,1.5c-0.2,0.6-0.8,0.9-1.6,0.9L878.3,299.2
	C878.3,299.3,878.3,299.2,878.3,299.2 M876.5,300c0,0.5,0.3,0.7,0.7,0.7h1.9c1.7,0,2.8-0.5,3.2-1.8c0.2-0.5,0.3-1,0.3-2.2
	s-0.1-1.7-0.3-2.2c-0.5-1.3-1.4-1.9-3.2-1.9h-1.9c-0.5,0-0.7,0.3-0.7,0.7L876.5,300L876.5,300z M935.9,263.4
	c-0.5-1.6-2.5-2.5-4.9-2.5c-1.1,0-2.3,0.2-3.4,0.6c-3.7,1.4-6.1,4.4-5.2,6.8c0.5,1.6,2.5,2.5,4.9,2.5c1.1,0,2.3-0.2,3.5-0.6
	C934.3,268.9,936.7,265.8,935.9,263.4 M937.1,268.9c-1.3,1.7-3.3,3.1-5.5,3.9c-1.4,0.5-2.9,0.8-4.3,0.8c-3,0-5.5-1.2-6.8-3.1
	l-7.1,2.5l15.8,5.8c0.7,0.3,1,1,0.8,1.7c-0.3,0.7-1,1-1.7,0.8l-18.8-6.9l-18.6,6.8c-0.7,0.3-1.4-0.1-1.7-0.8
	c-0.3-0.7,0.1-1.4,0.8-1.7l15.7-5.7l-8.8-3.2c-1.6,2.6-5,3.8-8.1,2.6l0,0l0,0l-10.4-3.8c-0.7-0.3-1-1-0.8-1.7c0.3-0.7,1-1,1.7-0.8
	l10.4,3.8l0,0l0,0c2.2,0.8,4.4-0.3,5.2-2.3c0.7-2.1-0.4-4.3-2.5-5.1l0,0l0,0l-10.4-3.8c-0.7-0.3-1-1-0.8-1.7c0.3-0.7,1-1,1.7-0.8
	l10.4,3.8l0,0l0,0c3.1,1.1,4.9,4.2,4.4,7.2l11.7,4.3l10-3.6c-0.2-1.6,0.4-3.4,1.5-5c1.3-1.7,3.3-3.1,5.5-3.9
	c1.4-0.5,2.9-0.8,4.3-0.8c3.6,0,6.4,1.6,7.3,4.3C939.1,264.5,938.6,266.9,937.1,268.9 M879.4,262.1c0.3-0.7,1-1,1.7-0.8l10.4,3.8
	c0.7,0.3,1,1,0.8,1.7c-0.3,0.7-1,1-1.7,0.8l-10.4-3.8C879.5,263.5,879.2,262.8,879.4,262.1"/>
<path class="st0" d="M738.9,61.6c21.9,0,39.5,17.7,39.5,39.5c0,21.9-17.7,39.5-39.5,39.5c-21.9,0-39.5-17.7-39.5-39.5
	C699.3,79.3,717,61.6,738.9,61.6 M738.9,64.3c-20.4,0-36.9,16.6-36.9,36.9s16.6,36.9,36.9,36.9s36.9-16.6,36.9-36.9
	S759.3,64.3,738.9,64.3 M756.5,118c0.5-0.5,0.5-1.4,0-1.9s-1.4-0.5-1.9,0c-4.1,4.3-9.8,6.7-15.7,6.7c-5.4,0-10.7-2-14.7-5.7
	c-0.5-0.5-1.4-0.5-1.9,0.1c-0.5,0.5-0.5,1.4,0.1,1.9c4.5,4.2,10.3,6.4,16.5,6.4C745.6,125.6,752,122.8,756.5,118 M757.7,87.7
	c0.5-0.5,0.6-1.3,0.2-1.8c-4.6-5.7-11.6-9-18.9-9c-5.4,0-10.7,1.8-14.9,5.2c-0.5,0.5-0.7,1.3-0.3,1.8c0.5,0.5,1.3,0.7,1.8,0.3
	c3.8-3,8.5-4.6,13.4-4.6c6.6,0,12.8,2.9,16.9,8.1c0.3,0.4,0.6,0.5,1,0.5C757.2,88,757.5,87.9,757.7,87.7 M725.4,103
	c1.5-6.3,3-11.8,3-11.8c0.2-0.7-0.2-1.4-0.9-1.6s-1.4,0.2-1.6,0.9c0,0.1-1.3,4.5-2.6,10c0,0,0,0.1-0.1,0.1c-1.8,7.5-4.8,7.5-6,7.5
	c-0.5,0-1.1-0.1-1.5-0.6c-0.6-0.7-0.6-2.2-0.2-3.9c0.7-3.1,1.3-4.7,3.2-10.3c0.5-1.4,0.3-3-0.5-4.2c-0.8-1.1-2-1.7-3.4-1.7
	c-3.5,0-5.2,2.8-5.2,5.4c0,1,0.2,1.5,0.6,2.5c0.4,0.6,1.2,0.9,1.8,0.5s0.9-1.1,0.5-1.8c-0.3-0.5-0.4-0.7-0.4-1.4
	c0-0.5,0.1-2.8,2.5-2.8c0.5,0,1,0.2,1.3,0.6c0.4,0.5,0.5,1.2,0.2,1.8c-1.9,5.6-2.4,7.4-3.2,10.5c-0.9,3.3-0.1,5.2,0.6,6.2
	c0.8,1.1,2.1,1.7,3.6,1.7c2.2,0,4-0.9,5.4-2.6c0.3,0.9,0.5,1.6,0.9,2.1c0.3,0.4,0.6,0.5,1.1,0.5c0.3,0,0.5-0.1,0.7-0.2
	c0.6-0.4,0.8-1.3,0.4-1.8C725.4,108.1,724.5,105.9,725.4,103 M758.6,107.6c-0.3,0-0.7,0.3-1.4,0.3c-0.5,0-0.8-0.2-1-0.4
	c-0.2-0.2-0.2-0.5,0-1.1c0.2-0.5,0.3-1,0.5-1.4c0.2-0.5,0.5-1.3,0.6-2.2c0.4-1.4,0.1-2.6-0.6-3.5c-0.5-0.6-1.4-1.4-3.2-1.4
	c-0.5,0-0.9,0.1-1.3,0.3l1.4-5.1c0.2-0.7-0.3-1.4-0.9-1.6c-0.7-0.2-1.4,0.3-1.6,0.9l-2.9,11.1l0,0c-0.7,2.9-2.9,4.3-4.3,4.3
	c-1.1,0-2.4-0.5-2.4-2.6c0-3.3,1.8-4.8,3-4.8c0.7,0,1.1,0.3,1.6,0.3s0.8-0.1,1.1-0.5c0.5-0.5,0.4-1.4-0.3-1.8
	c-0.6-0.5-1.4-0.7-2.4-0.7c-2.4,0-5.6,2.3-5.6,7.4c0,3.9,2.5,5.3,4.5,5.3c1.2,0,2.4-0.6,3.4-1.6l0,0c-0.2,0.7,0.3,1.4,0.9,1.6
	c0.1,0,0.2,0,0.4,0c0.5,0,1.1-0.4,1.3-1l1.1-4.1l0,0c0.5-1.8,1.5-5,3.2-5c0.4,0,0.8,0.1,1.1,0.4c0.2,0.3,0.3,0.7,0.1,1.3
	c-0.2,0.8-0.5,1.4-0.6,2c-0.2,0.5-0.4,1-0.5,1.6c-0.5,1.7,0,2.7,0.5,3.3c0.6,0.8,1.7,1.4,3.1,1.4c0.6,0,1.2,0,1.9-0.3s1-1,0.8-1.7
	C759.7,107.9,759.2,107.6,758.6,107.6 M733.5,97.8c0-0.6-0.5-1.3-1.2-1.4c-0.6-0.1-1.3,0.4-1.4,1c-0.6,2.6-1,3.9-1.7,5.6
	c-0.3,0.6,0,1.4,0.7,1.7c0.6,0.3,1.4,0,1.7-0.7c0.3-0.6,0.5-1.2,0.6-1.8c0.3,0.5,0.6,0.8,0.9,1.2c0.8,1,1.3,1.5,1.3,2.3
	c0,2.3-2,2.3-2.3,2.3c-1,0-1.6-0.3-2.6-0.9c-0.6-0.5-1.4-0.3-1.8,0.3c-0.5,0.6-0.3,1.4,0.3,1.8c1.4,1,2.6,1.4,4.2,1.4
	c2.4,0,4.9-1.7,4.9-5c0-1.7-1-2.9-1.8-4C734.4,100.7,733.5,99.6,733.5,97.8 M767.8,91.9c-0.7-0.2-1.4,0.2-1.6,0.9l-2.9,10.6
	c-0.2,0.7,0.2,1.4,0.9,1.6c0.1,0,0.3,0.1,0.4,0.1c0.5,0,1.1-0.4,1.3-1l2.9-10.6C768.9,92.8,768.5,92,767.8,91.9 M763.2,106.9
	c-0.9,0-1.6,0.7-1.6,1.6s0.7,1.6,1.6,1.6s1.6-0.7,1.6-1.6C764.9,107.6,764.1,106.9,763.2,106.9 M750.8,132.4
	c-0.1-0.4-0.5-0.5-0.9-0.5l-2.3,0.6l-0.4-1.3l1.8-0.5c0.5-0.1,0.6-0.5,0.5-0.9s-0.5-0.6-0.9-0.5l-1.8,0.5l-0.4-1.3l2.3-0.6
	c0.2-0.1,0.4-0.2,0.5-0.4c0.1-0.2,0.1-0.4,0.1-0.5c-0.1-0.2-0.2-0.4-0.4-0.5s-0.4-0.1-0.5,0l-3.2,0.9c-0.2,0.1-0.4,0.2-0.5,0.4
	c-0.1,0.2-0.1,0.4,0,0.5l1.5,5.2c0.1,0.4,0.4,0.5,0.6,0.5c0.1,0,0.2,0,0.3,0l3.2-0.9C750.7,133.2,750.8,132.8,750.8,132.4
	 M742.4,128.2c-0.5,0-0.7,0.3-0.8,0.7l-0.7,3.5l-1.1-3.5c-0.2-0.5-0.4-0.7-0.8-0.6c-0.4,0-0.6,0.3-0.7,0.7l-0.9,3.5l-0.9-3.4
	c-0.1-0.5-0.4-0.7-0.8-0.7c-0.3,0-0.5,0.1-0.5,0.3c-0.2,0.2-0.2,0.4-0.2,0.5s0,0.3,0.1,0.3l1.4,5.2c0.2,0.5,0.5,0.8,0.9,0.8l0,0
	c0.5,0,0.7-0.3,0.8-0.8l0.9-3.3l1,3.3c0.2,0.5,0.5,0.8,0.9,0.8s0.7-0.3,0.8-0.8l1.3-5.2c0,0,0-0.2,0-0.3c0-0.2-0.1-0.5-0.2-0.5
	C742.8,128.2,742.6,128.2,742.4,128.2 M731.6,127.2c-0.7-0.2-1.4-0.2-1.9,0.1c-0.5,0.3-0.9,0.7-1.1,1.4c-0.4,1.2,0.2,2.1,1.5,2.6
	l0.4,0.2c0.7,0.4,0.8,0.6,0.7,0.9c-0.1,0.2-0.2,0.4-0.4,0.5s-0.5,0.1-0.8,0c-0.5-0.1-0.8-0.4-1.3-0.8c-0.1-0.1-0.2-0.2-0.5-0.3
	c-0.4-0.1-0.8,0.1-0.9,0.5c-0.1,0.3,0,0.5,0.2,0.7l0,0c0.3,0.3,0.9,0.9,1.9,1.2c0.4,0.1,0.7,0.2,1.1,0.2c1.1,0,1.9-0.5,2.2-1.5
	c0.4-1.2-0.2-2.1-1.5-2.6l-0.4-0.2c-0.8-0.4-0.8-0.6-0.8-0.9c0.1-0.4,0.5-0.5,1-0.4c0.4,0.1,0.7,0.3,1,0.5c0.1,0.1,0.3,0.2,0.5,0.3
	c0.4,0.1,0.8-0.1,0.9-0.5c0.1-0.3,0-0.5-0.2-0.7C732.9,127.7,732.2,127.3,731.6,127.2 M745.5,74.1c0.4,0.1,0.6,0,0.9-0.5l1.4-1.9
	l-0.7,2.9c-0.1,0.3,0,0.5,0.1,0.6s0.3,0.3,0.5,0.4c0.1,0,0.2,0,0.2,0c0.4,0,0.6-0.2,0.7-0.6l1.3-5.2c0.1-0.3,0-0.5-0.1-0.7
	s-0.3-0.4-0.5-0.4c-0.5-0.1-0.8,0.1-1.1,0.5l-2.1,2.7l-0.6-3.3c-0.1-0.5-0.3-0.9-0.7-1c-0.3-0.1-0.5,0-0.7,0.1s-0.4,0.4-0.4,0.6
	l-1.3,5.2c-0.1,0.3,0,0.5,0.1,0.6s0.3,0.3,0.5,0.4c0.5,0.1,0.8-0.1,0.9-0.6l0.7-2.9l0.5,2.4C745,73.8,745.1,74,745.5,74.1
	 M737.2,74.3L737.2,74.3c0.5,0,0.8-0.4,0.8-0.9v-1.9h1.9c0.3,0,0.5-0.1,0.5-0.2c0.1-0.1,0.2-0.3,0.2-0.5s-0.1-0.4-0.2-0.5
	c-0.2-0.1-0.4-0.2-0.5-0.2H738v-1.4h2.4c0.5,0,0.7-0.3,0.7-0.7c0-0.5-0.3-0.7-0.7-0.7l0,0l-3.3,0.1c-0.5,0-0.7,0.3-0.7,0.7l0.1,5.4
	C736.4,74,736.7,74.3,737.2,74.3 M730.4,74.1L730.4,74.1L730.4,74.1L730.4,74.1L730.4,74.1z M731.8,71.6c-0.2-0.5-0.4-1-0.5-1.2
	c-0.3-0.5-0.7-0.5-1.4-0.4l-0.6,0.2l1.1,3.9l0.6-0.2c0.6-0.2,1-0.5,1-1C732,72.6,731.9,72.1,731.8,71.6 M733.4,71.1
	c0.3,1,0.4,1.4,0.3,1.8c-0.1,1.2-0.7,1.9-2.3,2.3l-1.5,0.5c-0.1,0-0.2,0-0.3,0c-0.3,0-0.5-0.2-0.6-0.5l-1.4-5.2
	c-0.1-0.5,0.1-0.8,0.5-0.9l1.5-0.5c1.4-0.5,2.4-0.2,3.1,0.8C732.9,69.7,733.1,70.2,733.4,71.1 M771.6,195.1c0,0.5,0.4,0.8,0.8,0.8
	c0.5,0,0.8-0.3,0.8-0.8v-3.9h0.1l1.3,2.9c0.3,0.5,0.5,0.7,0.8,0.7c0.4,0,0.6-0.2,0.8-0.7l1.3-2.9h0.1v3.9c0,0.5,0.4,0.8,0.8,0.8
	c0.5,0,0.8-0.3,0.8-0.8v-6.3c0-0.6-0.4-1-0.9-1s-0.8,0.3-1.1,0.9l-1.7,3.9h-0.1l-1.7-3.9c-0.3-0.6-0.5-0.9-1.1-0.9s-1,0.4-1,1
	L771.6,195.1L771.6,195.1z M766.7,196c1.8,0,3.1-1.1,3.1-3.1v-4.3c0-0.5-0.4-0.9-0.9-0.9s-0.9,0.4-0.9,0.9v4.3c0,1-0.5,1.5-1.4,1.5
	c-0.7,0-1.4-0.5-1.4-1.5v-4.3c0-0.5-0.4-0.9-0.9-0.9s-0.9,0.4-0.9,0.9v4.3C763.6,194.9,764.8,196,766.7,196 M756.5,195.1
	c0,0.5,0.3,0.7,0.7,0.7h3.9c0.5,0,0.8-0.4,0.8-0.7c0-0.5-0.4-0.7-0.8-0.7h-2.8c-0.1,0-0.1,0-0.1-0.1v-1.6c0-0.1,0-0.1,0.1-0.1h2.3
	c0.5,0,0.8-0.3,0.8-0.7c0-0.5-0.3-0.7-0.8-0.7h-2.3c-0.1,0-0.1,0-0.1-0.1v-1.6c0-0.1,0-0.1,0.1-0.1h2.8c0.5,0,0.8-0.4,0.8-0.7
	c0-0.5-0.4-0.7-0.8-0.7h-3.9c-0.5,0-0.7,0.3-0.7,0.7V195.1z M751.8,196c2.1,0,3.2-1.1,3.2-2.5s-0.9-2.2-2.5-2.4L752,191
	c-0.9-0.1-1.3-0.5-1.3-0.9c0-0.5,0.4-0.9,1.1-0.9c0.5,0,1,0.2,1.4,0.4c0.2,0.1,0.4,0.1,0.5,0.1c0.5,0,0.7-0.4,0.7-0.7
	s-0.1-0.5-0.5-0.7c-0.5-0.3-1.4-0.5-2.3-0.5c-1.7,0-2.8,1-2.8,2.4s0.9,2.2,2.5,2.4l0.5,0.1c1,0.1,1.3,0.5,1.3,0.9
	c0,0.5-0.5,0.9-1.4,0.9c-0.6,0-1.1-0.2-1.7-0.5c-0.2-0.1-0.4-0.2-0.5-0.2c-0.5,0-0.8,0.4-0.8,0.7s0.2,0.5,0.5,0.7
	C749.8,195.7,750.8,196,751.8,196 M744.2,196c1.8,0,3.1-1.1,3.1-3.1v-4.3c0-0.5-0.4-0.9-0.9-0.9s-0.9,0.4-0.9,0.9v4.3
	c0,1-0.5,1.5-1.4,1.5c-0.7,0-1.4-0.5-1.4-1.5v-4.3c0-0.5-0.4-0.9-0.9-0.9s-0.9,0.4-0.9,0.9v4.3C741.2,194.9,742.4,196,744.2,196
	 M731.6,195.1c0,0.5,0.4,0.8,0.8,0.8c0.5,0,0.8-0.3,0.8-0.8v-3.9h0.1l1.3,2.9c0.3,0.5,0.5,0.7,0.8,0.7c0.4,0,0.6-0.2,0.8-0.7
	l1.3-2.9h0.1v3.9c0,0.5,0.4,0.8,0.8,0.8c0.5,0,0.8-0.3,0.8-0.8v-6.3c0-0.6-0.4-1-0.9-1s-0.8,0.3-1.1,0.9l-1.7,3.9h-0.1l-1.7-3.9
	c-0.3-0.6-0.5-0.9-1.1-0.9s-1,0.4-1,1L731.6,195.1L731.6,195.1z M722.9,194.3v-4.8c0-0.1,0-0.1,0.1-0.1h0.8c0.8,0,1.4,0.3,1.6,0.9
	c0.1,0.3,0.2,0.7,0.2,1.5s-0.1,1.3-0.2,1.5c-0.2,0.6-0.8,0.9-1.6,0.9L722.9,194.3C722.9,194.4,722.9,194.3,722.9,194.3 M721.2,195.1
	c0,0.5,0.3,0.7,0.7,0.7h1.9c1.7,0,2.8-0.5,3.2-1.9c0.2-0.5,0.3-1,0.3-2.2s-0.1-1.7-0.3-2.2c-0.5-1.4-1.4-1.9-3.2-1.9h-1.9
	c-0.5,0-0.7,0.3-0.7,0.7V195.1z M716.3,194.5c-0.6,0-1.1-0.4-1.3-0.9c-0.1-0.3-0.1-0.7-0.1-1.7s0-1.4,0.1-1.7
	c0.2-0.5,0.6-0.9,1.3-0.9c0.6,0,1.1,0.4,1.3,0.9c0.1,0.3,0.1,0.7,0.1,1.7s0,1.4-0.1,1.7C717.4,194.1,717,194.5,716.3,194.5
	 M716.3,196c1.4,0,2.5-0.6,2.9-2c0.2-0.5,0.2-1,0.2-2.2s-0.1-1.6-0.2-2.2c-0.5-1.3-1.5-2-2.9-2s-2.5,0.6-2.9,2
	c-0.2,0.5-0.2,1-0.2,2.2s0.1,1.6,0.2,2.2C713.8,195.4,714.9,196,716.3,196 M708.6,194.5c-0.6,0-1.1-0.4-1.3-0.9
	c-0.1-0.3-0.1-0.7-0.1-1.7s0-1.4,0.1-1.7c0.2-0.5,0.6-0.9,1.3-0.9c0.6,0,1.1,0.4,1.3,0.9c0.1,0.3,0.1,0.7,0.1,1.7s0,1.4-0.1,1.7
	C709.7,194.1,709.2,194.5,708.6,194.5 M708.6,196c1.4,0,2.5-0.6,2.9-2c0.2-0.5,0.2-1,0.2-2.2s-0.1-1.6-0.2-2.2c-0.5-1.3-1.5-2-2.9-2
	s-2.5,0.6-2.9,2c-0.2,0.5-0.2,1-0.2,2.2s0.1,1.6,0.2,2.2C706.1,195.4,707.1,196,708.6,196 M699.2,195c0,0.5,0.4,0.9,0.9,0.9
	s0.9-0.4,0.9-0.9v-2.3c0-0.1,0-0.1,0.1-0.1h2.3c0.5,0,0.8-0.3,0.8-0.7s-0.3-0.7-0.8-0.7h-2.3c-0.1,0-0.1,0-0.1-0.1v-1.7
	c0-0.1,0-0.1,0.1-0.1h2.8c0.5,0,0.8-0.4,0.8-0.7c0-0.5-0.4-0.7-0.8-0.7H700c-0.5,0-0.7,0.3-0.7,0.7L699.2,195L699.2,195z
	 M766.6,182.3c0.5,1.3,1.5,2,3,2c1.4,0,2.5-0.7,2.9-2c0.2-0.5,0.2-1.1,0.2-1.8v-0.1c0-0.5-0.3-0.7-0.7-0.7h-1.6
	c-0.5,0-0.7,0.3-0.7,0.7c0,0.5,0.3,0.7,0.7,0.7h0.5c0.1,0,0.1,0,0.1,0.1c0,0.3,0,0.5-0.1,0.8c-0.2,0.5-0.6,0.8-1.3,0.8
	s-1.2-0.4-1.3-0.9c-0.1-0.3-0.1-0.7-0.1-1.7s0-1.4,0.1-1.7c0.2-0.5,0.6-0.9,1.3-0.9c0.5,0,0.9,0.2,1.2,0.6c0.3,0.4,0.5,0.5,0.7,0.5
	c0.5,0,0.8-0.4,0.8-0.8c0-0.2-0.1-0.4-0.2-0.5c-0.5-0.7-1.4-1.3-2.6-1.3c-1.4,0-2.5,0.6-3,2c-0.2,0.5-0.2,1-0.2,2.2
	C766.3,181.4,766.4,181.7,766.6,182.3 M758.5,183.3c0,0.5,0.4,0.8,0.8,0.8c0.5,0,0.8-0.3,0.8-0.8V179h0.1l2.4,4.3
	c0.4,0.5,0.6,0.8,1.2,0.8c0.6,0,1-0.4,1-1v-6.3c0-0.5-0.4-0.8-0.8-0.8s-0.8,0.3-0.8,0.8v4.4h-0.1l-2.4-4.3c-0.4-0.5-0.6-0.8-1.2-0.8
	c-0.6,0-1,0.4-1,1V183.3z M754.6,183.3c0,0.5,0.4,0.9,0.9,0.9s0.9-0.4,0.9-0.9V177c0-0.5-0.4-0.9-0.9-0.9s-0.9,0.4-0.9,0.9V183.3z
	 M750.4,184.2c0.5,0,0.9-0.4,0.9-0.9v-5.6c0-0.1,0-0.1,0.1-0.1h1.4c0.5,0,0.9-0.4,0.9-0.7c0-0.5-0.4-0.8-0.9-0.8h-4.6
	c-0.5,0-0.9,0.4-0.9,0.8c0,0.5,0.4,0.7,0.9,0.7h1.4c0.1,0,0.1,0,0.1,0.1v5.6C749.6,183.8,749.9,184.2,750.4,184.2 M743.2,184.2
	c2.1,0,3.2-1.1,3.2-2.5s-0.9-2.2-2.5-2.4l-0.5-0.1c-0.9-0.1-1.3-0.5-1.3-0.9c0-0.5,0.4-0.9,1.1-0.9c0.5,0,1,0.2,1.4,0.4
	c0.2,0.1,0.4,0.1,0.5,0.1c0.5,0,0.7-0.4,0.7-0.7s-0.1-0.5-0.5-0.7c-0.5-0.3-1.4-0.5-2.3-0.5c-1.7,0-2.8,1-2.8,2.4s0.9,2.2,2.5,2.4
	l0.5,0.1c1,0.1,1.3,0.5,1.3,0.9c0,0.5-0.5,0.9-1.4,0.9c-0.6,0-1.1-0.2-1.7-0.5c-0.2-0.1-0.4-0.2-0.5-0.2c-0.5,0-0.8,0.4-0.8,0.7
	s0.2,0.5,0.5,0.7C741.2,183.9,742.1,184.2,743.2,184.2 M735.6,184.2c1.8,0,3.1-1.1,3.1-3.1v-4.3c0-0.5-0.4-0.9-0.9-0.9
	s-0.9,0.4-0.9,0.9v4.3c0,1-0.5,1.5-1.4,1.5c-0.7,0-1.4-0.5-1.4-1.5v-4.3c0-0.5-0.4-0.9-0.9-0.9s-0.9,0.4-0.9,0.9v4.3
	C732.5,183.1,733.7,184.2,735.6,184.2 M724.8,182.3c0.5,1.3,1.5,2,3,2c1.4,0,2.5-0.7,2.9-2c0.2-0.5,0.2-1.1,0.2-1.8v-0.1
	c0-0.5-0.3-0.7-0.7-0.7h-1.6c-0.5,0-0.7,0.3-0.7,0.7c0,0.5,0.3,0.7,0.7,0.7h0.5c0.1,0,0.1,0,0.1,0.1c0,0.3,0,0.5-0.1,0.8
	c-0.2,0.5-0.6,0.8-1.3,0.8s-1.2-0.4-1.4-0.9c-0.1-0.3-0.1-0.7-0.1-1.7s0-1.4,0.1-1.7c0.2-0.5,0.6-0.9,1.3-0.9c0.5,0,0.9,0.2,1.2,0.6
	c0.3,0.4,0.5,0.5,0.7,0.5c0.5,0,0.8-0.4,0.8-0.8c0-0.2-0.1-0.4-0.2-0.5c-0.5-0.7-1.4-1.3-2.6-1.3c-1.4,0-2.5,0.6-3,2
	c-0.2,0.5-0.2,1-0.2,2.2C724.4,181.4,724.6,181.7,724.8,182.3 M720.1,184.2c2.1,0,3.2-1.1,3.2-2.5s-0.9-2.2-2.5-2.4l-0.5-0.1
	c-0.9-0.1-1.3-0.5-1.3-0.9c0-0.5,0.4-0.9,1.1-0.9c0.5,0,1,0.2,1.4,0.4c0.2,0.1,0.4,0.1,0.5,0.1c0.5,0,0.7-0.4,0.7-0.7
	s-0.1-0.5-0.5-0.7c-0.5-0.3-1.4-0.5-2.3-0.5c-1.7,0-2.8,1-2.8,2.4s0.9,2.2,2.5,2.4l0.5,0.1c1,0.1,1.3,0.5,1.3,0.9
	c0,0.5-0.5,0.9-1.4,0.9c-0.6,0-1.1-0.2-1.7-0.5c-0.2-0.1-0.4-0.2-0.5-0.2c-0.5,0-0.8,0.4-0.8,0.7s0.2,0.5,0.5,0.7
	C718.1,183.9,718.9,184.2,720.1,184.2 M713.7,183.3c0,0.5,0.4,0.9,0.9,0.9s0.9-0.4,0.9-0.9V177c0-0.5-0.4-0.9-0.9-0.9
	s-0.9,0.4-0.9,0.9V183.3z M707.5,182.4v-4.8c0-0.1,0-0.1,0.1-0.1h0.8c0.8,0,1.4,0.3,1.6,0.9c0.1,0.3,0.2,0.7,0.2,1.5
	s-0.1,1.3-0.2,1.5c-0.2,0.6-0.8,0.9-1.6,0.9L707.5,182.4C707.5,182.5,707.5,182.5,707.5,182.4 M705.7,183.3c0,0.5,0.3,0.7,0.7,0.7
	h1.9c1.7,0,2.8-0.5,3.2-1.9c0.2-0.5,0.3-1,0.3-2.2s-0.1-1.7-0.3-2.2c-0.5-1.3-1.4-1.9-3.2-1.9h-1.9c-0.5,0-0.7,0.3-0.7,0.7V183.3z
	 M765.1,146.8c-0.5-1.6-2.5-2.5-4.9-2.5c-1.1,0-2.3,0.2-3.4,0.6c-3.7,1.4-6.1,4.4-5.2,6.8c0.5,1.6,2.5,2.5,4.9,2.5
	c1.1,0,2.3-0.2,3.5-0.6C763.5,152.2,765.9,149.1,765.1,146.8 M766.2,152.1c-1.3,1.7-3.3,3.1-5.5,3.9c-1.4,0.5-2.9,0.8-4.3,0.8
	c-3,0-5.5-1.2-6.8-3.1l-7.1,2.5l15.8,5.8c0.7,0.3,1,1,0.8,1.7c-0.3,0.7-1,1-1.7,0.8l-18.8-6.9l-18.6,6.8c-0.7,0.3-1.4-0.1-1.7-0.8
	s0.1-1.4,0.8-1.7l15.7-5.6l-8.8-3.2c-1.6,2.6-5,3.8-8.1,2.6l0,0l0,0l-10.4-3.8c-0.7-0.3-1-1-0.8-1.7c0.3-0.7,1-1,1.7-0.8l10.4,3.8
	l0,0l0,0c2.2,0.8,4.4-0.3,5.2-2.3c0.7-2.1-0.4-4.3-2.5-5.1l0,0l0,0l-10.4-3.8c-0.7-0.3-1-1-0.8-1.7c0.3-0.7,1-1,1.7-0.8l10.4,3.8
	l0,0l0,0c3.1,1.1,4.9,4.2,4.4,7.2l11.7,4.3l10-3.6c-0.2-1.6,0.4-3.4,1.5-5c1.3-1.7,3.3-3.1,5.5-3.9c1.4-0.5,2.9-0.8,4.3-0.8
	c3.6,0,6.4,1.6,7.3,4.3C768.2,147.9,767.8,150.1,766.2,152.1 M708.6,145.4c0.3-0.7,1-1,1.7-0.8l10.4,3.8c0.7,0.3,1,1,0.8,1.7
	c-0.3,0.7-1,1-1.7,0.8l-10.4-3.8C708.7,146.9,708.3,146.1,708.6,145.4"/>
<path class="st0" d="M708.7,338.9c-0.8,0-1.3,0.5-1.3,1.3c0,0.6,0.6,1.1,1.1,1.1c0.4,0,1.2,0,1.9-1.4
	C709.8,339.3,709.2,338.9,708.7,338.9 M713.2,339.2c1.3,1.1,2.5,2.2,4.2,2.2c2.9,0,4.3-2.4,4.3-4.2c0-1.1-0.4-3.7-3.6-3.7
	c-0.6,0-1.2-0.5-1.2-1.2s0.5-1.2,1.2-1.2c2,0,3.3-1,3.3-2.6c0-0.9-0.6-2.1-2.4-2.8c-2.4,1.1-2.8,2.3-3.3,4c0,0-1.6,6-2.3,8.5
	C713.4,338.5,713.3,338.8,713.2,339.2 M717.4,343.6c-2.2,0-3.9-1.1-5.2-2.3c-0.9,1.4-2.2,2.2-3.7,2.2c-1.6,0-3.4-1.4-3.4-3.4
	s1.5-3.5,3.6-3.5c1,0,1.8,0.4,2.5,1c0.6-2.4,2.3-8.4,2.3-8.4c0.4-1.4,0.9-2.8,2.2-4.1c-0.1,0-0.2,0-0.2,0c-6.5,0-6.7,3.8-6.7,4.3
	c0,0.9,0.5,1.8,1.3,2.1c0.6,0.3,0.8,0.9,0.6,1.5c-0.3,0.6-0.9,0.9-1.5,0.6c-1.5-0.7-2.6-2.4-2.6-4.3c0-2.4,1.9-6.6,9-6.6
	c5.6,0,8.2,3,8.2,5.8c0,1.5-0.6,2.9-1.8,3.7c1.5,1.2,2.2,3.2,2.2,4.9C724.1,340.2,721.5,343.6,717.4,343.6 M757.4,336.8
	c-0.2,0-0.5,0-0.6,0.1l0.5-1.6c0.5-1.7,1.3-1.9,2-1.9c0.3,0,0.5,0.1,0.7,0.4c0.3,0.3,0.4,0.7,0.3,1.2
	C760.1,336,759.3,337,757.4,336.8 M730.6,333.3c0.5,0,0.7,0.4,0.7,0.7c0,0.3-0.2,1.1-0.9,1.6c-0.6,0.5-1.4,0.6-2.4,0.4
	C728.4,334.6,729.2,333.3,730.6,333.3 M743.2,340.5c-0.4,0-0.6-0.1-0.8-0.4c-0.3-0.4-0.3-0.8-0.1-1.4c0.1-0.2,0.1-0.3,0.1-0.5
	c0.8-2.8,1.5-5.5,1.5-5.5c0.2-0.6-0.2-1.3-0.8-1.4c-0.6-0.2-1.3,0.2-1.4,0.8c0,0-0.7,2.7-1.5,5.4c-0.8,2.9-1.8,2.9-2.4,2.9
	c-0.2,0-0.5-0.1-0.7-0.4c-0.3-0.4-0.3-0.8-0.1-1.4c0.4-1.1,1.7-6,1.7-6c0.2-0.6-0.2-1.3-0.8-1.4c-0.6-0.2-1.3,0.2-1.4,0.8
	c0,0-1.3,4.4-1.6,5.8c-1.1,1.4-3.3,2.6-4.8,2.6c-1.1,0-2.3-0.3-2.4-2.3c2.1,0.4,3.3-0.2,4.2-0.8c1.3-1,1.8-2.4,1.8-3.4
	c0-1.7-1.3-3.1-3.1-3.1c-3.6,0-5.3,4.3-5.3,7.1c0,3,1.7,4.8,4.7,4.8c1.5,0,3.4-0.7,4.9-1.8c0.1,0.2,0.2,0.4,0.4,0.5
	c0.6,0.8,1.5,1.3,2.6,1.3c1.3,0,2.2-0.5,2.8-1.2c0.6,0.7,1.5,1.2,2.5,1.2l0,0l0,0c3.2,0,4-3.1,4.3-4.3l1.3-4.8
	c0.4,0.3,0.7,0.5,1.2,0.5c0.2,0,0.5,0.2,0.5,0.3c0.1,0.2,0.1,0.5-0.1,0.9l-0.3,0.9c-0.3,0.9-0.5,1.9-0.8,2.7
	c-0.3,0.9-0.1,1.8,0.5,2.5s1.4,1.2,2.3,1.2c0.4,0,0.8-0.2,1.2-0.4c0.2,0.3,0.4,0.5,0.7,0.6c0.1,0,0.2,0,0.3,0c0.5,0,1-0.4,1.1-0.9
	l0.9-3.4c0.6,2.7,2.2,4.2,4.6,4.2c2.2,0,3.6-1.5,4.1-3.1c0.2-0.6-0.2-1.3-0.8-1.4c-0.6-0.2-1.3,0.2-1.4,0.8
	c-0.2,0.7-0.9,1.4-1.8,1.4c-0.8,0-1.6-0.2-2.2-1.5c2.3-0.4,3.5-2.2,3.8-3.9c0.2-1.2-0.2-2.2-0.9-3c-0.6-0.7-1.5-1.1-2.5-1.1
	c-0.3,0-0.5,0-0.8,0.1l1.1-4.1c0.2-0.6-0.2-1.3-0.8-1.4c-0.6-0.2-1.3,0.2-1.4,0.8l-2.3,8.2c0,0,0,0,0,0.1l0,0l-1.1,4
	c-0.4,0.8-1,1.6-1.7,1.6c-0.5,0-0.6-0.4-0.5-0.8c0.2-0.8,0.5-1.8,0.7-2.6l0.3-0.9c0.3-1.1,0.3-2-0.2-2.7c-0.4-0.7-1-1.2-1.9-1.4
	c-0.3-0.1-0.7-0.2-1.4-1.3c-0.3-0.4-0.7-0.6-1.2-0.5s-0.8,0.4-1,0.8l-1.8,7C744.7,339.9,744.1,340.5,743.2,340.5 M768.9,337.8
	c-0.1,0-0.2,0-0.3,0c-0.6-0.2-1-0.8-0.8-1.4l2.6-9.6c0.2-0.6,0.8-1,1.4-0.8c0.6,0.2,1,0.8,0.8,1.4L770,337
	C769.8,337.4,769.4,337.8,768.9,337.8 M769.1,341c0,0.8-0.6,1.4-1.4,1.4s-1.4-0.6-1.4-1.4s0.6-1.4,1.4-1.4S769.1,340.2,769.1,341
	 M739,358.9c-6.4,0-12.7-2.6-17.3-7.1c-0.5-0.5-0.5-1.4,0-1.9s1.4-0.5,1.9,0c4.1,4.1,9.7,6.3,15.4,6.3c5.8,0,11.1-2.3,15.3-6.2
	c0.5-0.5,1.4-0.5,1.9,0s0.5,1.4,0,1.9C751.6,356.4,745.5,358.9,739,358.9 M756.9,321.3c-0.4,0-0.7-0.2-1-0.5
	c-4.2-5.2-10.3-8.1-16.9-8.1c-5.3,0-10.5,2-14.5,5.5c-0.5,0.5-1.4,0.5-1.9-0.1c-0.5-0.5-0.5-1.4,0.1-1.9c4.4-4,10.2-6.2,16.2-6.2
	c7.4,0,14.3,3.3,18.9,9c0.5,0.5,0.4,1.4-0.2,1.9C757.5,321.2,757.3,321.3,756.9,321.3 M747,364.9l-1.4,0.4l0.2-2.2L747,364.9z
	 M749.6,366.2c0-0.1-0.1-0.2-0.1-0.3l-2.9-4.5c-0.4-0.5-0.7-0.7-1.3-0.6c-0.5,0.1-0.8,0.5-0.8,1.2l-0.6,5.3c0,0.1,0,0.2,0,0.3
	c0.1,0.2,0.2,0.4,0.4,0.5c0.1,0.1,0.3,0.1,0.4,0.1s0.1,0,0.2,0c0.4-0.1,0.5-0.4,0.6-0.7l0.1-0.8l2.3-0.5l0.5,0.7
	c0.2,0.4,0.5,0.5,0.9,0.4c0.2-0.1,0.4-0.2,0.5-0.4C749.7,366.7,749.7,366.5,749.6,366.2 M740,363.9c0,0.3-0.1,0.5-0.3,0.5
	c-0.2,0.1-0.4,0.2-0.6,0.2h-1.2V363h1.2c0.3,0,0.5,0.1,0.6,0.2C739.9,363.4,740,363.6,740,363.9 M741.6,363.9c0-0.6-0.2-1.2-0.6-1.5
	s-1-0.6-1.7-0.6h-2.2c-0.5,0-0.7,0.3-0.7,0.7l-0.1,5.4c0,0.3,0.1,0.5,0.2,0.6c0.2,0.2,0.4,0.3,0.5,0.3c0.2,0,0.5-0.1,0.5-0.3
	c0.2-0.2,0.3-0.4,0.3-0.6V366h0.9l1.1,2.2l0,0c0.2,0.4,0.5,0.5,0.8,0.5l0,0c0.2,0,0.5-0.1,0.5-0.2c0.1-0.2,0.2-0.4,0.2-0.5
	c0-0.2,0-0.3-0.1-0.5l-0.9-1.7C741.2,365.3,741.6,364.7,741.6,363.9 M734.2,361.2l-3.2-0.8c-0.5-0.1-0.7,0.1-0.9,0.5l-1.3,5.2
	c-0.1,0.5,0.1,0.9,0.5,1c0.1,0,0.2,0,0.2,0c0.4,0,0.6-0.3,0.8-0.6l0.5-1.9l1.8,0.5c0.5,0.1,0.8-0.1,0.9-0.5c0.1-0.2,0-0.4-0.1-0.5
	c-0.1-0.2-0.3-0.3-0.5-0.4l-1.8-0.5l0.4-1.4l2.4,0.5c0.2,0.1,0.5,0,0.5-0.1c0.2-0.1,0.3-0.3,0.4-0.5c0.1-0.2,0-0.4-0.1-0.5
	C734.6,361.4,734.4,361.3,734.2,361.2 M738.9,295c21.9,0,39.5,17.7,39.5,39.5c0,21.9-17.7,39.5-39.5,39.5
	c-21.9,0-39.5-17.7-39.5-39.5C699.3,312.7,717,295,738.9,295 M738.9,297.6c-20.4,0-36.9,16.6-36.9,36.9c0,20.4,16.6,36.9,36.9,36.9
	s36.9-16.6,36.9-36.9C775.8,314.2,759.3,297.6,738.9,297.6 M745.5,307.5c0.4,0.1,0.6,0,0.9-0.5l1.4-1.9l-0.7,2.9
	c-0.1,0.3,0,0.5,0.1,0.6s0.3,0.3,0.5,0.4c0.1,0,0.2,0,0.2,0c0.4,0,0.6-0.2,0.7-0.6l1.3-5.2c0.1-0.3,0-0.5-0.1-0.7s-0.3-0.4-0.5-0.4
	c-0.5-0.1-0.8,0.1-1.1,0.5l-2.1,2.7l-0.6-3.3c-0.1-0.5-0.3-0.9-0.7-1c-0.3-0.1-0.5,0-0.7,0.1s-0.4,0.4-0.4,0.6l-1.3,5.2
	c-0.1,0.3,0,0.5,0.1,0.6s0.3,0.3,0.5,0.4c0.5,0.1,0.8-0.1,0.9-0.6l0.7-2.9l0.5,2.4C745,307.2,745.1,307.4,745.5,307.5 M737.2,307.7
	L737.2,307.7c0.5,0,0.8-0.4,0.8-0.9v-1.9h1.9c0.3,0,0.5-0.1,0.5-0.2c0.1-0.1,0.2-0.3,0.2-0.5s-0.1-0.4-0.2-0.5
	c-0.2-0.1-0.4-0.2-0.5-0.2H738v-1.4h2.4c0.5,0,0.7-0.3,0.7-0.7s-0.3-0.7-0.7-0.7l0,0l-3.3,0.1c-0.5,0-0.7,0.3-0.7,0.7l0.1,5.4
	C736.4,307.3,736.7,307.7,737.2,307.7 M730.4,307.5L730.4,307.5L730.4,307.5L730.4,307.5L730.4,307.5z M731.8,305
	c-0.2-0.5-0.4-1-0.5-1.2c-0.3-0.5-0.7-0.5-1.4-0.4l-0.6,0.2l1.1,3.9l0.6-0.2c0.6-0.2,1-0.5,1-1C732,306,731.9,305.5,731.8,305
	 M733.4,304.5c0.3,1,0.4,1.4,0.3,1.8c-0.1,1.2-0.7,1.9-2.3,2.3l-1.5,0.5c-0.1,0-0.2,0-0.3,0c-0.3,0-0.5-0.2-0.6-0.5l-1.4-5.2
	c-0.1-0.5,0.1-0.8,0.5-0.9l1.5-0.5c1.4-0.5,2.4-0.2,3.1,0.8C732.9,303.1,733.1,303.5,733.4,304.5 M771.6,428.5
	c0,0.5,0.4,0.8,0.8,0.8c0.5,0,0.8-0.3,0.8-0.8v-3.9h0.1l1.3,2.9c0.3,0.5,0.5,0.7,0.8,0.7c0.4,0,0.6-0.2,0.8-0.7l1.3-2.9h0.1v3.9
	c0,0.5,0.4,0.8,0.8,0.8c0.5,0,0.8-0.3,0.8-0.8v-6.3c0-0.6-0.4-1.1-0.9-1.1s-0.8,0.3-1.1,0.9l-1.7,3.9h-0.1l-1.7-3.9
	c-0.3-0.6-0.5-0.9-1.1-0.9s-1,0.4-1,1.1L771.6,428.5L771.6,428.5z M766.7,429.4c1.8,0,3.1-1.1,3.1-3.1V422c0-0.5-0.4-0.9-0.9-0.9
	s-0.9,0.4-0.9,0.9v4.3c0,1-0.5,1.5-1.4,1.5c-0.7,0-1.4-0.5-1.4-1.5V422c0-0.5-0.4-0.9-0.9-0.9s-0.9,0.4-0.9,0.9v4.3
	C763.6,428.3,764.8,429.4,766.7,429.4 M756.5,428.5c0,0.5,0.3,0.7,0.7,0.7h3.9c0.5,0,0.8-0.4,0.8-0.7c0-0.5-0.4-0.7-0.8-0.7h-2.8
	c-0.1,0-0.1,0-0.1-0.1V426c0-0.1,0-0.1,0.1-0.1h2.3c0.5,0,0.8-0.3,0.8-0.7s-0.3-0.7-0.8-0.7h-2.3c-0.1,0-0.1,0-0.1-0.1v-1.6
	c0-0.1,0-0.1,0.1-0.1h2.8c0.5,0,0.8-0.4,0.8-0.7c0-0.5-0.4-0.7-0.8-0.7h-3.9c-0.5,0-0.7,0.3-0.7,0.7V428.5z M751.8,429.4
	c2.1,0,3.2-1.1,3.2-2.5s-0.9-2.2-2.5-2.4l-0.5-0.1c-0.9-0.1-1.3-0.5-1.3-0.9c0-0.5,0.4-0.9,1.1-0.9c0.5,0,1,0.2,1.4,0.4
	c0.2,0.1,0.4,0.1,0.5,0.1c0.5,0,0.7-0.4,0.7-0.7c0-0.3-0.1-0.5-0.5-0.7c-0.5-0.3-1.4-0.5-2.3-0.5c-1.7,0-2.8,1-2.8,2.4
	s0.9,2.2,2.5,2.4l0.5,0.1c1,0.1,1.3,0.5,1.3,0.9c0,0.5-0.5,0.9-1.4,0.9c-0.6,0-1.1-0.2-1.7-0.5c-0.2-0.1-0.4-0.2-0.5-0.2
	c-0.5,0-0.8,0.4-0.8,0.7c0,0.3,0.2,0.5,0.5,0.7C749.8,429,750.8,429.4,751.8,429.4 M744.2,429.4c1.8,0,3.1-1.1,3.1-3.1V422
	c0-0.5-0.4-0.9-0.9-0.9s-0.9,0.4-0.9,0.9v4.3c0,1-0.5,1.5-1.4,1.5c-0.7,0-1.4-0.5-1.4-1.5V422c0-0.5-0.4-0.9-0.9-0.9
	s-0.9,0.4-0.9,0.9v4.3C741.2,428.3,742.4,429.4,744.2,429.4 M731.6,428.5c0,0.5,0.4,0.8,0.8,0.8c0.5,0,0.8-0.3,0.8-0.8v-3.9h0.1
	l1.3,2.9c0.3,0.5,0.5,0.7,0.8,0.7c0.4,0,0.6-0.2,0.8-0.7l1.3-2.9h0.1v3.9c0,0.5,0.4,0.8,0.8,0.8c0.5,0,0.8-0.3,0.8-0.8v-6.3
	c0-0.6-0.4-1.1-0.9-1.1s-0.8,0.3-1.1,0.9l-1.7,3.9h-0.1l-1.7-3.9c-0.3-0.6-0.5-0.9-1.1-0.9s-1,0.4-1,1.1L731.6,428.5L731.6,428.5z
	 M722.9,427.7v-4.8c0-0.1,0-0.1,0.1-0.1h0.8c0.8,0,1.4,0.3,1.6,0.9c0.1,0.3,0.2,0.7,0.2,1.5s-0.1,1.3-0.2,1.5
	c-0.2,0.6-0.8,0.9-1.6,0.9L722.9,427.7L722.9,427.7 M721.2,428.6c0,0.5,0.3,0.7,0.7,0.7h1.9c1.7,0,2.8-0.5,3.2-1.9
	c0.2-0.5,0.3-1,0.3-2.2s-0.1-1.7-0.3-2.2c-0.5-1.4-1.4-1.9-3.2-1.9h-1.9c-0.5,0-0.7,0.3-0.7,0.7V428.6z M716.3,427.8
	c-0.6,0-1.1-0.4-1.3-0.9c-0.1-0.3-0.1-0.7-0.1-1.7s0-1.4,0.1-1.7c0.2-0.5,0.6-0.9,1.3-0.9c0.6,0,1.1,0.4,1.3,0.9
	c0.1,0.3,0.1,0.7,0.1,1.7s0,1.4-0.1,1.7C717.4,427.6,717,427.8,716.3,427.8 M716.3,429.4c1.4,0,2.5-0.6,2.9-2c0.2-0.5,0.2-1,0.2-2.2
	s-0.1-1.6-0.2-2.2c-0.5-1.3-1.5-2-2.9-2s-2.5,0.6-2.9,2c-0.2,0.5-0.2,1-0.2,2.2s0.1,1.6,0.2,2.2
	C713.8,428.7,714.9,429.4,716.3,429.4 M708.6,427.8c-0.6,0-1.1-0.4-1.3-0.9c-0.1-0.3-0.1-0.7-0.1-1.7s0-1.4,0.1-1.7
	c0.2-0.5,0.6-0.9,1.3-0.9c0.6,0,1.1,0.4,1.3,0.9c0.1,0.3,0.1,0.7,0.1,1.7s0,1.4-0.1,1.7C709.7,427.6,709.2,427.8,708.6,427.8
	 M708.6,429.4c1.4,0,2.5-0.6,2.9-2c0.2-0.5,0.2-1,0.2-2.2s-0.1-1.6-0.2-2.2c-0.5-1.3-1.5-2-2.9-2s-2.5,0.6-2.9,2
	c-0.2,0.5-0.2,1-0.2,2.2s0.1,1.6,0.2,2.2C706.1,428.7,707.1,429.4,708.6,429.4 M699.2,428.4c0,0.5,0.4,0.9,0.9,0.9s0.9-0.4,0.9-0.9
	v-2.3c0-0.1,0-0.1,0.1-0.1h2.3c0.5,0,0.8-0.3,0.8-0.7s-0.3-0.7-0.8-0.7h-2.3c-0.1,0-0.1,0-0.1-0.1v-1.7c0-0.1,0-0.1,0.1-0.1h2.8
	c0.5,0,0.8-0.4,0.8-0.7c0-0.5-0.4-0.7-0.8-0.7H700c-0.5,0-0.7,0.3-0.7,0.7L699.2,428.4L699.2,428.4z M766.6,415.6c0.5,1.3,1.5,2,3,2
	c1.4,0,2.5-0.7,2.9-2c0.2-0.5,0.2-1.1,0.2-1.8v-0.1c0-0.5-0.3-0.7-0.7-0.7h-1.6c-0.5,0-0.7,0.3-0.7,0.7s0.3,0.7,0.7,0.7h0.5
	c0.1,0,0.1,0,0.1,0.1c0,0.3,0,0.5-0.1,0.8c-0.2,0.5-0.6,0.8-1.3,0.8s-1.2-0.4-1.3-0.9c-0.1-0.3-0.1-0.7-0.1-1.7s0-1.4,0.1-1.7
	c0.2-0.5,0.6-0.9,1.3-0.9c0.5,0,0.9,0.2,1.2,0.6s0.5,0.5,0.7,0.5c0.5,0,0.8-0.4,0.8-0.8c0-0.2-0.1-0.4-0.2-0.5
	c-0.5-0.7-1.4-1.3-2.6-1.3c-1.4,0-2.5,0.6-3,2c-0.2,0.5-0.2,1-0.2,2.2S766.4,415.1,766.6,415.6 M758.5,416.7c0,0.5,0.4,0.8,0.8,0.8
	c0.5,0,0.8-0.3,0.8-0.8v-4.3h0.1l2.4,4.3c0.4,0.5,0.6,0.8,1.2,0.8c0.6,0,1-0.4,1-1v-6.3c0-0.5-0.4-0.8-0.8-0.8s-0.8,0.3-0.8,0.8v4.4
	h-0.1l-2.4-4.3c-0.4-0.5-0.6-0.8-1.2-0.8c-0.6,0-1,0.4-1,1V416.7z M754.6,416.6c0,0.5,0.4,0.9,0.9,0.9s0.9-0.4,0.9-0.9v-6.3
	c0-0.5-0.4-0.9-0.9-0.9s-0.9,0.4-0.9,0.9V416.6z M750.4,417.5c0.5,0,0.9-0.4,0.9-0.9V411c0-0.1,0-0.1,0.1-0.1h1.4
	c0.5,0,0.9-0.4,0.9-0.7c0-0.5-0.4-0.8-0.9-0.8h-4.6c-0.5,0-0.9,0.4-0.9,0.8c0,0.5,0.4,0.7,0.9,0.7h1.4c0.1,0,0.1,0,0.1,0.1v5.6
	C749.6,417.2,749.9,417.5,750.4,417.5 M743.2,417.6c2.1,0,3.2-1.1,3.2-2.5s-0.9-2.2-2.5-2.4l-0.5-0.1c-0.9-0.1-1.3-0.5-1.3-0.9
	c0-0.5,0.4-0.9,1.1-0.9c0.5,0,1,0.2,1.4,0.4c0.2,0.1,0.4,0.1,0.5,0.1c0.5,0,0.7-0.4,0.7-0.7c0-0.3-0.1-0.5-0.5-0.7
	c-0.5-0.3-1.4-0.5-2.3-0.5c-1.7,0-2.8,1-2.8,2.4s0.9,2.2,2.5,2.4l0.5,0.1c1,0.1,1.3,0.5,1.3,0.9c0,0.5-0.5,0.9-1.4,0.9
	c-0.6,0-1.1-0.2-1.7-0.5c-0.2-0.1-0.4-0.2-0.5-0.2c-0.5,0-0.8,0.4-0.8,0.7c0,0.3,0.2,0.5,0.5,0.7
	C741.2,417.2,742.1,417.6,743.2,417.6 M735.6,417.6c1.8,0,3.1-1.1,3.1-3.1v-4.3c0-0.5-0.4-0.9-0.9-0.9s-0.9,0.4-0.9,0.9v4.3
	c0,1-0.5,1.5-1.4,1.5c-0.7,0-1.4-0.5-1.4-1.5v-4.3c0-0.5-0.4-0.9-0.9-0.9s-0.9,0.4-0.9,0.9v4.3C732.5,416.5,733.7,417.6,735.6,417.6
	 M724.8,415.6c0.5,1.3,1.5,2,3,2c1.4,0,2.5-0.7,2.9-2c0.2-0.5,0.2-1.1,0.2-1.8v-0.1c0-0.5-0.3-0.7-0.7-0.7h-1.6
	c-0.5,0-0.7,0.3-0.7,0.7s0.3,0.7,0.7,0.7h0.5c0.1,0,0.1,0,0.1,0.1c0,0.3,0,0.5-0.1,0.8c-0.2,0.5-0.6,0.8-1.3,0.8s-1.2-0.4-1.4-0.9
	c-0.1-0.3-0.1-0.7-0.1-1.7s0-1.4,0.1-1.7c0.2-0.5,0.6-0.9,1.3-0.9c0.5,0,0.9,0.2,1.2,0.6s0.5,0.5,0.7,0.5c0.5,0,0.8-0.4,0.8-0.8
	c0-0.2-0.1-0.4-0.2-0.5c-0.5-0.7-1.4-1.3-2.6-1.3c-1.4,0-2.5,0.6-3,2c-0.2,0.5-0.2,1-0.2,2.2S724.6,415.1,724.8,415.6 M720.1,417.6
	c2.1,0,3.2-1.1,3.2-2.5s-0.9-2.2-2.5-2.4l-0.5-0.1c-0.9-0.1-1.3-0.5-1.3-0.9c0-0.5,0.4-0.9,1.1-0.9c0.5,0,1,0.2,1.4,0.4
	c0.2,0.1,0.4,0.1,0.5,0.1c0.5,0,0.7-0.4,0.7-0.7c0-0.3-0.1-0.5-0.5-0.7c-0.5-0.3-1.4-0.5-2.3-0.5c-1.7,0-2.8,1-2.8,2.4
	s0.9,2.2,2.5,2.4l0.5,0.1c1,0.1,1.3,0.5,1.3,0.9c0,0.5-0.5,0.9-1.4,0.9c-0.6,0-1.1-0.2-1.7-0.5c-0.2-0.1-0.4-0.2-0.5-0.2
	c-0.5,0-0.8,0.4-0.8,0.7c0,0.3,0.2,0.5,0.5,0.7C718.1,417.2,718.9,417.6,720.1,417.6 M713.7,416.6c0,0.5,0.4,0.9,0.9,0.9
	s0.9-0.4,0.9-0.9v-6.3c0-0.5-0.4-0.9-0.9-0.9s-0.9,0.4-0.9,0.9V416.6z M707.5,415.8V411c0-0.1,0-0.1,0.1-0.1h0.8
	c0.8,0,1.4,0.3,1.6,0.9c0.1,0.3,0.2,0.7,0.2,1.5s-0.1,1.3-0.2,1.5c-0.2,0.6-0.8,0.9-1.6,0.9L707.5,415.8
	C707.5,415.9,707.5,415.9,707.5,415.8 M705.7,416.7c0,0.5,0.3,0.7,0.7,0.7h1.9c1.7,0,2.8-0.5,3.2-1.9c0.2-0.5,0.3-1,0.3-2.2
	s-0.1-1.7-0.3-2.2c-0.5-1.3-1.4-1.9-3.2-1.9h-1.9c-0.5,0-0.7,0.3-0.7,0.7V416.7z M765.1,380.1c-0.5-1.6-2.5-2.5-4.9-2.5
	c-1.1,0-2.3,0.2-3.4,0.6c-3.7,1.4-6.1,4.4-5.2,6.8c0.5,1.6,2.5,2.5,4.9,2.5c1.1,0,2.3-0.2,3.5-0.6
	C763.5,385.7,765.9,382.5,765.1,380.1 M766.2,385.6c-1.3,1.7-3.3,3.1-5.5,3.9c-1.4,0.5-2.9,0.8-4.3,0.8c-3,0-5.5-1.2-6.8-3.1
	l-7.1,2.5l15.8,5.8c0.7,0.3,1,1,0.8,1.7c-0.3,0.7-1,1-1.7,0.8l-18.8-6.9L720,398c-0.7,0.3-1.4-0.1-1.7-0.8c-0.3-0.7,0.1-1.4,0.8-1.7
	l15.7-5.7l-8.8-3.2c-1.6,2.6-5,3.8-8.1,2.7l0,0l0,0l-10.4-3.8c-0.7-0.3-1-1-0.8-1.7c0.3-0.7,1-1,1.7-0.8l10.4,3.8l0,0l0,0
	c2.2,0.8,4.4-0.3,5.2-2.3c0.7-2.1-0.4-4.3-2.5-5.1l0,0l0,0l-10.4-3.8c-0.7-0.3-1-1-0.8-1.7c0.3-0.7,1-1,1.7-0.8l10.4,3.8l0,0l0,0
	c3.1,1.1,4.9,4.2,4.4,7.2l11.7,4.3l10-3.6c-0.2-1.6,0.4-3.4,1.5-5c1.3-1.7,3.3-3.1,5.5-3.9c1.4-0.5,2.9-0.8,4.3-0.8
	c3.6,0,6.4,1.6,7.3,4.3C768.2,381.2,767.8,383.5,766.2,385.6 M708.6,378.8c0.3-0.7,1-1,1.7-0.8l10.4,3.8c0.7,0.3,1,1,0.8,1.7
	c-0.3,0.7-1,1-1.7,0.8l-10.4-3.8C708.7,380.2,708.3,379.5,708.6,378.8"/>
<path class="st0" d="M257.6,67.5l-0.5-2.4l-0.7,2.9c-0.1,0.5-0.5,0.7-0.9,0.6c-0.2-0.1-0.4-0.2-0.5-0.4s0-0.2,0-0.5l1.3-5.2
	c0.1-0.3,0.2-0.5,0.4-0.6c0.2-0.1,0.5-0.2,0.7-0.1c0.5,0.1,0.6,0.5,0.7,1l0.6,3.3l2.1-2.7c0.3-0.5,0.6-0.6,1.1-0.5
	c0.3,0.1,0.5,0.2,0.5,0.4s0.1,0.5,0.1,0.7l-1.3,5.2c-0.1,0.4-0.4,0.6-0.7,0.6c-0.1,0-0.1,0-0.2,0c-0.2-0.1-0.4-0.2-0.5-0.4
	c-0.1-0.2-0.1-0.4-0.1-0.6l0.7-2.9l-1.4,1.9c-0.4,0.5-0.5,0.5-0.9,0.5C257.9,68.3,257.7,68.1,257.6,67.5 M249.2,67.7l-0.1-5.4
	c0-0.5,0.3-0.7,0.7-0.7l3.3-0.1l0,0c0.5,0,0.7,0.3,0.7,0.7c0,0.5-0.3,0.7-0.7,0.7h-2.4v1.4h1.9c0.3,0,0.5,0.1,0.5,0.2
	s0.2,0.3,0.2,0.5s-0.1,0.4-0.2,0.5s-0.4,0.2-0.5,0.2h-1.9v1.9c0,0.5-0.4,0.9-0.8,0.9l0,0C249.5,68.6,249.2,68.3,249.2,67.7
	 M243.1,68.3L243.1,68.3L243.1,68.3L243.1,68.3L243.1,68.3z M244.8,67.2c0,0.5-0.4,0.8-1,1l-0.6,0.2l-1.1-3.9l0.6-0.2
	c0.6-0.2,1.2-0.1,1.4,0.4c0.2,0.2,0.3,0.6,0.5,1.2C244.8,66.4,244.9,66.9,244.8,67.2 M245.5,63.7c-0.6-1-1.6-1.3-3.1-0.8l-1.5,0.5
	c-0.5,0.1-0.6,0.5-0.5,0.9l1.4,5.2c0.1,0.4,0.4,0.5,0.6,0.5c0.1,0,0.2,0,0.3,0l1.5-0.5c1.4-0.5,2.2-1.2,2.3-2.3c0-0.4,0-0.8-0.3-1.8
	C245.9,64.5,245.7,64,245.5,63.7 M277.1,88.5c0,0.9-0.7,1.6-1.6,1.6s-1.6-0.7-1.6-1.6s0.7-1.6,1.6-1.6
	C276.3,86.9,277.1,87.6,277.1,88.5 M264.9,96.4c0-1.2-0.4-1.9-1.1-1.9c-1.6,0-3,3.5-3,5.7c0,1.2,0.4,1.9,1.1,1.9
	C263.5,102.1,264.9,98.7,264.9,96.4 M246.4,90.5c0-2.1-1.3-4.3-4.1-5.1c-1.2,1.9-1.7,4.5-2.4,9l-0.2,0.8
	C242.7,95,246.4,94,246.4,90.5 M275.4,93.6l-2.4,8.9c-3.5,12.8-13.7,17.4-21.2,17.4c-6.1,0-11.9-2.3-16.5-6.4
	c-0.5-0.5-0.5-1.4-0.1-1.9c0.5-0.5,1.4-0.5,1.9-0.1c4,3.7,9.2,5.7,14.7,5.7c9.3,0,15.1-6.4,17.7-12.8c-0.5,0.2-1.2,0.4-1.8,0.4
	c-1.1,0-2.2-0.5-2.8-1.4c-0.8,0.8-1.8,1.4-3,1.4c-0.9,0-2.1-0.4-2.9-1.5c-1.1,1-2.2,1.5-3.4,1.5c-1.1,0-2.1-0.5-2.8-1.3
	c-0.7,0.7-1.7,1.3-3.1,1.3c-1.2,0-2.2-0.5-2.9-1.4c-0.8-1-1-2.4-0.5-3.9c0.2-0.7,0.9-3.2,1.4-4.8c-1.3,1.6-3.8,3.2-8.5,3.3
	c-1.6,6.4-4.9,7.5-6.8,7.5c-2.4,0-4.8-1.6-4.8-4.7s2.4-4.2,3.6-4.2c0.7,0,1.4,0.6,1.4,1.4c0,0.7-0.5,1.3-1.3,1.4c-0.1,0-1,0.2-1,1.5
	c0,2,2,2.1,2.2,2.1c2.2,0,3.8-2.5,4.6-7.1l0.3-1.7c0.7-4.1,1.2-6.7,2.3-8.8c-6.9,0.1-7.1,4.2-7.1,4.6c0,1,0.5,1.9,1.4,2.3
	c0.6,0.3,1,1.1,0.6,1.7c-0.3,0.6-1.1,1-1.7,0.6c-1.7-0.8-2.9-2.6-2.9-4.7c0-2.7,2.1-7.3,10-7.3c6.1,0,9.3,4.1,9.3,8
	c0,0.5-0.1,1-0.2,1.6c0.3-0.1,0.5-0.2,0.9-0.1c0.7,0.2,1.2,0.9,1,1.6c0,0-1.4,5.3-1.8,6.5c-0.2,0.6-0.2,1.3,0.1,1.6
	c0.2,0.3,0.5,0.4,0.7,0.4c0.5,0,1.6,0,2.5-3.2c0.9-3.1,1.6-6,1.6-6c0.2-0.7,0.9-1.2,1.6-0.9c0.7,0.2,1.1,0.9,0.9,1.6
	c0,0-0.8,3-1.7,6.1c0,0.2-0.1,0.3-0.2,0.5c-0.2,0.6-0.2,1.2,0.1,1.5c0.2,0.3,0.5,0.4,0.8,0.4c0.9,0,1.7-0.5,2.6-1.4
	c0-0.2,0-0.4,0-0.5c0-2.8,1.7-8.3,5.6-8.3c0.7,0,1.6,0.3,2.4,0.9c0.3-0.6,0.9-0.9,1.5-0.7c0.7,0.2,1.2,0.9,1,1.6
	c0,0-1.4,5.3-1.8,6.5c-0.2,0.6-0.2,1.3,0.1,1.6c0.2,0.3,0.5,0.4,0.7,0.4c1.9,0,3.3-2.4,3.9-4.6l0,0L273,93c0.2-0.7,0.9-1.1,1.6-0.9
	C275.3,92.1,275.6,92.9,275.4,93.6 M225.7,97.8l-2.8,10.6c-0.2,0.5-0.7,1-1.3,1c-0.1,0-0.3,0-0.4-0.1c-0.7-0.2-1.1-0.9-0.9-1.6
	l2.9-10.6c0.2-0.7,0.9-1.1,1.6-0.9C225.5,96.5,225.9,97.2,225.7,97.8 M227.4,92.7c0,0.9-0.7,1.6-1.6,1.6s-1.6-0.7-1.6-1.6
	s0.7-1.6,1.6-1.6C226.7,91.1,227.4,91.8,227.4,92.7 M284.1,87.6l-2.9,10.6c-0.2,0.5-0.7,1-1.3,1c-0.1,0-0.3,0-0.4-0.1
	c-0.7-0.2-1.1-0.9-0.9-1.6l2.9-10.6c0.2-0.7,0.9-1.1,1.6-0.9C283.9,86.3,284.3,87,284.1,87.6 M280.3,102.7c0,0.9-0.7,1.6-1.6,1.6
	s-1.6-0.7-1.6-1.6s0.7-1.6,1.6-1.6C279.6,101.1,280.3,101.8,280.3,102.7 M237.7,77.1c-0.5-0.6-0.3-1.4,0.4-1.8
	c4.1-2.8,8.9-4.3,13.8-4.3c7.4,0,14.3,3.3,18.9,9c0.5,0.5,0.4,1.4-0.2,1.9c-0.3,0.2-0.5,0.3-0.8,0.3c-0.4,0-0.7-0.2-1-0.5
	c-4.2-5.2-10.3-8.1-16.9-8.1c-4.4,0-8.6,1.3-12.3,3.8C239,77.8,238.2,77.7,237.7,77.1 M251.7,55.9c21.9,0,39.5,17.7,39.5,39.5
	s-17.7,39.5-39.5,39.5s-39.5-17.7-39.5-39.5S229.8,55.9,251.7,55.9 M251.7,58.5c-20.4,0-36.9,16.6-36.9,36.9s16.6,36.9,36.9,36.9
	s36.9-16.6,36.9-36.9S272.1,58.5,251.7,58.5 M259.8,123.7c-0.1-0.5-0.5-0.7-1.1-0.6l-1.1,0.3l0.4,1.6l1.1-0.3
	c0.3-0.1,0.5-0.2,0.6-0.4C259.8,124.2,259.9,124,259.8,123.7 M261.1,125.1c-0.4,0.5-0.9,0.8-1.6,1l-1.2,0.3l0.4,1.5
	c0.1,0.5-0.1,0.9-0.5,1c-0.1,0-0.2,0-0.2,0c-0.4,0-0.7-0.3-0.8-0.6l-1.3-5.2c-0.1-0.2,0-0.4,0.1-0.5s0.3-0.3,0.5-0.4l2-0.5
	c0.7-0.2,1.4-0.1,1.9,0.2c0.5,0.3,0.8,0.8,1,1.4C261.5,124,261.4,124.5,261.1,125.1 M252.1,125.3l-0.4-0.1c-0.9-0.1-1-0.5-1-0.7
	c0-0.4,0.3-0.6,0.8-0.6l0,0c0.4,0,0.8,0.1,1.1,0.3c0.2,0.1,0.3,0.1,0.5,0.1s0.4-0.1,0.5-0.2c0.2-0.1,0.2-0.3,0.2-0.5
	s-0.1-0.5-0.4-0.6c-0.5-0.3-1.2-0.5-1.9-0.5c0,0,0,0-0.1,0c-1.4,0-2.4,0.8-2.4,2.1c0,1.2,0.7,1.9,2.2,2.2l0.4,0.1
	c0.8,0.1,1,0.4,1,0.7c0,0.2-0.1,0.4-0.3,0.5c-0.2,0.1-0.5,0.2-0.8,0.2c-0.5,0-0.8-0.1-1.4-0.5c-0.1-0.1-0.3-0.1-0.5-0.2l0,0
	c-0.4,0-0.7,0.3-0.7,0.7c0,0.3,0.1,0.5,0.4,0.7l0,0c0.4,0.2,1.1,0.6,2.2,0.6h0.1c0.8,0,1.5-0.2,2-0.6c0.5-0.4,0.7-0.9,0.7-1.5
	C254.3,126.2,253.6,125.5,252.1,125.3 M247.6,123.1c-0.1,0.2-0.2,0.4-0.4,0.5c-0.2,0.1-0.4,0.1-0.5,0.1l-2.4-0.5l-0.3,1.3l1.8,0.5
	c0.5,0.1,0.6,0.5,0.5,0.9c-0.1,0.2-0.2,0.4-0.4,0.5c-0.2,0.1-0.4,0.1-0.5,0.1l-1.8-0.5l-0.4,1.4l2.4,0.5c0.5,0.1,0.6,0.5,0.5,0.9
	c-0.1,0.2-0.2,0.4-0.4,0.5c-0.1,0.1-0.3,0.1-0.4,0.1s-0.2,0-0.2,0l-3.2-0.8c-0.2-0.1-0.4-0.2-0.5-0.4s-0.1-0.4-0.1-0.5l1.3-5.3
	c0.1-0.2,0.2-0.4,0.3-0.5c0.2-0.1,0.4-0.1,0.5-0.1l3.2,0.8C247.5,122.3,247.7,122.6,247.6,123.1 M272.5,147.9
	c-1.2,0.5-2.4,0.6-3.5,0.6c-2.4,0-4.3-0.9-4.9-2.5c-0.8-2.4,1.5-5.5,5.2-6.8c1.2-0.5,2.4-0.6,3.4-0.6c2.4,0,4.3,0.9,4.9,2.5
	C278.6,143.4,276.3,146.5,272.5,147.9 M280.2,140.2c-1-2.6-3.8-4.3-7.3-4.3c-1.4,0-3,0.3-4.3,0.8c-2.3,0.8-4.2,2.2-5.5,3.9
	c-1.2,1.6-1.7,3.3-1.5,5l-10,3.6l-11.7-4.3c0.5-3-1.4-6.1-4.4-7.2l0,0l0,0l-10.4-3.8c-0.7-0.3-1.4,0.1-1.7,0.8
	c-0.3,0.7,0.1,1.4,0.8,1.7l10.4,3.8l0,0l0,0c2.2,0.8,3.3,3.1,2.5,5.1c-0.7,2.1-3.1,3.1-5.2,2.3l0,0l0,0l-10.4-3.8
	c-0.7-0.3-1.4,0.1-1.7,0.8c-0.3,0.7,0.1,1.4,0.8,1.7l10.4,3.8l0,0l0,0c3.1,1.1,6.4-0.1,8.1-2.7l8.8,3.2l-15.7,5.7
	c-0.7,0.3-1,1-0.8,1.7c0.3,0.7,1,1,1.7,0.8l18.6-6.8l18.8,6.9c0.7,0.3,1.4-0.1,1.7-0.8c0.3-0.7-0.1-1.4-0.8-1.7l-15.8-5.8l7.1-2.5
	c1.3,1.9,3.7,3.1,6.8,3.1c1.4,0,3-0.3,4.3-0.8c2.3-0.8,4.2-2.2,5.5-3.9C280.5,144.4,281,142.2,280.2,140.2 M222.1,141.4l10.4,3.8
	c0.7,0.3,1.4-0.1,1.7-0.8c0.3-0.7-0.1-1.4-0.8-1.7l-10.4-3.8c-0.7-0.3-1.4,0.1-1.7,0.8C221.2,140.4,221.5,141.2,222.1,141.4
	 M284.4,183.2c0-0.6,0.4-1,1-1c0.5,0,0.8,0.3,1.1,0.9l1.7,3.9h0.1l1.7-3.9c0.3-0.6,0.5-0.9,1.1-0.9s0.9,0.4,0.9,1v6.3
	c0,0.5-0.4,0.8-0.8,0.8s-0.8-0.3-0.8-0.8v-3.9h-0.1l-1.3,2.9c-0.3,0.5-0.5,0.7-0.8,0.7c-0.4,0-0.6-0.2-0.8-0.7l-1.3-2.9H286v3.9
	c0,0.5-0.4,0.8-0.8,0.8c-0.5,0-0.8-0.3-0.8-0.8L284.4,183.2L284.4,183.2z M276.3,187.2V183c0-0.5,0.4-0.9,0.9-0.9s0.9,0.4,0.9,0.9
	v4.3c0,1,0.5,1.5,1.4,1.5c0.8,0,1.4-0.5,1.4-1.5V183c0-0.5,0.4-0.9,0.9-0.9s0.9,0.4,0.9,0.9v4.3c0,2-1.3,3.1-3.1,3.1
	C277.6,190.3,276.3,189.2,276.3,187.2 M269.4,182.9c0-0.5,0.3-0.7,0.7-0.7h3.9c0.5,0,0.8,0.4,0.8,0.7c0,0.5-0.4,0.7-0.8,0.7h-2.8
	c-0.1,0-0.1,0-0.1,0.1v1.6c0,0.1,0,0.1,0.1,0.1h2.3c0.5,0,0.8,0.3,0.8,0.7c0,0.5-0.3,0.7-0.8,0.7h-2.3c-0.1,0-0.1,0-0.1,0.1v1.6
	c0,0.1,0,0.1,0.1,0.1h2.8c0.5,0,0.8,0.4,0.8,0.7c0,0.5-0.4,0.7-0.8,0.7h-3.9c-0.5,0-0.7-0.3-0.7-0.7V182.9z M262.1,189.7
	c-0.3-0.2-0.5-0.5-0.5-0.7c0-0.5,0.4-0.7,0.8-0.7c0.2,0,0.4,0.1,0.5,0.2c0.6,0.4,1.2,0.5,1.7,0.5c0.8,0,1.4-0.4,1.4-0.9
	s-0.3-0.7-1.3-0.9l-0.5-0.1c-1.6-0.2-2.5-1-2.5-2.4s1.1-2.4,2.8-2.4c0.9,0,1.8,0.3,2.3,0.5c0.3,0.2,0.5,0.5,0.5,0.7
	c0,0.5-0.4,0.7-0.7,0.7c-0.2,0-0.4-0.1-0.5-0.1c-0.4-0.2-0.9-0.4-1.4-0.4c-0.7,0-1.1,0.4-1.1,0.9s0.4,0.7,1.3,0.9l0.5,0.1
	c1.6,0.3,2.5,1,2.5,2.4s-1.1,2.5-3.2,2.5C263.5,190.3,262.7,190,262.1,189.7 M254,187.2V183c0-0.5,0.4-0.9,0.9-0.9s0.9,0.4,0.9,0.9
	v4.3c0,1,0.5,1.5,1.4,1.5c0.8,0,1.4-0.5,1.4-1.5V183c0-0.5,0.4-0.9,0.9-0.9s0.9,0.4,0.9,0.9v4.3c0,2-1.3,3.1-3.1,3.1
	C255.2,190.3,254,189.2,254,187.2 M244.4,183.2c0-0.6,0.4-1,1-1c0.5,0,0.8,0.3,1.1,0.9l1.7,3.9h0.1l1.7-3.9c0.3-0.6,0.5-0.9,1.1-0.9
	s0.9,0.4,0.9,1v6.3c0,0.5-0.4,0.8-0.8,0.8s-0.8-0.3-0.8-0.8v-3.9h-0.1l-1.3,2.9c-0.3,0.5-0.5,0.7-0.8,0.7s-0.6-0.2-0.8-0.7l-1.3-2.9
	H246v3.9c0,0.5-0.4,0.8-0.8,0.8s-0.8-0.3-0.8-0.8L244.4,183.2L244.4,183.2z M235.7,188.7h0.8c0.8,0,1.4-0.3,1.6-0.9
	c0.1-0.3,0.2-0.7,0.2-1.5s-0.1-1.3-0.2-1.5c-0.2-0.6-0.8-0.9-1.6-0.9h-0.8c-0.1,0-0.1,0-0.1,0.1L235.7,188.7
	C235.7,188.6,235.7,188.7,235.7,188.7 M233.9,182.9c0-0.5,0.3-0.7,0.7-0.7h1.9c1.7,0,2.8,0.5,3.2,1.9c0.2,0.5,0.3,1,0.3,2.2
	s-0.1,1.7-0.3,2.2c-0.5,1.3-1.4,1.9-3.2,1.9h-1.9c-0.5,0-0.7-0.3-0.7-0.7V182.9z M230.4,187.9c0.1-0.3,0.1-0.7,0.1-1.7
	s0-1.4-0.1-1.7c-0.2-0.5-0.6-0.9-1.3-0.9c-0.6,0-1.1,0.4-1.3,0.9c-0.1,0.3-0.1,0.7-0.1,1.7s0,1.4,0.1,1.7c0.2,0.5,0.6,0.9,1.3,0.9
	S230.2,188.4,230.4,187.9 M226.2,188.4c-0.2-0.5-0.2-1-0.2-2.2s0.1-1.6,0.2-2.2c0.5-1.3,1.5-2,2.9-2s2.5,0.6,2.9,2
	c0.2,0.5,0.2,1,0.2,2.2s-0.1,1.6-0.2,2.2c-0.5,1.3-1.5,2-2.9,2C227.7,190.3,226.6,189.7,226.2,188.4 M222.6,187.9
	c0.1-0.3,0.1-0.7,0.1-1.7s0-1.4-0.1-1.7c-0.2-0.5-0.6-0.9-1.3-0.9c-0.6,0-1.1,0.4-1.3,0.9c-0.1,0.3-0.1,0.7-0.1,1.7s0,1.4,0.1,1.7
	c0.2,0.5,0.6,0.9,1.3,0.9C222,188.8,222.4,188.4,222.6,187.9 M218.4,188.4c-0.2-0.5-0.2-1-0.2-2.2s0.1-1.6,0.2-2.2
	c0.5-1.3,1.5-2,2.9-2s2.5,0.6,2.9,2c0.2,0.5,0.2,1,0.2,2.2s-0.1,1.6-0.2,2.2c-0.5,1.3-1.5,2-2.9,2
	C219.9,190.3,218.8,189.7,218.4,188.4 M211.9,182.9c0-0.5,0.3-0.7,0.7-0.7h3.9c0.5,0,0.8,0.4,0.8,0.7c0,0.5-0.4,0.7-0.8,0.7h-2.8
	c-0.1,0-0.1,0-0.1,0.1v1.7c0,0.1,0,0.1,0.1,0.1h2.3c0.5,0,0.8,0.3,0.8,0.7s-0.3,0.7-0.8,0.7h-2.3c-0.1,0-0.1,0-0.1,0.1v2.3
	c0,0.5-0.4,0.9-0.9,0.9s-0.9-0.4-0.9-0.9L211.9,182.9L211.9,182.9z M279.2,174.4c0-1.2,0.1-1.6,0.2-2.2c0.5-1.3,1.5-2,3-2
	c1.3,0,2.2,0.5,2.6,1.3c0.1,0.2,0.2,0.4,0.2,0.5c0,0.5-0.4,0.8-0.8,0.8c-0.3,0-0.5-0.1-0.7-0.5c-0.3-0.5-0.7-0.6-1.2-0.6
	c-0.7,0-1.1,0.4-1.3,0.9c-0.1,0.3-0.1,0.6-0.1,1.7c0,1,0,1.4,0.1,1.7c0.2,0.5,0.6,0.9,1.4,0.9c0.6,0,1.1-0.4,1.3-0.8
	c0.1-0.2,0.1-0.5,0.1-0.8c0-0.1,0-0.1-0.1-0.1h-0.5c-0.5,0-0.7-0.3-0.7-0.7c0-0.5,0.3-0.7,0.7-0.7h1.6c0.5,0,0.7,0.3,0.7,0.7v0.1
	c0,0.7-0.1,1.4-0.2,1.8c-0.5,1.3-1.5,2-2.9,2s-2.5-0.6-3-2C279.2,176,279.2,175.6,279.2,174.4 M271.3,171.3c0-0.6,0.4-1,1-1
	c0.5,0,0.8,0.3,1.2,0.8l2.4,4.3h0.1V171c0-0.5,0.4-0.8,0.8-0.8c0.5,0,0.8,0.3,0.8,0.8v6.3c0,0.6-0.4,1-1,1c-0.5,0-0.8-0.3-1.2-0.8
	l-2.4-4.3h-0.1v4.3c0,0.5-0.4,0.8-0.8,0.8s-0.8-0.3-0.8-0.8V171.3z M267.4,171.2c0-0.5,0.4-0.9,0.9-0.9s0.9,0.4,0.9,0.9v6.3
	c0,0.5-0.4,0.9-0.9,0.9s-0.9-0.4-0.9-0.9V171.2z M262.3,177.6V172c0-0.1,0-0.1-0.1-0.1h-1.4c-0.5,0-0.9-0.4-0.9-0.7
	c0-0.5,0.4-0.8,0.9-0.8h4.6c0.5,0,0.9,0.4,0.9,0.8c0,0.5-0.4,0.7-0.9,0.7H264c-0.1,0-0.1,0-0.1,0.1v5.6c0,0.5-0.4,0.9-0.9,0.9
	C262.7,178.5,262.3,178.1,262.3,177.6 M253.5,177.8c-0.3-0.2-0.5-0.5-0.5-0.7c0-0.5,0.4-0.7,0.8-0.7c0.2,0,0.4,0.1,0.5,0.2
	c0.6,0.4,1.2,0.5,1.7,0.5c0.8,0,1.4-0.4,1.4-0.9s-0.3-0.7-1.3-0.9l-0.5-0.1c-1.6-0.2-2.5-1-2.5-2.4s1.1-2.4,2.8-2.4
	c0.9,0,1.8,0.3,2.3,0.5c0.3,0.2,0.5,0.5,0.5,0.7c0,0.5-0.4,0.7-0.7,0.7c-0.2,0-0.4-0.1-0.5-0.1c-0.4-0.2-0.9-0.4-1.4-0.4
	c-0.7,0-1.1,0.4-1.1,0.9s0.4,0.7,1.3,0.9l0.5,0.1c1.6,0.3,2.5,1,2.5,2.4s-1.1,2.5-3.2,2.5C254.8,178.5,254,178.2,253.5,177.8
	 M245.3,175.4v-4.3c0-0.5,0.4-0.9,0.9-0.9s0.9,0.4,0.9,0.9v4.3c0,1,0.5,1.5,1.4,1.5c0.8,0,1.4-0.5,1.4-1.5v-4.3
	c0-0.5,0.4-0.9,0.9-0.9s0.9,0.4,0.9,0.9v4.3c0,2-1.3,3.1-3.1,3.1C246.5,178.5,245.3,177.4,245.3,175.4 M237.3,174.4
	c0-1.2,0.1-1.6,0.2-2.2c0.5-1.3,1.5-2,3-2c1.3,0,2.2,0.5,2.6,1.3c0.1,0.2,0.2,0.4,0.2,0.5c0,0.5-0.4,0.8-0.8,0.8
	c-0.3,0-0.5-0.1-0.7-0.5c-0.3-0.5-0.7-0.6-1.2-0.6c-0.7,0-1.1,0.4-1.3,0.9c-0.1,0.3-0.1,0.6-0.1,1.7c0,1,0,1.4,0.1,1.7
	c0.2,0.5,0.6,0.9,1.3,0.9s1.1-0.4,1.3-0.8c0.1-0.2,0.1-0.5,0.1-0.8c0-0.1,0-0.1-0.1-0.1h-0.5c-0.5,0-0.7-0.3-0.7-0.7
	c0-0.5,0.3-0.7,0.7-0.7h1.6c0.5,0,0.7,0.3,0.7,0.7v0.1c0,0.7-0.1,1.4-0.2,1.8c-0.5,1.3-1.5,2-2.9,2s-2.5-0.6-3-2
	C237.3,176,237.3,175.6,237.3,174.4 M230.3,177.8c-0.3-0.2-0.5-0.5-0.5-0.7c0-0.5,0.4-0.7,0.8-0.7c0.2,0,0.4,0.1,0.5,0.2
	c0.6,0.4,1.2,0.5,1.7,0.5c0.8,0,1.3-0.4,1.3-0.9s-0.3-0.7-1.3-0.9l-0.5-0.1c-1.6-0.2-2.5-1-2.5-2.4s1.1-2.4,2.8-2.4
	c0.9,0,1.8,0.3,2.3,0.5c0.3,0.2,0.5,0.5,0.5,0.7c0,0.5-0.4,0.7-0.7,0.7c-0.2,0-0.4-0.1-0.5-0.1c-0.4-0.2-0.9-0.4-1.4-0.4
	c-0.7,0-1.1,0.4-1.1,0.9s0.4,0.7,1.3,0.9l0.5,0.1c1.6,0.3,2.5,1,2.5,2.4s-1.1,2.5-3.2,2.5C231.7,178.5,230.8,178.2,230.3,177.8
	 M226.5,171.2c0-0.5,0.4-0.9,0.9-0.9s0.9,0.4,0.9,0.9v6.3c0,0.5-0.4,0.9-0.9,0.9s-0.9-0.4-0.9-0.9V171.2z M220.3,176.8h0.8
	c0.8,0,1.4-0.3,1.6-0.9c0.1-0.3,0.2-0.7,0.2-1.5s-0.1-1.3-0.2-1.5c-0.2-0.6-0.8-0.9-1.6-0.9h-0.8c-0.1,0-0.1,0-0.1,0.1L220.3,176.8
	C220.2,176.8,220.2,176.8,220.3,176.8 M218.5,171.1c0-0.5,0.3-0.7,0.7-0.7h1.9c1.7,0,2.8,0.5,3.2,1.9c0.2,0.5,0.3,1,0.3,2.2
	s-0.1,1.7-0.3,2.2c-0.5,1.4-1.4,1.9-3.2,1.9h-1.9c-0.5,0-0.7-0.3-0.7-0.7V171.1z"/>
<path class="st0" d="M262,371.9l-1.2-5.2c-0.1-0.5-0.5-0.7-0.9-0.6c-0.2,0.1-0.4,0.2-0.5,0.4c-0.1,0.2-0.1,0.4-0.1,0.6l0.8,3.3
	l-2.7-3c-0.5-0.5-0.8-0.6-1.2-0.5c-0.5,0.1-0.8,0.5-0.6,1.2l1.2,5.2c0.1,0.4,0.4,0.6,0.7,0.6c0.1,0,0.1,0,0.2,0
	c0.5-0.1,0.6-0.5,0.5-0.9l-0.8-3.3l2.7,3c0.5,0.5,0.8,0.6,1.2,0.5c0.3-0.1,0.5-0.2,0.5-0.4C262,372.5,262.1,372.2,262,371.9
	 M252.3,369.7c0,0.5-0.4,0.8-0.9,0.8l0,0h-1.1v-1.6h1.1c0.3,0,0.5,0.1,0.6,0.3C252.3,369.2,252.3,369.5,252.3,369.7 M251.6,367.4
	h-2.1c-0.2,0-0.4,0.1-0.5,0.2s-0.2,0.3-0.2,0.5l-0.1,5.4c0,0.5,0.4,0.9,0.8,0.9l0,0c0.2,0,0.5-0.1,0.5-0.2c0.2-0.2,0.3-0.4,0.3-0.6
	V372h1.2c0.7,0,1.4-0.2,1.8-0.6c0.5-0.4,0.6-0.9,0.7-1.6c0-0.6-0.2-1.3-0.6-1.6C252.9,367.7,252.3,367.4,251.6,367.4 M246.2,366.8
	c-0.2-0.1-0.5,0-0.6,0.1c-0.2,0.1-0.3,0.3-0.4,0.5l-0.9,3.6c-0.2,0.7-0.5,1-1.1,0.8c-0.2-0.1-0.4-0.2-0.5-0.3
	c-0.2-0.2-0.3-0.4-0.5-0.4c-0.2-0.1-0.4,0-0.5,0.1c-0.2,0.1-0.3,0.3-0.4,0.5s0,0.4,0.1,0.6c0.2,0.5,0.8,0.8,1.4,1
	c0.3,0.1,0.5,0.1,0.8,0.1c0.5,0,0.8-0.1,1.2-0.3c0.5-0.4,0.9-0.9,1.1-1.7l0.9-3.5c0.1-0.3,0-0.5-0.1-0.6
	C246.7,367,246.5,366.9,246.2,366.8 M258.4,332.8c0.1,0.6,0.6,1.1,1.3,1.1c0.1,0,0.2,0,0.3,0c0.7-0.2,1.2-0.8,1-1.5
	c-0.3-1.4-0.5-1.9-1.2-3.1l-0.2-0.3c-0.4-0.6-1.2-0.9-1.8-0.5c-0.6,0.4-0.9,1.2-0.5,1.8l0.2,0.3
	C258.1,331.7,258.2,331.8,258.4,332.8 M257.3,333.2c-0.3-1.4-0.5-1.9-1.2-3.1l-0.2-0.3c-0.4-0.6-1.2-0.9-1.8-0.5
	c-0.6,0.4-0.9,1.2-0.5,1.8l0.2,0.3c0.6,1.1,0.7,1.3,0.9,2.3c0.1,0.6,0.6,1.1,1.3,1.1c0.1,0,0.2,0,0.3,0
	C257.1,334.6,257.5,333.9,257.3,333.2 M270.7,338.1c-2.4-1.5-6.2-1.4-12.9,0.5c-0.7,0.2-1.1,0.9-0.9,1.6s0.9,1.1,1.6,0.9
	c2.1-0.5,8.3-2.4,10.8-0.8c0.4,0.3,0.9,0.7,1.1,2s0,2.2-0.6,2.9c-1.1,1.3-3.6,2-7.9,2.3c-0.7,0-1.3,0.6-1.3,1.4
	c0,0.7,0.6,1.3,1.4,1.3h0.1c5.2-0.3,8.1-1.3,9.8-3.3c1.1-1.3,1.4-2.9,1.2-5C272.7,340.2,271.9,338.9,270.7,338.1 M257.2,336.5
	c-0.1-0.7-0.7-1.3-1.4-1.2c-0.9,0.1-1.6,0.2-2.4,0.3c-0.1-1.2-0.2-2.4-0.3-3.7c-0.1-0.7-0.7-1.3-1.4-1.2s-1.3,0.7-1.2,1.4
	c0.1,1.4,0.2,2.5,0.3,3.7c-2,0.2-3.7,0.2-6.4,0.1c-0.7,0-1.4,0.5-1.4,1.3c0,0.7,0.5,1.4,1.3,1.4c1,0,1.9,0,2.7,0
	c1.4,0,2.5,0,3.8-0.1c0.1,5.7-1,8.7-4.9,10.1c-0.7,0.3-1,1-0.8,1.7c0.2,0.5,0.7,0.9,1.3,0.9c0.2,0,0.3,0,0.5-0.1
	c5.7-2.1,6.8-6.9,6.6-12.8c0.7-0.1,1.6-0.2,2.5-0.3C256.8,338,257.3,337.3,257.2,336.5 M241,331c-0.7-0.2-1.4,0.3-1.6,1
	c-1.4,5.7-1.4,11.3-0.2,17.1c0.1,0.6,0.7,1.1,1.3,1.1c0.1,0,0.2,0,0.3,0c0.7-0.2,1.2-0.8,1-1.5c-1.2-5.4-1.1-10.6,0.2-15.9
	C242.1,331.9,241.7,331.2,241,331 M223.6,333.6c2.6,0.5,7.1,1,9.9,1.2h0.1c0.7,0,1.3-0.5,1.4-1.3c0-0.7-0.5-1.4-1.3-1.4
	c-2.7-0.2-7-0.6-9.5-1.1c-0.7-0.2-1.4,0.4-1.5,1C222.4,332.8,222.9,333.6,223.6,333.6 M235.2,346.2c1.2-1.5,1.6-3.3,1.4-5.3
	c-0.2-1.4-1-2.6-2.2-3.3c-4-2.4-11.9,0-13.3,0.5c-0.7,0.3-1.1,1-0.8,1.7c0.3,0.7,1,1.1,1.6,0.8c3.8-1.3,9-2.1,11.1-0.8
	c0.5,0.4,0.9,0.8,1,1.4c0.2,1.3-0.1,2.4-0.8,3.3c-1.4,1.8-4.5,3.3-8.1,3.7c-0.7,0.1-1.3,0.7-1.2,1.4c0.1,0.6,0.6,1.2,1.3,1.2
	c0.1,0,0.1,0,0.2,0C229.7,350.4,233.4,348.7,235.2,346.2 M281.7,331c-0.7-0.2-1.4,0.2-1.6,0.9l-2.9,10.6c-0.2,0.7,0.2,1.4,0.9,1.6
	c0.1,0,0.3,0.1,0.4,0.1c0.5,0,1.1-0.4,1.3-1l2.9-10.6C282.9,331.9,282.4,331.2,281.7,331 M277.2,346c-0.9,0-1.6,0.7-1.6,1.6
	s0.7,1.6,1.6,1.6s1.6-0.7,1.6-1.6C278.8,346.8,278.1,346,277.2,346 M267.5,355.4c-4.1,4.3-9.8,6.7-15.7,6.7
	c-5.9,0-11.6-2.4-15.7-6.7c-0.5-0.5-1.4-0.5-1.9,0s-0.5,1.4,0,1.9c4.6,4.8,10.9,7.5,17.6,7.5c6.6,0,13-2.7,17.6-7.5
	c0.5-0.5,0.5-1.4,0-1.9C268.8,354.8,268,354.9,267.5,355.4 M236.4,325c4.1-4.1,9.7-6.4,15.5-6.4c7.2,0,13.9,3.5,18,9.5
	c0.3,0.4,0.6,0.5,1.1,0.5c0.3,0,0.5-0.1,0.7-0.3c0.6-0.5,0.7-1.3,0.4-1.8c-4.5-6.7-12.1-10.7-20.2-10.7c-6.4,0-12.8,2.6-17.4,7.2
	c-0.5,0.5-0.5,1.4,0,1.9C235,325.6,235.8,325.6,236.4,325 M251.6,300.8c21.9,0,39.5,17.7,39.5,39.5c0,21.9-17.7,39.5-39.5,39.5
	c-21.9,0-39.5-17.7-39.5-39.5S229.7,300.8,251.6,300.8 M251.6,303.4c-20.4,0-36.9,16.6-36.9,36.9c0,20.4,16.6,36.9,36.9,36.9
	s36.9-16.6,36.9-36.9C288.6,320,272,303.4,251.6,303.4 M258.3,313.3c0.4,0.1,0.6,0,0.9-0.5l1.4-1.9l-0.7,2.9c-0.1,0.3,0,0.5,0.1,0.6
	c0.1,0.2,0.3,0.3,0.5,0.4c0.1,0,0.2,0,0.2,0c0.4,0,0.6-0.2,0.7-0.6l1.3-5.2c0.1-0.3,0-0.5-0.1-0.7s-0.3-0.4-0.5-0.4
	c-0.5-0.1-0.8,0.1-1.1,0.5l-2.1,2.7l-0.6-3.3c-0.1-0.5-0.3-0.9-0.7-1c-0.3-0.1-0.5,0-0.7,0.1s-0.4,0.4-0.4,0.6l-1.3,5.2
	c-0.1,0.3,0,0.5,0.1,0.6c0.1,0.2,0.3,0.3,0.5,0.4c0.5,0.1,0.8-0.1,0.9-0.6l0.7-2.9l0.5,2.4C257.7,313,257.9,313.2,258.3,313.3
	 M250,313.5L250,313.5c0.5,0,0.8-0.4,0.8-0.9v-1.9h1.9c0.3,0,0.5-0.1,0.5-0.2s0.2-0.3,0.2-0.5s-0.1-0.4-0.2-0.5
	c-0.2-0.1-0.4-0.2-0.5-0.2h-1.9v-1.4h2.4c0.5,0,0.7-0.3,0.7-0.7s-0.3-0.7-0.7-0.7l0,0l-3.3,0.1c-0.5,0-0.7,0.3-0.7,0.7l0.1,5.4
	C249.2,313.1,249.5,313.5,250,313.5 M243.1,313.3L243.1,313.3L243.1,313.3L243.1,313.3L243.1,313.3z M244.6,310.7
	c-0.2-0.5-0.4-1-0.5-1.2c-0.3-0.5-0.7-0.5-1.4-0.4l-0.6,0.2l1.1,3.9l0.6-0.2c0.6-0.2,1-0.5,1-1C244.9,311.7,244.8,311.3,244.6,310.7
	 M246.1,310.3c0.3,1,0.4,1.4,0.3,1.8c-0.1,1.2-0.7,1.9-2.3,2.3l-1.5,0.5c-0.1,0-0.2,0-0.3,0c-0.3,0-0.5-0.2-0.6-0.5l-1.4-5.2
	c-0.1-0.5,0.1-0.8,0.5-0.9l1.5-0.5c1.4-0.5,2.4-0.2,3.1,0.8C245.7,308.8,245.9,309.3,246.1,310.3 M284.4,434.3
	c0,0.5,0.4,0.8,0.8,0.8s0.8-0.3,0.8-0.8v-3.9h0.1l1.3,2.9c0.3,0.5,0.5,0.7,0.8,0.7c0.4,0,0.6-0.2,0.8-0.7l1.3-2.9h0.1v3.9
	c0,0.5,0.4,0.8,0.8,0.8s0.8-0.3,0.8-0.8V428c0-0.6-0.4-1.1-0.9-1.1s-0.8,0.3-1.1,0.9l-1.7,3.9h-0.1l-1.7-3.9
	c-0.3-0.6-0.5-0.9-1.1-0.9s-1,0.4-1,1.1L284.4,434.3L284.4,434.3z M279.4,435.2c1.8,0,3.1-1.1,3.1-3.1v-4.3c0-0.5-0.4-0.9-0.9-0.9
	s-0.9,0.4-0.9,0.9v4.3c0,1-0.5,1.5-1.4,1.5c-0.7,0-1.4-0.5-1.4-1.5v-4.3c0-0.5-0.4-0.9-0.9-0.9s-0.9,0.4-0.9,0.9v4.3
	C276.3,434.1,277.6,435.2,279.4,435.2 M269.4,434.3c0,0.5,0.3,0.7,0.7,0.7h3.9c0.5,0,0.8-0.4,0.8-0.7c0-0.5-0.4-0.7-0.8-0.7h-2.8
	c-0.1,0-0.1,0-0.1-0.1v-1.6c0-0.1,0-0.1,0.1-0.1h2.3c0.5,0,0.8-0.3,0.8-0.7s-0.3-0.7-0.8-0.7h-2.3c-0.1,0-0.1,0-0.1-0.1v-1.6
	c0-0.1,0-0.1,0.1-0.1h2.8c0.5,0,0.8-0.4,0.8-0.7c0-0.5-0.4-0.7-0.8-0.7h-3.9c-0.5,0-0.7,0.3-0.7,0.7V434.3z M264.7,435.2
	c2.1,0,3.2-1.1,3.2-2.5s-0.9-2.2-2.5-2.4l-0.5-0.1c-0.9-0.1-1.3-0.5-1.3-0.9c0-0.5,0.4-0.9,1.1-0.9c0.5,0,1,0.2,1.4,0.4
	c0.2,0.1,0.4,0.1,0.5,0.1c0.5,0,0.7-0.4,0.7-0.7c0-0.3-0.1-0.5-0.5-0.7c-0.5-0.3-1.4-0.5-2.3-0.5c-1.7,0-2.8,1-2.8,2.4
	s0.9,2.2,2.5,2.4l0.5,0.1c1,0.1,1.3,0.5,1.3,0.9c0,0.5-0.5,0.9-1.3,0.9c-0.6,0-1.1-0.2-1.7-0.5c-0.2-0.1-0.4-0.2-0.5-0.2
	c-0.5,0-0.8,0.4-0.8,0.7c0,0.3,0.2,0.5,0.5,0.7C262.7,434.8,263.5,435.2,264.7,435.2 M257.1,435.2c1.8,0,3.1-1.1,3.1-3.1v-4.3
	c0-0.5-0.4-0.9-0.9-0.9s-0.9,0.4-0.9,0.9v4.3c0,1-0.5,1.5-1.4,1.5c-0.7,0-1.4-0.5-1.4-1.5v-4.3c0-0.5-0.4-0.9-0.9-0.9
	s-0.9,0.4-0.9,0.9v4.3C254,434.1,255.2,435.2,257.1,435.2 M244.4,434.3c0,0.5,0.4,0.8,0.8,0.8c0.5,0,0.8-0.3,0.8-0.8v-3.9h0.1
	l1.3,2.9c0.3,0.5,0.5,0.7,0.8,0.7c0.4,0,0.6-0.2,0.8-0.7l1.3-2.9h0.1v3.9c0,0.5,0.4,0.8,0.8,0.8s0.8-0.3,0.8-0.8V428
	c0-0.6-0.4-1.1-0.9-1.1s-0.8,0.3-1.1,0.9l-1.7,3.9h-0.1l-1.7-3.9c-0.3-0.6-0.5-0.9-1.1-0.9s-1,0.4-1,1.1L244.4,434.3L244.4,434.3z
	 M235.7,433.4v-4.8c0-0.1,0-0.1,0.1-0.1h0.8c0.8,0,1.4,0.3,1.6,0.9c0.1,0.3,0.2,0.7,0.2,1.5s-0.1,1.3-0.2,1.5
	c-0.2,0.6-0.8,0.9-1.6,0.9L235.7,433.4C235.7,433.5,235.7,433.5,235.7,433.4 M233.9,434.3c0,0.5,0.3,0.7,0.7,0.7h1.9
	c1.7,0,2.8-0.5,3.2-1.9c0.2-0.5,0.3-1,0.3-2.2s-0.1-1.7-0.3-2.2c-0.5-1.3-1.4-1.8-3.2-1.8h-1.9c-0.5,0-0.7,0.3-0.7,0.7V434.3z
	 M229.1,433.6c-0.6,0-1.1-0.4-1.3-0.9c-0.1-0.3-0.1-0.7-0.1-1.7c0-1.1,0-1.4,0.1-1.7c0.2-0.5,0.6-0.9,1.3-0.9c0.6,0,1.1,0.4,1.3,0.9
	c0.1,0.3,0.1,0.7,0.1,1.7s0,1.4-0.1,1.7C230.2,433.4,229.7,433.6,229.1,433.6 M229.1,435.2c1.4,0,2.5-0.6,2.9-2
	c0.2-0.5,0.2-1,0.2-2.2s-0.1-1.6-0.2-2.2c-0.5-1.3-1.5-2-2.9-2s-2.5,0.6-2.9,2c-0.2,0.5-0.2,1-0.2,2.2s0.1,1.6,0.2,2.2
	C226.6,434.5,227.7,435.2,229.1,435.2 M221.3,433.6c-0.6,0-1.1-0.4-1.3-0.9c-0.1-0.3-0.1-0.7-0.1-1.7c0-1.1,0-1.4,0.1-1.7
	c0.2-0.5,0.6-0.9,1.3-0.9c0.6,0,1.1,0.4,1.3,0.9c0.1,0.3,0.1,0.7,0.1,1.7s0,1.4-0.1,1.7C222.4,433.4,222,433.6,221.3,433.6
	 M221.3,435.2c1.4,0,2.5-0.6,2.9-2c0.2-0.5,0.2-1,0.2-2.2s-0.1-1.6-0.2-2.2c-0.5-1.3-1.5-2-2.9-2s-2.5,0.6-2.9,2
	c-0.2,0.5-0.2,1-0.2,2.2s0.1,1.6,0.2,2.2C218.8,434.5,219.9,435.2,221.3,435.2 M211.9,434.3c0,0.5,0.4,0.9,0.9,0.9s0.9-0.4,0.9-0.9
	V432c0-0.1,0-0.1,0.1-0.1h2.3c0.5,0,0.8-0.3,0.8-0.7c0-0.5-0.3-0.7-0.8-0.7h-2.3c-0.1,0-0.1,0-0.1-0.1v-1.7c0-0.1,0-0.1,0.1-0.1h2.8
	c0.5,0,0.8-0.4,0.8-0.7c0-0.5-0.4-0.7-0.8-0.7h-3.9c-0.5,0-0.7,0.3-0.7,0.7L211.9,434.3L211.9,434.3z M279.4,421.4
	c0.5,1.3,1.5,2,3,2c1.4,0,2.5-0.7,2.9-2c0.2-0.5,0.2-1.1,0.2-1.8v-0.1c0-0.5-0.3-0.7-0.7-0.7h-1.6c-0.5,0-0.7,0.3-0.7,0.7
	c0,0.5,0.3,0.7,0.7,0.7h0.5c0.1,0,0.1,0,0.1,0.1c0,0.3,0,0.5-0.1,0.8c-0.2,0.5-0.6,0.8-1.3,0.8c-0.7,0-1.2-0.4-1.4-0.9
	c-0.1-0.3-0.1-0.7-0.1-1.7s0-1.4,0.1-1.7c0.2-0.5,0.6-0.9,1.3-0.9c0.5,0,0.9,0.2,1.2,0.6c0.3,0.4,0.5,0.5,0.7,0.5
	c0.5,0,0.8-0.4,0.8-0.8c0-0.2-0.1-0.4-0.2-0.5c-0.5-0.7-1.4-1.3-2.6-1.3c-1.4,0-2.5,0.6-3,2c-0.2,0.5-0.2,1-0.2,2.2
	C279.2,420.4,279.2,420.9,279.4,421.4 M271.3,422.5c0,0.5,0.4,0.8,0.8,0.8s0.8-0.3,0.8-0.8v-4.3h0.1l2.4,4.3
	c0.4,0.5,0.6,0.8,1.2,0.8s1-0.4,1-1V416c0-0.5-0.4-0.8-0.8-0.8c-0.5,0-0.8,0.3-0.8,0.8v4.4h-0.1l-2.4-4.3c-0.4-0.5-0.6-0.8-1.2-0.8
	s-1,0.4-1,1V422.5z M267.4,422.4c0,0.5,0.4,0.9,0.9,0.9s0.9-0.4,0.9-0.9v-6.3c0-0.5-0.4-0.9-0.9-0.9s-0.9,0.4-0.9,0.9V422.4z
	 M263.2,423.3c0.5,0,0.9-0.4,0.9-0.9v-5.6c0-0.1,0-0.1,0.1-0.1h1.4c0.5,0,0.9-0.4,0.9-0.7c0-0.5-0.4-0.8-0.9-0.8H261
	c-0.5,0-0.9,0.4-0.9,0.8s0.4,0.7,0.9,0.7h1.4c0.1,0,0.1,0,0.1,0.1v5.6C262.3,422.9,262.7,423.3,263.2,423.3 M256,423.4
	c2.1,0,3.2-1.1,3.2-2.5s-0.9-2.2-2.5-2.4l-0.5-0.1c-0.9-0.1-1.3-0.5-1.3-0.9c0-0.5,0.4-0.9,1.1-0.9c0.5,0,1,0.2,1.4,0.4
	c0.2,0.1,0.4,0.1,0.5,0.1c0.5,0,0.7-0.4,0.7-0.7c0-0.3-0.1-0.5-0.5-0.7c-0.5-0.3-1.4-0.5-2.3-0.5c-1.7,0-2.8,1-2.8,2.4
	s0.9,2.2,2.5,2.4l0.5,0.1c1,0.1,1.3,0.5,1.3,0.9c0,0.5-0.5,0.9-1.4,0.9c-0.6,0-1.1-0.2-1.7-0.5c-0.2-0.1-0.4-0.2-0.5-0.2
	c-0.5,0-0.8,0.4-0.8,0.7c0,0.3,0.2,0.5,0.5,0.7C254,423,254.8,423.4,256,423.4 M248.4,423.4c1.8,0,3.1-1.1,3.1-3.1V416
	c0-0.5-0.4-0.9-0.9-0.9s-0.9,0.4-0.9,0.9v4.3c0,1-0.5,1.5-1.4,1.5c-0.7,0-1.4-0.5-1.4-1.5V416c0-0.5-0.4-0.9-0.9-0.9
	s-0.9,0.4-0.9,0.9v4.3C245.3,422.3,246.5,423.4,248.4,423.4 M237.5,421.4c0.5,1.3,1.5,2,3,2s2.5-0.7,2.9-2c0.2-0.5,0.2-1.1,0.2-1.8
	v-0.1c0-0.5-0.3-0.7-0.7-0.7h-1.6c-0.5,0-0.7,0.3-0.7,0.7c0,0.5,0.3,0.7,0.7,0.7h0.5c0.1,0,0.1,0,0.1,0.1c0,0.3,0,0.5-0.1,0.8
	c-0.2,0.5-0.6,0.8-1.3,0.8c-0.7,0-1.2-0.4-1.3-0.9c-0.1-0.3-0.1-0.7-0.1-1.7s0-1.4,0.1-1.7c0.2-0.5,0.6-0.9,1.3-0.9
	c0.5,0,0.9,0.2,1.2,0.6c0.3,0.4,0.5,0.5,0.7,0.5c0.5,0,0.8-0.4,0.8-0.8c0-0.2-0.1-0.4-0.2-0.5c-0.5-0.7-1.4-1.3-2.6-1.3
	c-1.4,0-2.5,0.6-3,2c-0.2,0.5-0.2,1-0.2,2.2C237.3,420.4,237.3,420.9,237.5,421.4 M232.8,423.4c2.1,0,3.2-1.1,3.2-2.5
	s-0.9-2.2-2.5-2.4l-0.5-0.1c-0.9-0.1-1.3-0.5-1.3-0.9c0-0.5,0.4-0.9,1.1-0.9c0.5,0,1,0.2,1.4,0.4c0.2,0.1,0.4,0.1,0.5,0.1
	c0.5,0,0.7-0.4,0.7-0.7c0-0.3-0.1-0.5-0.5-0.7c-0.5-0.3-1.4-0.5-2.3-0.5c-1.7,0-2.8,1-2.8,2.4s0.9,2.2,2.5,2.4l0.5,0.1
	c1,0.1,1.3,0.5,1.3,0.9c0,0.5-0.5,0.9-1.4,0.9c-0.6,0-1.1-0.2-1.7-0.5c-0.2-0.1-0.4-0.2-0.5-0.2c-0.5,0-0.8,0.4-0.8,0.7
	c0,0.3,0.2,0.5,0.5,0.7C230.8,423,231.7,423.4,232.8,423.4 M226.5,422.4c0,0.5,0.4,0.9,0.9,0.9s0.9-0.4,0.9-0.9v-6.3
	c0-0.5-0.4-0.9-0.9-0.9s-0.9,0.4-0.9,0.9V422.4z M220.2,421.6v-4.8c0-0.1,0-0.1,0.1-0.1h0.8c0.8,0,1.4,0.3,1.6,0.9
	c0.1,0.3,0.2,0.7,0.2,1.5s-0.1,1.3-0.2,1.5c-0.2,0.6-0.8,0.9-1.6,0.9L220.2,421.6C220.2,421.7,220.2,421.7,220.2,421.6 M218.5,422.5
	c0,0.5,0.3,0.7,0.7,0.7h1.9c1.7,0,2.8-0.5,3.2-1.8c0.2-0.5,0.3-1,0.3-2.2s-0.1-1.7-0.3-2.2c-0.5-1.4-1.4-1.9-3.2-1.9h-1.9
	c-0.5,0-0.7,0.3-0.7,0.7V422.5z M277.8,385.9c-0.5-1.6-2.5-2.5-4.9-2.5c-1.1,0-2.3,0.2-3.4,0.6c-3.7,1.4-6.1,4.4-5.2,6.8
	c0.5,1.6,2.5,2.5,4.9,2.5c1.1,0,2.3-0.2,3.5-0.6C276.3,391.5,278.6,388.3,277.8,385.9 M279,391.4c-1.3,1.7-3.3,3.1-5.5,3.9
	c-1.4,0.5-2.9,0.8-4.3,0.8c-3,0-5.5-1.2-6.8-3.1l-7.1,2.5l15.8,5.8c0.7,0.3,1,1,0.8,1.7c-0.3,0.7-1,1-1.7,0.8l-18.8-6.9l-18.6,6.8
	c-0.7,0.3-1.4-0.1-1.7-0.8c-0.3-0.7,0.1-1.4,0.8-1.7l15.7-5.7l-8.8-3.2c-1.6,2.6-5,3.8-8.1,2.7l0,0l0,0l-10.4-3.8
	c-0.7-0.3-1-1-0.8-1.7c0.3-0.7,1-1,1.7-0.8l10.6,3.8l0,0l0,0c2.2,0.8,4.4-0.3,5.2-2.3c0.7-2.1-0.4-4.3-2.5-5.1l0,0l0,0l-10.4-3.8
	c-0.7-0.3-1-1-0.8-1.7c0.3-0.7,1-1,1.7-0.8l10.4,3.8l0,0l0,0c3.1,1.1,4.9,4.2,4.4,7.2l11.7,4.3l10-3.6c-0.2-1.6,0.4-3.4,1.5-5
	c1.3-1.7,3.3-3.1,5.5-3.9c1.4-0.5,2.9-0.8,4.3-0.8c3.6,0,6.4,1.6,7.3,4.3C281,387,280.5,389.3,279,391.4 M221.3,384.6
	c0.3-0.7,1-1,1.7-0.8l10.4,3.8c0.7,0.3,1,1,0.8,1.7c-0.3,0.7-1,1-1.7,0.8l-10.4-3.8C221.5,386,221.2,385.3,221.3,384.6"/>
</svg>
