<?xml version="1.0" standalone="no"?>
<!DOCTYPE svg PUBLIC "-//W3C//DTD SVG 20010904//EN"
 "http://www.w3.org/TR/2001/REC-SVG-20010904/DTD/svg10.dtd">
<svg version="1.0" xmlns="http://www.w3.org/2000/svg"
 width="728.000000pt" height="728.000000pt" viewBox="0 0 728.000000 728.000000"
 preserveAspectRatio="xMidYMid meet">
<metadata>
Created by potrace 1.14, written by Peter Selinger 2001-2017
</metadata>
<g transform="translate(0.000000,728.000000) scale(0.100000,-0.100000)"
fill="#000000" stroke="none">
<path d="M4426 7271 c-3 -4 -112 -253 -241 -552 -130 -299 -237 -545 -239
-546 -2 -2 -16 1 -31 7 -54 20 -260 69 -370 87 -148 24 -494 24 -644 0 -372
-60 -723 -208 -1011 -427 -110 -83 -304 -272 -390 -380 -238 -298 -393 -653
-456 -1045 -25 -152 -25 -477 -1 -630 36 -229 95 -420 191 -620 195 -407 482
-722 863 -947 57 -33 103 -62 103 -63 0 -2 -110 -259 -245 -571 -256 -594
-262 -612 -230 -674 38 -74 178 -81 222 -11 6 10 37 78 68 152 32 74 59 137
61 141 2 3 41 -7 87 -24 193 -70 510 -137 762 -160 l135 -12 0 -418 0 -418
-445 0 -445 0 0 -80 0 -80 1050 0 1050 0 0 80 0 80 -470 0 -470 0 0 420 0 420
48 0 c151 0 512 63 717 125 354 108 707 285 986 495 498 376 872 887 1074
1470 48 138 88 293 122 465 25 133 27 158 31 500 3 297 1 380 -13 475 -129
900 -625 1690 -1372 2184 -71 46 -177 110 -236 141 -125 66 -120 43 -42 215
58 128 69 163 60 191 -6 17 -17 19 -140 19 -74 0 -136 -4 -139 -9z m133 -683
c652 -350 1126 -914 1356 -1613 297 -900 116 -1899 -481 -2655 -104 -131 -364
-384 -499 -486 -411 -308 -861 -492 -1385 -566 -147 -20 -595 -17 -740 5 -214
33 -477 98 -585 143 l-33 13 124 293 c69 161 128 296 132 300 4 4 42 -4 85
-17 249 -79 568 -111 843 -84 1046 101 1876 921 1985 1958 15 144 6 442 -16
571 -95 534 -355 990 -760 1328 -94 79 -267 197 -347 238 l-47 24 43 102 c163
387 212 498 220 498 5 0 52 -23 105 -52z m-1067 -573 c782 -112 1418 -694
1593 -1458 48 -207 60 -491 30 -701 -77 -550 -383 -1038 -842 -1345 -698 -467
-1641 -416 -2313 126 -461 373 -731 1006 -680 1598 46 537 304 1035 702 1358
433 350 968 499 1510 422z"/>
</g>
</svg>
