<?xml version="1.0" encoding="utf-8"?>
<!-- Generator: Adobe Illustrator 27.0.1, SVG Export Plug-In . SVG Version: 6.00 Build 0)  -->
<svg version="1.1" id="Ebene_1" xmlns="http://www.w3.org/2000/svg" xmlns:xlink="http://www.w3.org/1999/xlink" x="0px" y="0px"
	 viewBox="0 0 1719 398.4" style="enable-background:new 0 0 1719 398.4;" xml:space="preserve">
<style type="text/css">
	.st0{opacity:0.25;}
	.st1{clip-path:url(#SVGID_00000110452207394210998040000010312656908763041213_);fill:#C8DCEB;}
	.st2{clip-path:url(#SVGID_00000103258602769526665100000012620225480495327911_);fill:#C8DCEB;}
	.st3{clip-path:url(#SVGID_00000105398135973350929680000014705782609269426829_);fill:#C8DCEB;}
	.st4{clip-path:url(#SVGID_00000162314091630621386300000013108658441373738170_);fill:#C8DCEB;}
	.st5{clip-path:url(#SVGID_00000143605084759787501980000016912684786469766553_);fill:#C8DCEB;}
	.st6{clip-path:url(#SVGID_00000102534019501589285920000013824498788660312494_);fill:#C8DCEB;}
	.st7{fill:none;stroke:#C8DCEB;}
	.st8{clip-path:url(#SVGID_00000141453305814874460320000001628808923378202790_);fill:#1B365D;}
	.st9{clip-path:url(#SVGID_00000141453305814874460320000001628808923378202790_);fill:#FF641E;}
	.st10{fill:none;stroke:#1E375F;}
	.st11{clip-path:url(#SVGID_00000006668624266609347310000015939360817808409264_);fill:#1B365D;}
	.st12{clip-path:url(#SVGID_00000006668624266609347310000015939360817808409264_);fill:#FF641E;}
</style>
<g class="st0">
	<g>
		<defs>
			<rect id="SVGID_1_" x="-9.5" y="3.7" width="1737" height="58.7"/>
		</defs>
		<clipPath id="SVGID_00000094587281766524599560000001522223379911819450_">
			<use xlink:href="#SVGID_1_"  style="overflow:visible;"/>
		</clipPath>
		
			<rect x="-0.5" y="4.7" style="clip-path:url(#SVGID_00000094587281766524599560000001522223379911819450_);fill:#C8DCEB;" width="1719" height="50.7"/>
	</g>
</g>
<g class="st0">
	<g>
		<defs>
			<rect id="SVGID_00000057863624966775097100000007492282679991725752_" x="713.8" y="-4.3" width="58.7" height="406.7"/>
		</defs>
		<clipPath id="SVGID_00000147220126432831656060000005060473184509396892_">
			<use xlink:href="#SVGID_00000057863624966775097100000007492282679991725752_"  style="overflow:visible;"/>
		</clipPath>
		
			<rect x="714.8" y="4.7" style="clip-path:url(#SVGID_00000147220126432831656060000005060473184509396892_);fill:#C8DCEB;" width="50.7" height="388.7"/>
	</g>
</g>
<g class="st0">
	<g>
		<defs>
			<rect id="SVGID_00000171705096105576340510000016956666565829396396_" x="477.2" y="-4.3" width="58.7" height="406.7"/>
		</defs>
		<clipPath id="SVGID_00000156577272628514228090000000395138453387082650_">
			<use xlink:href="#SVGID_00000171705096105576340510000016956666565829396396_"  style="overflow:visible;"/>
		</clipPath>
		
			<rect x="478.2" y="4.7" style="clip-path:url(#SVGID_00000156577272628514228090000000395138453387082650_);fill:#C8DCEB;" width="50.7" height="388.7"/>
	</g>
</g>
<g class="st0">
	<g>
		<defs>
			<rect id="SVGID_00000063612934614392828140000010743187636757182396_" x="1666.8" y="-4.3" width="58.7" height="406.7"/>
		</defs>
		<clipPath id="SVGID_00000031200465061502853530000004301217672978014638_">
			<use xlink:href="#SVGID_00000063612934614392828140000010743187636757182396_"  style="overflow:visible;"/>
		</clipPath>
		
			<rect x="1667.8" y="4.7" style="clip-path:url(#SVGID_00000031200465061502853530000004301217672978014638_);fill:#C8DCEB;" width="50.7" height="388.7"/>
	</g>
</g>
<g class="st0">
	<g>
		<defs>
			<rect id="SVGID_00000156557989628105898840000002593766557767817601_" x="-1.5" y="-4.3" width="58.7" height="406.7"/>
		</defs>
		<clipPath id="SVGID_00000109717270990771841310000016727774763693916330_">
			<use xlink:href="#SVGID_00000156557989628105898840000002593766557767817601_"  style="overflow:visible;"/>
		</clipPath>
		
			<rect x="-0.5" y="4.7" style="clip-path:url(#SVGID_00000109717270990771841310000016727774763693916330_);fill:#C8DCEB;" width="50.7" height="388.7"/>
	</g>
</g>
<g class="st0">
	<g>
		<defs>
			<rect id="SVGID_00000045582622952147742270000000880414200451719572_" x="-9.5" y="339.7" width="1737" height="58.7"/>
		</defs>
		<clipPath id="SVGID_00000166640893796297308800000012386458682884446338_">
			<use xlink:href="#SVGID_00000045582622952147742270000000880414200451719572_"  style="overflow:visible;"/>
		</clipPath>
		
			<rect x="-0.5" y="340.7" style="clip-path:url(#SVGID_00000166640893796297308800000012386458682884446338_);fill:#C8DCEB;" width="1719" height="50.7"/>
	</g>
</g>
<line class="st7" x1="-0.5" y1="167.9" x2="1719.5" y2="167.9"/>
<line class="st7" x1="-0.5" y1="218.6" x2="1719.5" y2="218.6"/>
<line class="st7" x1="-0.5" y1="341.2" x2="1719.5" y2="341.2"/>
<line class="st7" x1="-0.5" y1="391.9" x2="1719.5" y2="391.9"/>
<line class="st7" x1="-0.5" y1="269.3" x2="1719.5" y2="269.3"/>
<line class="st7" x1="-0.5" y1="4.2" x2="1719.5" y2="4.2"/>
<line class="st7" x1="-0.5" y1="54.9" x2="1719.5" y2="54.9"/>
<line class="st7" x1="-0.5" y1="81.6" x2="1719.5" y2="81.6"/>
<line class="st7" x1="-0.5" y1="132.3" x2="1719.5" y2="132.3"/>
<line class="st7" x1="765" y1="3.7" x2="765" y2="392.4"/>
<line class="st7" x1="714.3" y1="3.7" x2="714.3" y2="392.4"/>
<g>
	<defs>
		<rect id="SVGID_00000098903479763142621070000016260742421387339936_" x="765.5" y="55.4" width="915.4" height="164.2"/>
	</defs>
	<clipPath id="SVGID_00000031177293631263947200000012607173476195374014_">
		<use xlink:href="#SVGID_00000098903479763142621070000016260742421387339936_"  style="overflow:visible;"/>
	</clipPath>
	<path style="clip-path:url(#SVGID_00000031177293631263947200000012607173476195374014_);fill:#1B365D;" d="M1680.7,135.1h-11v-4.2
		h11V135.1z M1650.3,137.4l4.5-0.1v0.4c0,2,0.8,2.6,4.3,2.6c2.7,0,3.4-0.6,3.4-2c0-1.2-0.5-1.8-4.9-2.5c-5.7-0.9-6.9-2.1-6.9-5.8
		c0-4.1,1.9-5.7,7.8-5.7c6.8,0,8.1,1.7,8.1,6l-4.6,0.1V130c0-1.6-0.7-2.2-3.7-2.2c-2.3,0-3.1,0.5-3.1,2c0,1.3,0.6,1.8,4.4,2.3
		c6.5,0.9,7.7,2.4,7.7,5.8c0,4.4-1.7,6-8.3,6C1652,143.9,1650.3,142.6,1650.3,137.4L1650.3,137.4z M1629.6,128.7c0-1.6,0-2.6,0-4
		h4.5l0,3.2c1.2-2.6,3.2-3.6,6.5-3.6c4.4,0,6.2,1.8,6.2,6.3c0,1,0,2.2,0,4.8v3.9c0,1.5,0,2.6,0,4.2h-4.8c0-1.5,0-2.3,0-4.2v-6.2
		c0-3.6-0.9-4.5-3.8-4.5c-2.9,0-4,0.9-4,5.1v5.5c0,1.8,0,2.7,0,4.2h-4.8c0-1.5,0-2.5,0-4.3V128.7L1629.6,128.7z M1621,134.2V134
		c0-4.5-1-5.5-4.4-5.5c-3.3,0-4.4,1-4.4,5.5v0.2c0,4.4,1,5.5,4.4,5.5C1619.9,139.7,1621,138.6,1621,134.2 M1607.4,134.6v-1
		c0-7.2,2.4-9.3,9.2-9.3s9.2,2.1,9.2,9.3v1c0,7.2-2.4,9.3-9.2,9.3C1609.9,143.9,1607.4,141.7,1607.4,134.6 M1598.8,129.2
		c0-1.9,0-3.3,0-4.5h4.8c0,1.2,0,2.7,0,4.6v9.7c0,1.9,0,3.2,0,4.5h-4.8c0-1.3,0-2.6,0-4.5V129.2L1598.8,129.2z M1603.6,122.7h-4.8
		v-3.4h4.8V122.7z M1585.3,128.7h-2.9v-4h2.9c0-1.3,0-2.6,0-3.6l4.8-0.1c0,1.1,0,2.1,0,3.7h5v4h-5v8.1c0,2.2,0.4,2.7,3,2.7
		c0.7,0,1.2,0,2.1-0.1l0,4c-1.2,0.1-2.1,0.1-3.3,0.1c-5.1,0-6.6-1.3-6.6-5.4c0-1.9,0-4.7,0-7.6L1585.3,128.7L1585.3,128.7z
		 M1562.6,128.6c0-1.4,0-2.4,0-3.9h4.8c0,1.3,0,2.2,0,3.8v6.6c0,3.6,0.8,4.4,3.7,4.4c2.9,0,3.9-0.8,3.9-5.3v-5.4c0-1.8,0-2.7,0-4.1
		h4.8c0,1.5,0,2.5,0,4.3v10.4c0,1.6,0,2.6,0,4h-4.5l0-3.2c-1.2,2.6-3.2,3.6-6.5,3.6c-4.4,0-6.1-1.8-6.1-6.3c0-1,0-3.5,0-5.6
		L1562.6,128.6L1562.6,128.6z M1549.5,139.5c3.5,0,4.6-1,4.6-5.3V134c0-4.3-1.1-5.3-4.4-5.3s-4.3,1-4.3,5.2v0.4
		C1545.4,138.6,1546.5,139.5,1549.5,139.5L1549.5,139.5z M1540.6,124c0-1.9,0-3.1,0-4.5h4.8c0,1.3,0,4.9,0,8.1
		c1.1-2.1,3.1-3.2,6.1-3.2c5.2,0,7.4,2,7.4,9.3v1c0,7.3-2.2,9.3-7.6,9.3c-3.1,0-5.1-1.3-6.2-3.6l0,3.2h-4.5c0-1.3,0-2.6,0-4.5V124
		L1540.6,124z M1530.9,129.2c0-1.9,0-3.3,0-4.5h4.8c0,1.2,0,2.7,0,4.6v9.7c0,1.9,0,3.2,0,4.5h-4.8c0-1.3,0-2.6,0-4.5V129.2
		L1530.9,129.2z M1535.7,122.7h-4.8v-3.4h4.8V122.7z M1512.1,128.7c0-1.6,0-2.6,0-4h4.5l0,3.2c1-2.4,2.8-3.6,5.7-3.6
		c3.8,0,5.1,1.4,5.1,5.6c0,0.9,0,2.1,0,3.2l-4.6,0.1v-1.8c0-2.2-0.5-2.8-2.7-2.8c-2.2,0-3.3,0.8-3.3,5.4v5.2c0,1.8,0,2.7,0,4.2h-4.8
		c0-1.5,0-2.5,0-4.3L1512.1,128.7L1512.1,128.7z M1498.7,128.7h-2.9v-4h2.9c0-1.3,0-2.6,0-3.6l4.8-0.1c0,1.1,0,2.1,0,3.7h5v4h-5v8.1
		c0,2.2,0.4,2.7,3,2.7c0.7,0,1.2,0,2.1-0.1l0,4c-1.2,0.1-2.1,0.1-3.3,0.1c-5.1,0-6.6-1.3-6.6-5.4c0-1.9,0-4.7,0-7.6L1498.7,128.7
		L1498.7,128.7z M1477.3,137.4l4.5-0.1v0.4c0,2,0.8,2.6,4.3,2.6c2.7,0,3.4-0.6,3.4-2c0-1.2-0.5-1.8-4.9-2.5
		c-5.7-0.9-6.9-2.1-6.9-5.8c0-4.1,1.9-5.7,7.8-5.7c6.8,0,8.1,1.7,8.1,6l-4.6,0.1V130c0-1.6-0.7-2.2-3.7-2.2c-2.3,0-3.1,0.5-3.1,2
		c0,1.3,0.6,1.8,4.4,2.3c6.5,0.9,7.7,2.4,7.7,5.8c0,4.4-1.7,6-8.3,6C1479.1,143.9,1477.3,142.6,1477.3,137.4L1477.3,137.4z
		 M1469,129.2c0-1.9,0-3.3,0-4.5h4.8c0,1.2,0,2.7,0,4.6v9.7c0,1.9,0,3.2,0,4.5h-4.8c0-1.3,0-2.6,0-4.5V129.2L1469,129.2z
		 M1473.8,122.7h-4.8v-3.4h4.8V122.7z M1448.2,124.9v14.3h5.6c4.9,0,6.2-1.4,6.2-7v-0.3c0-5.7-1.3-7-6.2-7L1448.2,124.9
		L1448.2,124.9z M1443.4,124.8c0-1.6,0-2.9,0-4.1h10.5c8.4,0,11.1,2.6,11.1,11.1v0.6c0,8.5-2.8,11.1-11.2,11.1h-10.4
		c0-1.3,0-2.6,0-4.5L1443.4,124.8L1443.4,124.8z M1416.9,132.1h8.2c-0.1-3.4-1-4.2-4-4.2C1418.1,127.9,1417.1,128.6,1416.9,132.1
		 M1412,134.6v-1c0-7.2,2.6-9.3,9.1-9.3c6.5,0,8.9,2.1,8.9,9.3v1.6h-13.1c0.2,3.7,1.3,4.6,4.4,4.6c3.3,0,4-0.9,4-2.9l4.7,0.1
		c0,5-2,6.8-8.8,6.8S1412,141.7,1412,134.6 M1391,124c0-1.9,0-3.2,0-4.6h4.9c0,0.6-0.1,6.4-0.2,8.3c1.2-2.4,3.2-3.4,6.4-3.4
		c4.4,0,6.2,1.8,6.2,6.3c0,1,0,2.1,0,4.2v4.5c0,1.5,0,2.6,0,4.2h-4.8c0-1.5,0-2.2,0-4.2v-6.1c0-3.6-0.9-4.5-3.8-4.5
		c-2.9,0-4,0.9-4,5.1v5.3c0,1.7,0,2.9,0,4.4h-4.8c0-1.5,0-2.6,0-4.4V124L1391,124z M1369.4,134.6v-1c0-7.2,2.4-9.3,9.1-9.3
		s8.9,1.9,8.9,8l-4.7,0.1c0-2.8-1-3.9-4.2-3.9c-3.2,0-4.2,1-4.2,5.5v0.2c0,4.4,1.1,5.4,4.3,5.4s4.2-1.1,4.2-3.9l4.7,0.1
		c0,5.9-2.3,8-8.9,8C1371.8,143.9,1369.4,141.7,1369.4,134.6L1369.4,134.6z M1349.8,137.4l4.5-0.1v0.4c0,2,0.8,2.6,4.3,2.6
		c2.7,0,3.4-0.6,3.4-2c0-1.2-0.5-1.8-4.9-2.5c-5.7-0.9-6.9-2.1-6.9-5.8c0-4.1,1.9-5.7,7.8-5.7c6.8,0,8.1,1.7,8.1,6l-4.6,0.1V130
		c0-1.6-0.7-2.2-3.7-2.2c-2.3,0-3.2,0.5-3.2,2c0,1.3,0.6,1.8,4.4,2.3c6.5,0.9,7.7,2.4,7.7,5.8c0,4.4-1.7,6-8.3,6
		C1351.6,143.9,1349.8,142.6,1349.8,137.4L1349.8,137.4z M1341.5,129.2c0-1.9,0-3.3,0-4.5h4.8c0,1.2,0,2.7,0,4.6v9.7
		c0,1.9,0,3.2,0,4.5h-4.8c0-1.3,0-2.6,0-4.5V129.2L1341.5,129.2z M1346.3,122.7h-4.8v-3.4h4.8V122.7z M1319.4,128.7c0-1.6,0-2.6,0-4
		h4.5l0,3.2c1.2-2.6,3.2-3.6,6.5-3.6c4.4,0,6.2,1.8,6.2,6.3c0,1,0,2.2,0,4.8v3.9c0,1.5,0,2.6,0,4.2h-4.8c0-1.5,0-2.3,0-4.2v-6.2
		c0-3.6-0.9-4.5-3.8-4.5c-2.9,0-4,0.9-4,5.1v5.5c0,1.8,0,2.7,0,4.2h-4.8c0-1.5,0-2.5,0-4.3V128.7L1319.4,128.7z M1309.7,129.2
		c0-1.9,0-3.3,0-4.5h4.8c0,1.2,0,2.7,0,4.6v9.7c0,1.9,0,3.2,0,4.5h-4.8c0-1.3,0-2.6,0-4.5V129.2L1309.7,129.2z M1314.5,122.7h-4.8
		v-3.4h4.8V122.7z M1292.7,132.1h8.2c-0.1-3.4-1-4.2-4-4.2C1294,127.9,1292.9,128.6,1292.7,132.1 M1287.9,134.6v-1
		c0-7.2,2.6-9.3,9.1-9.3c6.5,0,8.9,2.1,8.9,9.3v1.6h-13.1c0.2,3.7,1.3,4.6,4.4,4.6c3.3,0,4-0.9,4-2.9l4.7,0.1c0,5-2,6.8-8.8,6.8
		S1287.9,141.7,1287.9,134.6 M1266.9,124c0-1.9,0-3.2,0-4.6h4.9c0,0.6-0.1,6.4-0.2,8.3c1.2-2.4,3.2-3.4,6.4-3.4
		c4.4,0,6.2,1.8,6.2,6.3c0,1,0,2.1,0,4.2v4.5c0,1.5,0,2.6,0,4.2h-4.8c0-1.5,0-2.2,0-4.2v-6.1c0-3.6-0.9-4.5-3.8-4.5
		c-2.9,0-4,0.9-4,5.1v5.3c0,1.7,0,2.9,0,4.4h-4.8c0-1.5,0-2.6,0-4.4V124L1266.9,124z M1247.1,124.8v7h6.8c3,0,4.1-1,4.1-3.6v-0.1
		c0-2.6-1.1-3.4-4-3.4H1247.1L1247.1,124.8z M1242.3,124.8c0-1.7,0-3,0-4.1h12.5c5.9,0,8.3,1.8,8.3,7.4v0.1c0,3.8-1.1,6-4.4,6.9
		c0.6,1,1.2,2.1,1.9,3.3c0.9,1.7,2,3.4,3,5.1h-5.5c-0.6-1.2-1.3-2.4-2.1-3.7l-2.2-3.8h-6.7v3.1c0,1.8,0,3.2,0,4.4h-4.9
		c0-1.3,0-2.6,0-4.4L1242.3,124.8L1242.3,124.8z M1638.7,180.8v-14.2c0-1.7,0-2.9,0-4.1h4.9c0,1.2,0,2.5,0,4.1v4.8h11.3v-4.8
		c0-1.7,0-2.9,0-4.1h4.9c0,1.2,0,2.5,0,4.1v14.2c0,1.8,0,3.1,0,4.4h-4.9c0-1.3,0-2.6,0-4.4v-5.2h-11.3v5.2c0,1.8,0,3.1,0,4.4h-4.9
		C1638.7,183.9,1638.7,182.6,1638.7,180.8 M1625.3,181.2c3.5,0,4.6-1,4.6-5.3v-0.2c0-4.3-1.1-5.3-4.4-5.3s-4.3,1-4.3,5.2v0.4
		C1621.1,180.3,1622.2,181.2,1625.3,181.2L1625.3,181.2z M1616.3,165.7c0-1.9,0-3.1,0-4.5h4.9c0,1.3,0,4.9,0,8.1
		c1.1-2.1,3.1-3.2,6.1-3.2c5.2,0,7.4,2,7.4,9.3v1c0,7.3-2.2,9.3-7.5,9.3c-3.2,0-5.1-1.3-6.2-3.6l0,3.2h-4.5c0-1.3,0-2.6,0-4.5V165.7
		L1616.3,165.7z M1582.4,170.4c0-1.6,0-2.6,0-4h4.5l0,3.2c1.1-2.4,3-3.6,6.3-3.6c3.5,0,5.3,1.1,5.9,3.6c1.1-2.4,3.1-3.6,6.3-3.6
		c4.5,0,6.2,1.8,6.2,6.3c0,1.4,0,3.1,0,6v2.3c0,1.6,0,2.8,0,4.5h-4.8c0-1.4,0-2.6,0-4.4v-6.1c0-3.4-0.9-4.3-3.6-4.3
		c-2.9,0-4,0.9-4,5.1v5.2c0,1.6,0,2.7,0,4.5h-4.8c0-1.4,0-2.6,0-4.5v-6.1c0-3.4-0.9-4.3-3.6-4.3c-2.9,0-3.9,0.9-3.9,5.1v5.5
		c0,1.8,0,2.7,0,4.2h-4.8c0-1.5,0-2.5,0-4.3L1582.4,170.4L1582.4,170.4z M1556.4,174.3v-1c0-8.7,2.8-11.3,11.1-11.3s11,1.8,10.9,8.1
		l-4.8,0.1h0c0-2.9-0.9-3.8-5.9-3.8s-6.3,1.5-6.3,7.4v0.3c0,6.1,1.3,7.5,6.3,7.5s6.1-0.7,6.1-4.5v0h-7.8v-3.7h12.5
		c0,1.1,0,2.3,0,3.1c0,7.7-2.5,9.4-10.9,9.4C1559.2,185.7,1556.4,183,1556.4,174.3 M1527.9,165.8c0-1.9,0-3.3,0-4.6h4.8
		c0,1.2,0,2.7,0,4.6v7.8h1.7c0.6-1,1.3-2,2.1-3l3.2-4.1h5.6l0,0.1c-2.2,2.6-4.9,6.1-7.1,8.9c2.3,3.1,5.3,7,7.5,9.8l0,0.1h-5.7
		l-3.6-4.8c-0.7-1-1.3-1.9-2-2.8h-1.8v3.1c0,1.9,0,3.2,0,4.5h-4.8c0-1.3,0-2.6,0-4.5L1527.9,165.8L1527.9,165.8z M1518.1,171
		c0-1.9,0-3.3,0-4.5h4.8c0,1.2,0,2.7,0,4.6v9.7c0,1.9,0,3.2,0,4.5h-4.8c0-1.3,0-2.6,0-4.5V171L1518.1,171z M1522.9,164.5h-4.8v-3.4
		h4.8V164.5z M1504.7,170.5h-2.9v-4h2.9c0-1.3,0-2.6,0-3.6l4.8-0.1c0,1.1,0,2.1,0,3.7h5v4h-5v8.1c0,2.2,0.4,2.7,3,2.7
		c0.7,0,1.2,0,2.1-0.1l0,4c-1.2,0.1-2.1,0.1-3.3,0.1c-5.1,0-6.6-1.3-6.6-5.4c0-1.9,0-4.7,0-7.6L1504.7,170.5L1504.7,170.5z
		 M1483.3,179.2l4.5-0.1v0.4c0,2,0.8,2.6,4.3,2.6c2.7,0,3.4-0.6,3.4-2c0-1.2-0.5-1.8-4.9-2.5c-5.7-0.9-6.9-2.1-6.9-5.8
		c0-4.1,1.9-5.7,7.8-5.7c6.8,0,8.1,1.7,8.1,6l-4.6,0.1v-0.4c0-1.6-0.7-2.2-3.7-2.2c-2.3,0-3.1,0.5-3.1,2c0,1.3,0.6,1.8,4.4,2.3
		c6.5,0.9,7.7,2.4,7.7,5.8c0,4.4-1.7,6-8.3,6C1485.1,185.6,1483.3,184.3,1483.3,179.2L1483.3,179.2z M1475,171c0-1.9,0-3.3,0-4.5
		h4.8c0,1.2,0,2.7,0,4.6v9.7c0,1.9,0,3.2,0,4.5h-4.8c0-1.3,0-2.6,0-4.5V171L1475,171z M1479.8,164.5h-4.8v-3.4h4.8V164.5z
		 M1465.3,174.4L1465.3,174.4c0-3.3-1.1-4.2-4.4-4.2s-4.3,1-4.3,4.1v0.2c0,3.2,1.1,4.2,4.4,4.2
		C1464.2,178.8,1465.3,177.7,1465.3,174.4L1465.3,174.4z M1451.7,174.6v-0.2c0-6.8,2.4-8.3,7.6-8.3c3.1,0,5.1,1.3,6.1,3.4l0.1-3h4.5
		c0,1.1,0,2.5,0,4.1v5c0,3.2,0,5,0,7.6c0,5.1-2.5,6.9-9.5,6.9s-8.2-1.2-8.4-6l4.4-0.1c0,1.7,0.5,2.3,4,2.3c3.9,0,4.8-0.8,4.8-3.9
		l0-2.7c-1.1,2.1-3,3.3-6,3.3C1454.2,182.9,1451.7,181.4,1451.7,174.6L1451.7,174.6z M1444.1,175.9v-0.2c0-4.5-1-5.5-4.4-5.5
		c-3.3,0-4.4,1-4.4,5.5v0.2c0,4.4,1,5.5,4.4,5.5C1443.1,181.4,1444.1,180.4,1444.1,175.9 M1430.6,176.3v-1c0-7.2,2.4-9.3,9.2-9.3
		s9.2,2.1,9.2,9.3v1c0,7.2-2.4,9.3-9.2,9.3C1433,185.6,1430.6,183.5,1430.6,176.3 M1421.9,165.7c0-1.9,0-3.3,0-4.6h4.8
		c0,1.2,0,2.7,0,4.6v15c0,1.9,0,3.2,0,4.5h-4.8c0-1.3,0-2.6,0-4.5V165.7L1421.9,165.7z M1403,170.4c0-1.6,0-2.6,0-4h4.5l0,3.2
		c1-2.4,2.8-3.6,5.7-3.6c3.8,0,5.1,1.4,5.1,5.6c0,0.9,0,2.1,0,3.2l-4.6,0.1v-1.8c0-2.2-0.5-2.8-2.7-2.8s-3.3,0.8-3.3,5.4v5.2
		c0,1.8,0,2.7,0,4.2h-4.8c0-1.5,0-2.5,0-4.3L1403,170.4L1403,170.4z M1386.1,173.8h8.2c-0.1-3.4-1-4.2-4-4.2
		C1387.3,169.6,1386.3,170.4,1386.1,173.8 M1381.2,176.3v-1c0-7.2,2.6-9.3,9.1-9.3c6.5,0,8.9,2.1,8.9,9.3v1.6H1386
		c0.2,3.7,1.3,4.6,4.4,4.6c3.3,0,4.1-0.9,4.1-2.9l4.7,0.1c0,5-2,6.8-8.8,6.8S1381.2,183.5,1381.2,176.3 M1372.6,174.4L1372.6,174.4
		c0-3.3-1.1-4.2-4.4-4.2c-3.3,0-4.3,1-4.3,4.1v0.2c0,3.1,1.1,4.2,4.4,4.2C1371.5,178.8,1372.6,177.7,1372.6,174.4L1372.6,174.4z
		 M1359.1,174.6v-0.2c0-6.8,2.4-8.3,7.6-8.3c3.1,0,5.1,1.3,6.1,3.4l0.1-3h4.5c0,1.1,0,2.5,0,4.1v5c0,3.2,0,5,0,7.6
		c0,5.1-2.5,6.9-9.5,6.9s-8.2-1.2-8.4-6l4.4-0.1c0,1.7,0.5,2.3,4,2.3c3.9,0,4.8-0.8,4.8-3.9l0-2.7c-1.1,2.1-3,3.3-6,3.3
		C1361.5,182.9,1359.1,181.4,1359.1,174.6L1359.1,174.6z M1350.7,179.5v-0.6c0-1.4-0.9-2.2-3.9-2.2c-3.5,0-4.2,0.7-4.2,2.7
		s1,2.6,4,2.6C1349.9,182.1,1350.7,181.3,1350.7,179.5L1350.7,179.5z M1337.8,179.7c0-4.3,1.8-6,6.9-6c3,0,4.9,0.6,5.9,1.9v-2
		c0-2.7-0.8-3.5-4-3.5s-3.6,0.6-3.6,2.4l-4.4-0.1c-0.1-4.4,2-6.2,8.2-6.2c6.7,0,8.5,2,8.5,6.3c0,2.5,0,3.5,0,6.7c0,1.9,0,3.6,0,6.1
		h-4.4l0-2.5c-1,1.8-2.9,2.9-6.3,2.9C1339.4,185.6,1337.8,183.9,1337.8,179.7L1337.8,179.7z M1317.9,185.2c0-1.3,0-2.7,0-4.5v-14.1
		c0-1.7,0-3,0-4.2h4.9c0,1.2,0,2.4,0,4.1v14.4h5c2.2,0,4.7,0,7.3,0v4.4L1317.9,185.2L1317.9,185.2z M1298.7,176v-0.4
		c0-4.3-1.1-5.2-4.2-5.2c-3.5,0-4.5,1-4.5,5.3v0.2c0,4.3,1.1,5.3,4.4,5.3S1298.7,180.3,1298.7,176L1298.7,176z M1285.2,176.3v-1
		c0-7.3,2.3-9.3,7.5-9.3c3,0,4.9,1.1,6,3.2c0-3.3,0-6.7-0.1-8h4.9c0,1.2,0,2.6,0,4.6v15c0,1.8,0,3.2,0,4.4h-4.5l-0.1-3.3
		c-1.1,2.3-3.1,3.7-6.4,3.7C1287.4,185.6,1285.2,183.6,1285.2,176.3L1285.2,176.3z M1264.2,170.4c0-1.6,0-2.6,0-4h4.5l0,3.2
		c1.2-2.6,3.2-3.6,6.5-3.6c4.4,0,6.2,1.8,6.2,6.3c0,1,0,2.2,0,4.8v3.9c0,1.5,0,2.6,0,4.2h-4.8c0-1.5,0-2.3,0-4.2v-6.2
		c0-3.6-0.9-4.5-3.8-4.5c-2.9,0-4,0.9-4,5.1v5.5c0,1.8,0,2.7,0,4.2h-4.8c0-1.5,0-2.5,0-4.3V170.4L1264.2,170.4z M1242.3,170.3
		c0-1.4,0-2.4,0-3.9h4.8c0,1.3,0,2.2,0,3.8v6.6c0,3.6,0.8,4.4,3.7,4.4c2.9,0,3.9-0.8,3.9-5.3v-5.4c0-1.8,0-2.7,0-4.1h4.8
		c0,1.5,0,2.5,0,4.3v10.4c0,1.6,0,2.6,0,4h-4.5l0-3.2c-1.2,2.6-3.2,3.6-6.5,3.6c-4.4,0-6.1-1.8-6.1-6.3c0-1,0-3.5,0-5.6
		L1242.3,170.3L1242.3,170.3z"/>
	<path style="clip-path:url(#SVGID_00000031177293631263947200000012607173476195374014_);fill:#1B365D;" d="M830.9,167.9
		c-14.1,0-25.5,11.4-25.5,25.5c0,14.1,11.4,25.5,25.5,25.5s25.5-11.4,25.5-25.5C856.4,179.3,845,167.9,830.9,167.9 M1134.1,167.9
		c-14.1,0-25.5,11.4-25.5,25.5c0,14.1,11.4,25.5,25.5,25.5c14.1,0,25.5-11.4,25.5-25.5C1159.6,179.3,1148.2,167.9,1134.1,167.9
		 M1168.9,81.5l22.2,51H1135v-51H1168.9L1168.9,81.5z"/>
	<path style="clip-path:url(#SVGID_00000031177293631263947200000012607173476195374014_);fill:#FF641E;" d="M813.6,120.3h23.1
		c16.4,0,21.2-3.9,21.2-12.3v-0.3c0-8.4-4.8-11.7-21.2-11.7h-23.1V120.3L813.6,120.3z M796.2,185.3H766V55.9h74.8
		c46.5,0,65.1,10.9,65.1,45.9v0.5c0,22.2-7.5,34.8-27.5,41.2l29.5,41.7h-42.3c-3.7-15.8-17.8-27.6-34.7-27.6
		S799.9,169.6,796.2,185.3L796.2,185.3z M1014.2,120.3c0-19.4-4.1-24.3-36.1-24.3H968v49.2h10.1c32,0,36.1-4.8,36.1-24.3V120.3z
		 M1063,117.7v5.8c0,46.1-16,61.8-84.8,61.8h-57.9V55.9h57.9C1046.9,55.9,1063,71.6,1063,117.7 M1191.2,142.7v42.7h-22.4
		c-3.7-15.8-17.8-27.6-34.7-27.6c-16.9,0-31.1,11.8-34.7,27.6H1077V55.9h47.8v86.7H1191.2L1191.2,142.7z"/>
</g>
<line class="st7" x1="1242" y1="3.7" x2="1242" y2="392.4"/>
<line class="st7" x1="1191.3" y1="3.7" x2="1191.3" y2="392.4"/>
<line class="st7" x1="1668.3" y1="3.7" x2="1668.3" y2="392.4"/>
<path class="st10" d="M1191.3,29.6c0,14,11.4,25.4,25.4,25.4c14,0,25.4-11.4,25.4-25.4s-11.4-25.4-25.4-25.4
	C1202.7,4.2,1191.3,15.6,1191.3,29.6z"/>
<path class="st10" d="M1668.3,29.6c0,14,11.4,25.4,25.4,25.4c14,0,25.4-11.4,25.4-25.4s-11.4-25.4-25.4-25.4
	C1679.6,4.2,1668.3,15.6,1668.3,29.6z"/>
<g>
	<defs>
		<rect id="SVGID_00000013876158742500364900000002690599149528544702_" x="51.2" y="55.4" width="439" height="285.3"/>
	</defs>
	<clipPath id="SVGID_00000144339811807713346260000008340472176722042783_">
		<use xlink:href="#SVGID_00000013876158742500364900000002690599149528544702_"  style="overflow:visible;"/>
	</clipPath>
	<path style="clip-path:url(#SVGID_00000144339811807713346260000008340472176722042783_);fill:#1B365D;" d="M490,285.5h-11v-4.2h11
		V285.5z M459.5,287.8l4.5-0.1v0.4c0,2,0.8,2.6,4.3,2.6c2.7,0,3.4-0.6,3.4-2c0-1.2-0.5-1.8-4.9-2.5c-5.7-0.9-6.9-2.1-6.9-5.8
		c0-4.1,1.9-5.7,7.8-5.7c6.8,0,8.1,1.7,8.1,6l-4.6,0.1v-0.5c0-1.6-0.7-2.1-3.7-2.1c-2.3,0-3.1,0.5-3.1,2c0,1.3,0.6,1.8,4.4,2.3
		c6.5,0.9,7.7,2.4,7.7,5.8c0,4.4-1.7,6-8.3,6C461.3,294.2,459.5,293,459.5,287.8L459.5,287.8z M438.8,279.1c0-1.6,0-2.6,0-4h4.5
		l0,3.2c1.2-2.6,3.2-3.6,6.5-3.6c4.4,0,6.2,1.8,6.2,6.3c0,1,0,2.2,0,4.8v3.9c0,1.5,0,2.6,0,4.2h-4.8c0-1.5,0-2.3,0-4.2v-6.2
		c0-3.6-0.9-4.5-3.8-4.5s-4,0.9-4,5.1v5.5c0,1.8,0,2.7,0,4.2h-4.8c0-1.5,0-2.5,0-4.3V279.1L438.8,279.1z M430.2,284.6v-0.2
		c0-4.5-1-5.5-4.4-5.5c-3.3,0-4.4,1-4.4,5.5v0.2c0,4.4,1,5.5,4.4,5.5C429.2,290,430.2,289,430.2,284.6 M416.6,284.9v-1
		c0-7.2,2.4-9.3,9.2-9.3s9.2,2.1,9.2,9.3v1c0,7.2-2.4,9.3-9.2,9.3C419.1,294.2,416.6,292.1,416.6,284.9 M408,279.6
		c0-1.9,0-3.3,0-4.5h4.8c0,1.2,0,2.7,0,4.6v9.7c0,1.9,0,3.2,0,4.5H408c0-1.3,0-2.6,0-4.5V279.6L408,279.6z M412.8,273.1H408v-3.4
		h4.8V273.1z M394.6,279.1h-2.9v-4h2.9c0-1.3,0-2.6,0-3.6l4.8-0.1c0,1.1,0,2.2,0,3.7h5v4h-5v8.1c0,2.2,0.4,2.7,3,2.7
		c0.7,0,1.2,0,2.1-0.1l0,4c-1.2,0.1-2.1,0.1-3.3,0.1c-5.1,0-6.6-1.3-6.6-5.4c0-1.9,0-4.7,0-7.6L394.6,279.1L394.6,279.1z
		 M371.8,278.9c0-1.4,0-2.4,0-3.9h4.8c0,1.3,0,2.2,0,3.8v6.6c0,3.6,0.8,4.4,3.7,4.4c2.9,0,3.9-0.8,3.9-5.3v-5.4c0-1.8,0-2.7,0-4.1
		h4.8c0,1.5,0,2.5,0,4.3v10.4c0,1.6,0,2.6,0,4h-4.5l0-3.2c-1.2,2.6-3.2,3.6-6.5,3.6c-4.4,0-6.1-1.8-6.1-6.3c0-1,0-3.5,0-5.6
		L371.8,278.9L371.8,278.9z M358.8,289.9c3.5,0,4.6-1,4.6-5.3v-0.2c0-4.3-1.1-5.3-4.4-5.3c-3.3,0-4.3,1-4.3,5.2v0.4
		C354.6,288.9,355.7,289.9,358.8,289.9L358.8,289.9z M349.8,274.3c0-1.9,0-3.2,0-4.5h4.8c0,1.3,0,4.9,0,8.1c1.1-2.1,3.1-3.2,6.1-3.2
		c5.2,0,7.4,2,7.4,9.3v1c0,7.3-2.2,9.3-7.5,9.3c-3.2,0-5.1-1.3-6.2-3.6l0,3.2h-4.5c0-1.3,0-2.6,0-4.5V274.3L349.8,274.3z
		 M340.2,279.6c0-1.9,0-3.3,0-4.5h4.8c0,1.2,0,2.7,0,4.6v9.7c0,1.9,0,3.2,0,4.5h-4.8c0-1.3,0-2.6,0-4.5V279.6L340.2,279.6z
		 M345,273.1h-4.8v-3.4h4.8V273.1z M321.3,279.1c0-1.6,0-2.6,0-4h4.5l0,3.2c1-2.4,2.8-3.6,5.7-3.6c3.8,0,5.1,1.4,5.1,5.6
		c0,0.9,0,2.1,0,3.2l-4.6,0.1v-1.8c0-2.2-0.5-2.8-2.7-2.8s-3.3,0.8-3.3,5.4v5.2c0,1.8,0,2.7,0,4.2h-4.8c0-1.5,0-2.5,0-4.3
		L321.3,279.1L321.3,279.1z M307.9,279.1h-2.9v-4h2.9c0-1.3,0-2.6,0-3.6l4.8-0.1c0,1.1,0,2.2,0,3.7h5v4h-5v8.1c0,2.2,0.4,2.7,3,2.7
		c0.7,0,1.2,0,2.1-0.1l0,4c-1.2,0.1-2.1,0.1-3.3,0.1c-5.1,0-6.6-1.3-6.6-5.4c0-1.9,0-4.7,0-7.6L307.9,279.1L307.9,279.1z
		 M286.5,287.8l4.5-0.1v0.4c0,2,0.8,2.6,4.3,2.6c2.7,0,3.4-0.6,3.4-2c0-1.2-0.5-1.8-4.9-2.5c-5.7-0.9-6.9-2.1-6.9-5.8
		c0-4.1,1.9-5.7,7.8-5.7c6.8,0,8.1,1.7,8.1,6l-4.6,0.1v-0.5c0-1.6-0.7-2.1-3.7-2.1c-2.3,0-3.1,0.5-3.1,2c0,1.3,0.6,1.8,4.4,2.3
		c6.5,0.9,7.6,2.4,7.6,5.8c0,4.4-1.7,6-8.3,6C288.3,294.2,286.5,292.9,286.5,287.8L286.5,287.8z M278.2,279.6c0-1.9,0-3.3,0-4.5h4.8
		c0,1.2,0,2.7,0,4.6v9.7c0,1.9,0,3.2,0,4.5h-4.8c0-1.3,0-2.6,0-4.5V279.6L278.2,279.6z M283,273.1h-4.8v-3.4h4.8V273.1z
		 M257.4,275.3v14.3h5.6c4.9,0,6.2-1.4,6.2-7v-0.3c0-5.7-1.3-7-6.2-7L257.4,275.3L257.4,275.3z M252.6,275.1c0-1.6,0-2.9,0-4.1H263
		c8.4,0,11.2,2.6,11.2,11.1v0.6c0,8.4-2.8,11.1-11.2,11.1h-10.4c0-1.3,0-2.6,0-4.5L252.6,275.1L252.6,275.1z M226.1,282.5h8.2
		c-0.1-3.4-1-4.2-4-4.2S226.3,279,226.1,282.5 M221.2,284.9v-1c0-7.2,2.6-9.3,9.1-9.3s8.9,2.1,8.9,9.3v1.6h-13.1
		c0.2,3.7,1.3,4.6,4.4,4.6c3.3,0,4-0.9,4-2.9l4.7,0.1c0,5-2,6.8-8.8,6.8S221.2,292.1,221.2,284.9 M200.3,274.4c0-1.9,0-3.2,0-4.6
		h4.9c0,0.6-0.1,6.4-0.2,8.3c1.2-2.4,3.2-3.4,6.4-3.4c4.4,0,6.2,1.8,6.2,6.3c0,1,0,2.1,0,4.2v4.5c0,1.5,0,2.6,0,4.2h-4.8
		c0-1.5,0-2.2,0-4.2v-6.1c0-3.6-0.9-4.5-3.8-4.5s-4,0.9-4,5.1v5.3c0,1.7,0,2.9,0,4.4h-4.8c0-1.5,0-2.6,0-4.4V274.4L200.3,274.4z
		 M178.6,284.9v-1c0-7.2,2.4-9.3,9.1-9.3s8.9,1.9,8.9,8l-4.7,0.1c0-2.8-1-3.9-4.2-3.9c-3.2,0-4.2,1-4.2,5.5v0.2
		c0,4.4,1.1,5.4,4.3,5.4c3.2,0,4.2-1.1,4.2-3.9l4.7,0.1c0,5.9-2.3,8-8.9,8C181.1,294.2,178.6,292.1,178.6,284.9L178.6,284.9z
		 M159.1,287.8l4.5-0.1v0.4c0,2,0.8,2.6,4.3,2.6c2.7,0,3.4-0.6,3.4-2c0-1.2-0.5-1.8-4.9-2.5c-5.7-0.9-6.9-2.1-6.9-5.8
		c0-4.1,1.9-5.7,7.8-5.7c6.8,0,8.1,1.7,8.1,6l-4.6,0.1v-0.4c0-1.6-0.7-2.2-3.7-2.2c-2.3,0-3.1,0.5-3.1,2c0,1.3,0.6,1.8,4.4,2.3
		c6.5,0.9,7.6,2.4,7.6,5.8c0,4.4-1.7,6-8.3,6C160.8,294.2,159.1,292.9,159.1,287.8L159.1,287.8z M150.7,279.6c0-1.9,0-3.3,0-4.5h4.8
		c0,1.2,0,2.7,0,4.6v9.7c0,1.9,0,3.2,0,4.5h-4.8c0-1.3,0-2.6,0-4.5V279.6L150.7,279.6z M155.5,273.1h-4.8v-3.4h4.8V273.1z
		 M128.6,279c0-1.6,0-2.6,0-4h4.5l0,3.2c1.2-2.6,3.2-3.6,6.5-3.6c4.4,0,6.2,1.8,6.2,6.3c0,1,0,2.2,0,4.8v3.9c0,1.5,0,2.6,0,4.2h-4.8
		c0-1.5,0-2.3,0-4.2v-6.2c0-3.6-0.9-4.5-3.8-4.5s-4,0.9-4,5.1v5.5c0,1.8,0,2.7,0,4.2h-4.8c0-1.5,0-2.5,0-4.3V279L128.6,279z
		 M119,279.6c0-1.9,0-3.3,0-4.5h4.8c0,1.2,0,2.7,0,4.6v9.7c0,1.9,0,3.2,0,4.5h-4.8c0-1.3,0-2.6,0-4.5V279.6L119,279.6z M123.8,273.1
		h-4.8v-3.4h4.8V273.1z M101.9,282.4h8.2c-0.1-3.4-1-4.2-4-4.2C103.2,278.2,102.2,279,101.9,282.4 M97.1,284.9v-1
		c0-7.2,2.6-9.3,9.1-9.3c6.5,0,8.9,2.1,8.9,9.3v1.6h-13.1c0.2,3.7,1.3,4.6,4.4,4.6c3.3,0,4.1-0.9,4.1-2.9l4.7,0.1c0,5-2,6.8-8.8,6.8
		S97.1,292.1,97.1,284.9z M76.1,274.4c0-1.9,0-3.2,0-4.6h4.9c0,0.6-0.1,6.4-0.2,8.3c1.2-2.4,3.2-3.4,6.4-3.4c4.4,0,6.2,1.8,6.2,6.3
		c0,1,0,2.1,0,4.2v4.5c0,1.5,0,2.6,0,4.2h-4.8c0-1.5,0-2.2,0-4.2v-6.1c0-3.6-0.9-4.5-3.8-4.5s-4,0.9-4,5.1v5.3c0,1.7,0,2.9,0,4.4
		h-4.8c0-1.5,0-2.6,0-4.4V274.4L76.1,274.4z M56.3,275.2v7h6.8c3,0,4.1-1,4.1-3.6v-0.1c0-2.6-1.1-3.4-4-3.4H56.3L56.3,275.2z
		 M51.5,275.2c0-1.7,0-3,0-4.1H64c5.9,0,8.3,1.8,8.3,7.4v0.1c0,3.8-1.1,6-4.4,6.9c0.6,1,1.2,2.1,1.9,3.3c0.9,1.7,2,3.4,3,5.1h-5.5
		c-0.6-1.2-1.4-2.4-2.1-3.7l-2.2-3.8h-6.6v3.1c0,1.8,0,3.2,0,4.4h-4.9c0-1.3,0-2.6,0-4.4L51.5,275.2L51.5,275.2z M447.9,331.2v-14.2
		c0-1.7,0-2.9,0-4.1h4.9c0,1.2,0,2.5,0,4.1v4.8h11.3v-4.8c0-1.7,0-2.9,0-4.1h4.9c0,1.2,0,2.5,0,4.1v14.2c0,1.8,0,3.1,0,4.4H464
		c0-1.3,0-2.6,0-4.4V326h-11.3v5.2c0,1.8,0,3.1,0,4.4h-4.9C447.9,334.3,447.9,333,447.9,331.2 M434.5,331.6c3.5,0,4.6-1,4.6-5.3
		v-0.2c0-4.3-1.1-5.3-4.4-5.3c-3.3,0-4.3,1-4.3,5.2v0.4C430.3,330.7,431.4,331.6,434.5,331.6L434.5,331.6z M425.5,316.1
		c0-1.9,0-3.1,0-4.5h4.8c0,1.3,0,4.9,0,8.1c1.1-2.1,3.1-3.2,6.1-3.2c5.2,0,7.4,2,7.4,9.3v1c0,7.3-2.2,9.3-7.5,9.3
		c-3.1,0-5.1-1.3-6.2-3.6l0,3.2h-4.5c0-1.3,0-2.6,0-4.5V316.1L425.5,316.1z M391.6,320.8c0-1.6,0-2.6,0-4h4.5l0,3.2
		c1.1-2.4,3-3.6,6.3-3.6c3.5,0,5.3,1.1,5.9,3.6c1.1-2.4,3.1-3.6,6.3-3.6c4.5,0,6.2,1.8,6.2,6.3c0,1.4,0,3.1,0,6v2.3
		c0,1.6,0,2.8,0,4.5H416c0-1.4,0-2.6,0-4.4v-6.1c0-3.4-0.9-4.3-3.6-4.3c-2.9,0-4,0.9-4,5.1v5.2c0,1.6,0,2.7,0,4.5h-4.8
		c0-1.4,0-2.6,0-4.5v-6.1c0-3.4-0.9-4.3-3.6-4.3c-2.9,0-3.9,0.9-3.9,5.1v5.5c0,1.8,0,2.7,0,4.2h-4.8c0-1.5,0-2.5,0-4.3L391.6,320.8
		L391.6,320.8z M365.6,324.7v-1c0-8.7,2.8-11.3,11.1-11.3c8.3,0,11,1.8,10.9,8.1l-4.8,0.1h0c0-2.9-0.9-3.8-5.9-3.8s-6.3,1.5-6.3,7.4
		v0.3c0,6.1,1.3,7.5,6.3,7.5c5,0,6.1-0.7,6.1-4.5v0h-7.8v-3.7h12.5c0,1.1,0,2.3,0,3.1c0,7.7-2.5,9.4-10.9,9.4
		C368.4,336.1,365.6,333.4,365.6,324.7z M337.1,316.1c0-1.9,0-3.3,0-4.6h4.8c0,1.2,0,2.7,0,4.6v7.8h1.7c0.6-1,1.4-2,2.2-3l3.2-4.1
		h5.6l0,0.1c-2.2,2.6-4.9,6.1-7.1,8.9c2.3,3.1,5.3,7,7.5,9.8l0,0.1h-5.7l-3.6-4.8c-0.7-1-1.3-1.9-2-2.8h-1.8v3.1c0,1.9,0,3.2,0,4.5
		H337c0-1.3,0-2.6,0-4.5L337.1,316.1L337.1,316.1z M327.3,321.4c0-1.9,0-3.3,0-4.5h4.8c0,1.2,0,2.7,0,4.6v9.7c0,1.9,0,3.2,0,4.5
		h-4.8c0-1.3,0-2.6,0-4.5V321.4L327.3,321.4z M332.1,314.9h-4.8v-3.4h4.8V314.9z M313.9,320.9H311v-4h2.9c0-1.3,0-2.6,0-3.6l4.8-0.1
		c0,1.1,0,2.1,0,3.7h5v4h-5v8.1c0,2.2,0.4,2.7,3,2.7c0.7,0,1.2,0,2.1-0.1l0,4c-1.2,0.1-2.1,0.1-3.3,0.1c-5.1,0-6.6-1.3-6.6-5.4
		c0-1.9,0-4.7,0-7.6L313.9,320.9L313.9,320.9z M292.5,329.5l4.5-0.1v0.4c0,2,0.8,2.6,4.3,2.6c2.7,0,3.4-0.6,3.4-2
		c0-1.2-0.5-1.8-4.9-2.5c-5.7-0.9-6.9-2.1-6.9-5.8c0-4.1,1.9-5.7,7.8-5.7c6.8,0,8.1,1.7,8.1,6l-4.6,0.1v-0.5c0-1.6-0.7-2.1-3.7-2.1
		c-2.3,0-3.1,0.5-3.1,2c0,1.3,0.6,1.8,4.4,2.3c6.5,0.9,7.7,2.4,7.7,5.8c0,4.4-1.7,6-8.3,6C294.3,336,292.5,334.7,292.5,329.5
		L292.5,329.5z M284.2,321.4c0-1.9,0-3.3,0-4.5h4.8c0,1.2,0,2.7,0,4.6v9.7c0,1.9,0,3.2,0,4.5h-4.8c0-1.3,0-2.6,0-4.5V321.4
		L284.2,321.4z M289,314.9h-4.8v-3.4h4.8V314.9z M274.5,324.8L274.5,324.8c0-3.3-1.1-4.2-4.4-4.2s-4.3,1-4.3,4.1v0.2
		c0,3.1,1.1,4.2,4.4,4.2C273.4,329.1,274.5,328.1,274.5,324.8L274.5,324.8z M260.9,325v-0.2c0-6.8,2.4-8.3,7.6-8.3
		c3.1,0,5.1,1.3,6.1,3.4l0.1-3h4.5c0,1.1,0,2.5,0,4.1v5c0,3.2,0,5,0,7.6c0,5.1-2.5,6.9-9.5,6.9c-7,0-8.2-1.2-8.4-6l4.4-0.1
		c0,1.7,0.5,2.3,4,2.3c3.9,0,4.8-0.8,4.8-3.9l0-2.7c-1.1,2.1-3,3.3-6,3.3C263.4,333.3,260.9,331.7,260.9,325L260.9,325z
		 M253.3,326.3v-0.2c0-4.5-1-5.5-4.4-5.5c-3.3,0-4.4,1-4.4,5.5v0.2c0,4.4,1,5.5,4.4,5.5C252.3,331.8,253.3,330.7,253.3,326.3
		 M239.8,326.7v-1c0-7.2,2.4-9.3,9.2-9.3s9.2,2.1,9.2,9.3v1c0,7.2-2.4,9.3-9.2,9.3C242.2,336,239.8,333.9,239.8,326.7z M231.1,316.1
		c0-1.9,0-3.3,0-4.6h4.8c0,1.2,0,2.7,0,4.6v15c0,1.9,0,3.2,0,4.5h-4.8c0-1.3,0-2.6,0-4.5V316.1L231.1,316.1z M212.2,320.8
		c0-1.6,0-2.6,0-4h4.5l0,3.2c1-2.4,2.8-3.6,5.7-3.6c3.8,0,5.1,1.4,5.1,5.6c0,0.9,0,2.1,0,3.2l-4.6,0.1v-1.8c0-2.2-0.5-2.8-2.7-2.8
		c-2.2,0-3.3,0.8-3.3,5.4v5.2c0,1.8,0,2.7,0,4.2h-4.8c0-1.5,0-2.5,0-4.3L212.2,320.8L212.2,320.8z M195.3,324.2h8.2
		c-0.1-3.4-1-4.2-4-4.2S195.5,320.8,195.3,324.2z M190.4,326.7v-1c0-7.2,2.6-9.3,9.1-9.3s8.9,2.1,8.9,9.3v1.6h-13.1
		c0.2,3.7,1.3,4.6,4.4,4.6c3.3,0,4.1-0.9,4.1-2.9l4.7,0.1c0,5-2,6.8-8.8,6.8S190.4,333.9,190.4,326.7z M181.8,324.8L181.8,324.8
		c0-3.3-1.1-4.2-4.4-4.2s-4.3,1-4.3,4.1v0.2c0,3.1,1.1,4.2,4.4,4.2C180.7,329.1,181.8,328.1,181.8,324.8L181.8,324.8z M168.3,325
		v-0.2c0-6.8,2.4-8.3,7.6-8.3c3.2,0,5.1,1.3,6.1,3.4l0.1-3h4.5c0,1.1,0,2.5,0,4.1v5c0,3.2,0,5,0,7.6c0,5.1-2.5,6.9-9.5,6.9
		c-7,0-8.2-1.2-8.4-6l4.4-0.1c0,1.7,0.5,2.3,4,2.3c3.9,0,4.8-0.8,4.8-3.9l0-2.7c-1.1,2.1-3,3.3-6,3.3
		C170.8,333.3,168.3,331.7,168.3,325L168.3,325z M159.9,329.9v-0.6c0-1.4-0.9-2.2-3.9-2.2c-3.5,0-4.2,0.7-4.2,2.7s1,2.6,4,2.6
		C159.1,332.4,159.9,331.7,159.9,329.9L159.9,329.9z M147,330.1c0-4.3,1.8-6,6.9-6c3,0,4.9,0.6,5.9,1.9v-2c0-2.7-0.8-3.5-4-3.5
		c-3.1,0-3.6,0.6-3.6,2.4l-4.4-0.1c-0.1-4.4,2-6.2,8.2-6.2c6.7,0,8.5,2,8.5,6.3c0,2.5,0,3.5,0,6.7c0,1.9,0,3.6,0,6.1h-4.4l0-2.5
		c-1,1.8-2.9,2.9-6.3,2.9C148.7,336,147,334.3,147,330.1L147,330.1z M127.1,335.6c0-1.3,0-2.7,0-4.5V317c0-1.7,0-3,0-4.2h4.9
		c0,1.2,0,2.4,0,4.1v14.4h4.9c2.2,0,4.7,0,7.3,0v4.4L127.1,335.6L127.1,335.6z M108,326.4V326c0-4.3-1.1-5.2-4.2-5.2
		c-3.5,0-4.5,1-4.5,5.3v0.2c0,4.3,1.1,5.3,4.4,5.3C107,331.6,108,330.6,108,326.4L108,326.4z M94.4,326.7v-1c0-7.3,2.3-9.3,7.5-9.3
		c3,0,4.9,1.1,6,3.1c0-3.3,0-6.7-0.1-8h4.9c0,1.2,0,2.6,0,4.6v15c0,1.8,0,3.1,0,4.4h-4.5l-0.1-3.3c-1.1,2.3-3.1,3.7-6.4,3.7
		C96.6,336,94.4,334,94.4,326.7L94.4,326.7z M73.4,320.8c0-1.6,0-2.6,0-4h4.5l0,3.2c1.2-2.6,3.2-3.6,6.5-3.6c4.4,0,6.2,1.8,6.2,6.3
		c0,1,0,2.2,0,4.8v3.9c0,1.5,0,2.6,0,4.2h-4.8c0-1.5,0-2.3,0-4.2v-6.2c0-3.6-0.9-4.5-3.8-4.5s-4,0.9-4,5.1v5.5c0,1.8,0,2.7,0,4.2
		h-4.8c0-1.5,0-2.5,0-4.3V320.8L73.4,320.8z M51.5,320.7c0-1.4,0-2.4,0-3.9h4.8c0,1.3,0,2.2,0,3.8v6.6c0,3.6,0.8,4.4,3.7,4.4
		s3.9-0.8,3.9-5.3V321c0-1.8,0-2.7,0-4.1h4.8c0,1.5,0,2.5,0,4.3v10.4c0,1.6,0,2.6,0,4h-4.5l0-3.2c-1.2,2.6-3.2,3.6-6.5,3.6
		c-4.4,0-6.1-1.8-6.1-6.3c0-1,0-3.5,0-5.6L51.5,320.7L51.5,320.7z"/>
	<path style="clip-path:url(#SVGID_00000144339811807713346260000008340472176722042783_);fill:#1B365D;" d="M116.4,167.6
		c-14.1,0-25.5,11.4-25.5,25.5c0,14.1,11.4,25.5,25.5,25.5s25.5-11.4,25.5-25.5C141.9,179.1,130.4,167.6,116.4,167.6 M419.6,167.6
		c-14.1,0-25.5,11.4-25.5,25.5c0,14.1,11.4,25.5,25.5,25.5c14.1,0,25.5-11.4,25.5-25.5C445.1,179.1,433.7,167.6,419.6,167.6
		 M454.4,81.2l22.2,51h-56.1v-51H454.4L454.4,81.2z"/>
	<path style="clip-path:url(#SVGID_00000144339811807713346260000008340472176722042783_);fill:#FF641E;" d="M99,120.1h23.1
		c16.4,0,21.2-3.9,21.2-12.3v-0.3c0-8.4-4.8-11.7-21.2-11.7H99V120.1L99,120.1z M81.6,185.1H51.5V55.7h74.8
		c46.5,0,65.1,10.9,65.1,45.9v0.5c0,22.2-7.5,34.8-27.5,41.2l29.5,41.7h-42.3c-3.7-15.8-17.8-27.6-34.7-27.6S85.3,169.3,81.6,185.1
		L81.6,185.1z M299.7,120.1c0-19.4-4.1-24.3-36.1-24.3h-10.1V145h10.1c32,0,36.1-4.8,36.1-24.3V120.1z M348.4,117.5v5.8
		c0,46.1-16,61.8-84.8,61.8h-57.9V55.7h57.9C332.4,55.7,348.4,71.3,348.4,117.5 M476.7,142.4v42.7h-22.4
		c-3.7-15.8-17.8-27.6-34.7-27.6c-16.9,0-31.1,11.8-34.7,27.6h-22.4V55.7h47.8v86.7H476.7L476.7,142.4z"/>
</g>
<g>
	<path class="st10" d="M25.4,391.9c14,0,25.4-11.4,25.4-25.4s-11.4-25.4-25.4-25.4S0,352.6,0,366.6S11.4,391.9,25.4,391.9z"/>
	<path class="st10" d="M25.4,269.3c14,0,25.4-11.4,25.4-25.4c0-14-11.4-25.4-25.4-25.4S0,230,0,244C0,258,11.4,269.3,25.4,269.3z"/>
	<path class="st10" d="M25.4,54.9c14,0,25.4-11.4,25.4-25.4S39.4,4.2,25.4,4.2S0,15.6,0,29.6S11.4,54.9,25.4,54.9z"/>
</g>
<line class="st7" x1="528.4" y1="3.7" x2="528.4" y2="392.4"/>
<line class="st7" x1="477.7" y1="3.7" x2="477.7" y2="392.4"/>
<g>
	<path class="st10" d="M477.7,106.5c0,14,11.4,25.4,25.4,25.4s25.4-11.4,25.4-25.4s-11.4-25.4-25.4-25.4S477.7,92.5,477.7,106.5z"/>
	<path class="st10" d="M477.7,193.3c0,14,11.4,25.4,25.4,25.4s25.4-11.4,25.4-25.4s-11.4-25.4-25.4-25.4S477.7,179.3,477.7,193.3z"
		/>
</g>
<line class="st7" x1="51.2" y1="3.7" x2="51.2" y2="392.4"/>
<rect x="-0.5" y="4.2" class="st10" width="1719.5" height="388.7"/>
</svg>
