<?xml version="1.0" encoding="utf-8"?>
<!-- Generator: Adobe Illustrator 27.0.1, SVG Export Plug-In . SVG Version: 6.00 Build 0)  -->
<svg version="1.1" id="Ebene_1" xmlns="http://www.w3.org/2000/svg" xmlns:xlink="http://www.w3.org/1999/xlink" x="0px" y="0px"
	 viewBox="0 0 294.8 283.4" style="enable-background:new 0 0 294.8 283.4;" xml:space="preserve">
<style type="text/css">
	.st0{clip-path:url(#SVGID_00000028293044293716535170000010903291986376406188_);}
	
		.st1{clip-path:url(#SVGID_00000028293044293716535170000010903291986376406188_);fill:none;stroke:#000000;stroke-width:3;stroke-miterlimit:10;}
	.st2{clip-path:url(#SVGID_00000028293044293716535170000010903291986376406188_);fill:#1D1D1B;}
</style>
<g>
	<defs>
		<rect id="SVGID_1_" x="1.6" y="2.4" width="291.5" height="278.6"/>
	</defs>
	<clipPath id="SVGID_00000178189619051328318530000010885101497492892069_">
		<use xlink:href="#SVGID_1_"  style="overflow:visible;"/>
	</clipPath>
	<path style="clip-path:url(#SVGID_00000178189619051328318530000010885101497492892069_);" d="M184.9,154.9
		c-10.8,24.8-39.2,36.7-64.5,27l4.9-11.3c19.9,7.2,41.7-3.1,48.9-23c6.5-18.1-1.4-38.3-18.6-47l4.9-11.3
		C184.9,101.1,195.6,130,184.9,154.9L184.9,154.9z M107.3,121.2c7.5-17.3,27.7-25.3,45-17.7c17.3,7.5,25.3,27.7,17.7,45
		s-27.7,25.3-45,17.7l0,0c-17.2-7.3-25.3-27.2-18-44.5C107.1,121.5,107.2,121.3,107.3,121.2 M162.1,85.6l2.2-5.1
		c0.4-1,0-2.2-1.1-2.7c-1-0.4-2.2,0-2.6,1.1L151.9,99c-19.9-7.2-41.7,3.1-48.9,23c-6.5,18.1,1.4,38.3,18.6,47l-8.7,20.1
		c-0.4,1,0.2,2.2,1.2,2.6c0.9,0.3,2-0.1,2.4-1l2.2-5.2c5.7,2.2,11.8,3.5,18,3.7v15.3h-15.9v4h15.9v0.1h4v-0.1h16.4v-4h-16.4v-15.3
		c30.1-1.2,53.5-26.5,52.3-56.6C192.3,112.4,180.3,94.3,162.1,85.6L162.1,85.6z"/>
	
		<path style="clip-path:url(#SVGID_00000178189619051328318530000010885101497492892069_);fill:none;stroke:#000000;stroke-width:3;stroke-miterlimit:10;" d="
		M45.8,231.8c24,29.2,60.4,47.8,101.1,47.8S224,260.9,248,231.8"/>
	<path style="clip-path:url(#SVGID_00000178189619051328318530000010885101497492892069_);fill:#1D1D1B;" d="M259.8,196.7
		c2.2-5,8.2-7.1,13.3-4.9c5.1,2.2,7.8,8,5.7,13c-2.2,5.1-8.3,7.1-13.4,4.9C260.2,207.6,257.6,201.8,259.8,196.7 M256.8,195.5
		c-3,6.8,0.3,14.5,7.1,17.5c6.8,2.9,14.7,0.1,17.7-6.8c2.9-6.8-0.4-14.5-7.2-17.4C267.6,185.8,259.8,188.7,256.8,195.5 M270,157.1
		l19.5,2.7l-0.9,6.6c-0.7,5.4-5.4,7.6-10.9,6.9c-5.5-0.8-9.3-4.1-8.6-9.6L270,157.1z M293.1,156.8l-25.8-3.6l-1.4,10
		c-1,7.3,3.9,12.4,11.2,13.4c7.3,1,13.6-2.5,14.6-9.9L293.1,156.8z M266.6,141.1l26-1.4l-0.2-3.4l-26,1.4L266.6,141.1z M262.1,116.8
		c1.3,5,5.6,8.4,11.4,6.9l16.6-4.2l-0.8-3.3l-16.6,4.2c-4,1-6.5-1.2-7.3-4.4c-0.8-3.2,0.4-6.3,4.4-7.3l16.6-4.2l-0.8-3.3l-16.6,4.2
		C263,106.8,260.8,111.8,262.1,116.8 M270.4,69.9l-2.8,1.5l3.7,7l-20.2,10.7l1.6,3l20.2-10.7l3.7,7l2.8-1.5L270.4,69.9z M237.1,70.3
		c3.5,4.1,8.5,4.3,11.6,1.7c2.8-2.4,2.9-5.9,0.9-10l-1.5-3.2c-1.5-3.2-0.3-4.6,0.4-5.2c2-1.6,4.9-0.9,6.5,1.1
		c1.8,2.1,1.8,4.9-0.2,6.6l2.2,2.6c3.6-3,3.4-7.7,0.5-11.2c-2.9-3.5-7.8-4.6-11.3-1.8c-1.6,1.4-3.6,4.1-1,9.2l1.5,3.1
		c1,2,1.6,4.5-0.4,6.2c-1.8,1.5-4.7,1.4-6.8-1.1c-2.2-2.7-1.8-5.9-0.1-7.4l-2.2-2.6C234.2,60.9,233.6,66.1,237.1,70.3 M206.7,31.7
		l9,5.3l1.6-2.8l-9-5.3l4.3-7.3l10.3,6.1l1.6-2.7l-13.2-7.8l-13.2,22.4l13.5,8l1.6-2.7l-10.6-6.3L206.7,31.7z M187.3,11.7
		c2.5,0.8,3.6,3.2,2.7,6c-0.9,2.8-2.9,4.3-6.5,3.2l-5.2-1.6l2.9-9.5L187.3,11.7z M188.2,35.9l-3.8-11.4c4.5,1,7.8-2.2,8.9-5.8
		c1.2-3.9,0.3-8.4-5.2-10.1l-9.4-2.9l-7.6,24.9l3.3,1l2.9-9.4l3.2,1l3.7,11.4L188.2,35.9z M149.1,17.4l10.4,0.7l0.2-3.2l-10.4-0.7
		l0.5-8.5l11.9,0.8l0.2-3.2l-15.3-1l-1.7,26l15.7,1l0.2-3.2l-12.3-0.8L149.1,17.4z M127,15.7l-12.6,2.2l-2-11.4L109,7.2l4.5,25.7
		l3.4-0.6l-2-11.2l12.6-2.2l2,11.2l3.4-0.6l-4.5-25.7l-3.4,0.6L127,15.7z M92.9,35.4L80.8,22.5l-2.3,1.2L82,41.1L66.7,25.8l-3.3,1.7
		l19.8,19.1l2.7-1.4l-3.4-16.8L94.1,41l2.7-1.4l-4.1-27.2l-3.3,1.7L92.9,35.4z M53.4,56.5l7.7-7.1l-2.2-2.4l-7.7,7.1L45.5,48
		l8.8-8.1l-2.2-2.3L40.8,48l17.7,19.1l11.5-10.7l-2.2-2.3l-9,8.4L53.4,56.5z M47.5,82.5c3.1-4.4,1.9-9.3-1.4-11.6
		c-3-2.1-6.4-1.2-9.9,1.7l-2.7,2.3c-2.7,2.3-4.4,1.5-5.1,1c-2.1-1.5-2.1-4.5-0.7-6.6c1.6-2.3,4.3-3,6.4-1.6l1.9-2.8
		c-3.8-2.7-8.3-1.3-10.9,2.4c-2.6,3.7-2.4,8.8,1.3,11.3c1.7,1.2,4.9,2.4,9.1-1.4l2.6-2.3c1.7-1.5,4-2.7,6-1.3
		c1.9,1.3,2.6,4.1,0.7,6.9c-2,2.9-5.2,3.3-7.1,2.1l-1.9,2.8C39.1,87.8,44.3,87,47.5,82.5 M10.7,96l-1.3,3.2l24,10l5.4-13L35.9,95
		l-4.1,9.8L10.7,96z M17.1,129.2l2-10.2l-3.2-0.6l-2,10.2l-8.3-1.7L8,115.2l-3.1-0.6l-3,15.1l25.5,5.1l3.1-15.4l-3.1-0.6L25,130.8
		L17.1,129.2z M1.6,164l2.3,15l25.8-3.9l-0.5-3.4l-11.1,1.7l-1.4-9.2l-3.2,0.5l1.4,9.2l-8.4,1.3l-1.8-11.6L1.6,164z M34.8,198.5
		c2.1,5-0.5,10.8-5.6,13c-5.1,2.2-11.2,0.2-13.3-4.9c-2.2-5.1,0.5-10.9,5.7-13.1C26.7,191.3,32.7,193.4,34.8,198.5 M37.8,197.2
		c-2.9-6.9-10.8-9.8-17.5-6.9c-6.8,2.9-10.2,10.6-7.3,17.5c2.9,6.8,10.8,9.7,17.6,6.8C37.3,211.7,40.7,204.1,37.8,197.2"/>
</g>
</svg>
