<?xml version="1.0" encoding="utf-8"?>
<!-- Generator: Adobe Illustrator 27.0.1, SVG Export Plug-In . SVG Version: 6.00 Build 0)  -->
<svg version="1.1" id="Ebene_1" xmlns="http://www.w3.org/2000/svg" xmlns:xlink="http://www.w3.org/1999/xlink" x="0px" y="0px"
	 viewBox="0 0 182.9 184.9" style="enable-background:new 0 0 182.9 184.9;" xml:space="preserve">
<style type="text/css">
	.st0{fill:none;stroke:#000000;stroke-width:0.5;stroke-miterlimit:10;}
	.st1{fill:none;stroke:#1D1D1B;stroke-width:3;stroke-miterlimit:10;}
</style>
<path d="M118.9,101c-7.7,17.6-27.8,26-45.9,19.2l3.4-8c14.2,5,29.6-2.3,34.8-16.3c4.7-12.9-1-27.2-13.2-33.4l3.4-8
	C118.9,62.7,126.5,83.2,118.9,101L118.9,101z M63.7,76.9C69.1,64.5,83.4,59,95.8,64.2c12.4,5.4,17.9,19.7,12.5,32.1
	c-5.4,12.4-19.7,17.9-32.1,12.5l0,0C64,103.6,58.3,89.4,63.5,77.2C63.7,77.2,63.7,77.1,63.7,76.9 M102.8,51.7l1.6-3.6
	c0.3-0.7,0-1.6-0.8-2c-0.7-0.3-1.6,0-2,0.8l-6.2,14.3c-14.2-5-29.6,2.3-34.8,16.3c-4.7,12.9,1,27.2,13.2,33.4l-6.2,14.3
	c-0.3,0.8,0.2,1.6,0.8,1.8c0.7,0.2,1.5,0,1.8-0.7l1.6-3.7c4.1,1.6,8.5,2.4,12.7,2.6v10.9H73.3v2.8h11.2l0,0h2.8l0,0H99v-2.8H87.3
	v-10.9c21.7-0.8,38.3-18.9,37.4-40.2C124.1,70.7,115.6,57.8,102.8,51.7L102.8,51.7z"/>
<path class="st0" d="M118.9,101c-7.7,17.6-27.8,26-45.9,19.2l3.4-8c14.2,5,29.6-2.3,34.8-16.3c4.7-12.9-1-27.2-13.2-33.4l3.4-8
	C118.9,62.7,126.5,83.2,118.9,101L118.9,101z M63.7,76.9C69.1,64.5,83.4,59,95.8,64.2c12.4,5.4,17.9,19.7,12.5,32.1
	c-5.4,12.4-19.7,17.9-32.1,12.5l0,0C64,103.6,58.3,89.4,63.5,77.2C63.7,77.2,63.7,77.1,63.7,76.9z M102.8,51.7l1.6-3.6
	c0.3-0.7,0-1.6-0.8-2c-0.7-0.3-1.6,0-2,0.8l-6.2,14.3c-14.2-5-29.6,2.3-34.8,16.3c-4.7,12.9,1,27.2,13.2,33.4l-6.2,14.3
	c-0.3,0.8,0.2,1.6,0.8,1.8c0.7,0.2,1.5,0,1.8-0.7l1.6-3.7c4.1,1.6,8.5,2.4,12.7,2.6v10.9H73.3v2.8h11.2l0,0h2.8l0,0H99v-2.8H87.3
	v-10.9c21.7-0.8,38.3-18.9,37.4-40.2C124.1,70.7,115.6,57.8,102.8,51.7L102.8,51.7z"/>
<circle class="st1" cx="91.5" cy="92.5" r="81.6"/>
</svg>
