<?xml version="1.0" encoding="UTF-8"?>
<!-- Generator: Adobe Illustrator 26.0.1, SVG Export Plug-In . SVG Version: 6.00 Build 0)  -->
<svg version="1.1" id="Ebene_1" xmlns="http://www.w3.org/2000/svg" xmlns:xlink="http://www.w3.org/1999/xlink" x="0px" y="0px" viewBox="0 0 300 138" style="enable-background:new 0 0 300 138;" xml:space="preserve">
<style type="text/css">
	.st0{fill:#020203;}
</style>
<g>
	<rect x="3.6" y="68" class="st0" width="291.8" height="2.2"/>
	<path class="st0" d="M296.6,135.7H2.5V2.6h294V135.7z M4.8,133.4h289.5V4.9H4.8V133.4z"/>
	<g>
		<path class="st0" d="M27.2,112.7h11.7v3H24V90.9h14.6v3H27.2v8.1h9.9v3.1h-9.9V112.7z"/>
		<path class="st0" d="M54.7,112.7h10.1v3H51.4V90.9h3.3V112.7z"/>
		<path class="st0" d="M74.1,108.7h3.2c0.1,2.2,2.2,4.4,5.5,4.4c3.2,0,5-2.1,5-4.3c0-2.4-2.2-3.5-4.3-4l-3.2-0.8    c-5.3-1.3-6.1-4.4-6.1-6.4c0-4.3,3.8-7.2,8.2-7.2c4.4,0,7.8,2.8,7.8,7.2H87c0-2.5-2.1-4.2-4.7-4.2c-2.5,0-4.8,1.7-4.8,4.1    c0,0.9,0.3,2.6,3.6,3.5l3.2,0.9c4.2,1.1,6.7,3.3,6.7,6.8c0,3.8-3.1,7.4-8.3,7.4C77.6,116.1,74.1,112.5,74.1,108.7z"/>
		<path class="st0" d="M106.6,112.7h11.7v3h-15V90.9H118v3h-11.4v8.1h9.9v3.1h-9.9V112.7z"/>
		<path class="st0" d="M155.8,90.9h3.5l-8.4,24.8H148l-4.5-15.6l-4.4,15.6h-2.8l-8.4-24.8h3.5l6.3,19.6l4.6-16.2h2.5l4.6,16.1    L155.8,90.9z"/>
		<path class="st0" d="M185.9,90.9h3.3v24.8h-3.3v-10.8h-12.2v10.8h-3.3V90.9h3.3v11h12.2V90.9z"/>
		<path class="st0" d="M206.5,112.7h11.7v3h-15V90.9h14.6v3h-11.4v8.1h9.9v3.1h-9.9V112.7z"/>
		<path class="st0" d="M243.7,115.7l-6.5-9.4h-3.2v9.4h-3.3V90.9h9.3c5.4,0,7.5,3.9,7.5,7.7c0,3.6-2.1,7.4-6.5,7.7l6.6,9.3H243.7z     M233.9,93.9v9.4h5.2c3.6,0,5.1-1.9,5.1-4.7c0-2.8-1.6-4.7-4.1-4.7H233.9z"/>
		<path class="st0" d="M263.3,112.7h11.7v3h-15V90.9h14.6v3h-11.4v8.1h9.9v3.1h-9.9V112.7z"/>
	</g>
	<g>
		<path class="st0" d="M95,47.4L92.6,41H82l-2.4,6.4h-3.4l9.4-24.8H89l9.4,24.8H95z M83,38.1h8.5l-4.2-11.3L83,38.1z"/>
		<path class="st0" d="M122.7,22.6v3h-7.6v21.8h-3.3V25.6h-7.6v-3H122.7z"/>
		<path class="st0" d="M137.3,44.3h10.1v3H134V22.6h3.3V44.3z"/>
		<path class="st0" d="M174.4,47.4L172,41h-10.6l-2.4,6.4h-3.4l9.4-24.8h3.5l9.4,24.8H174.4z M162.4,38.1h8.5l-4.2-11.3L162.4,38.1z    "/>
		<path class="st0" d="M186.5,40.4h3.2c0.1,2.2,2.2,4.4,5.5,4.4c3.2,0,5-2.1,5-4.3c0-2.4-2.2-3.5-4.3-4l-3.2-0.8    c-5.3-1.3-6.1-4.4-6.1-6.4c0-4.3,3.8-7.2,8.2-7.2c4.4,0,7.8,2.8,7.8,7.2h-3.2c0-2.5-2.1-4.2-4.7-4.2c-2.5,0-4.8,1.7-4.8,4.1    c0,0.9,0.3,2.6,3.6,3.5l3.2,0.9c4.2,1.1,6.7,3.3,6.7,6.8c0,3.8-3.1,7.4-8.3,7.4C190.1,47.8,186.6,44.2,186.5,40.4z"/>
		<path class="st0" d="M224.6,35c0-7,5.5-12.9,12.5-12.9c7.1,0,12.6,5.8,12.6,12.9c0,7-5.5,12.8-12.6,12.8    C230.1,47.8,224.6,42,224.6,35z M246.5,35c0-5.3-4-9.9-9.3-9.9c-5.2,0-9.2,4.5-9.2,9.9c0,5.3,4,9.7,9.2,9.7    C242.4,44.8,246.5,40.3,246.5,35z"/>
		<path class="st0" d="M276.6,25.6h-11.1v8.1h8.8v3.1h-8.8v10.6h-3.3V22.6h14.4V25.6z"/>
	</g>
	<path class="st0" d="M43.9,26.5c-1.5-3.8-4.2-6.8-7.8-8.6l0.4-1c0.2-0.6,0-1.2-0.6-1.5c-0.6-0.2-1.2,0-1.5,0.6L31.9,22   c-2.4-0.8-5-0.7-7.4,0.3c-2.7,1.1-4.9,3.2-6.1,5.9c-1.2,2.7-1.2,5.7-0.1,8.4c0.9,2.4,2.7,4.3,4.9,5.6l-2.6,6.1   c-0.2,0.6,0,1.2,0.6,1.5c0.1,0.1,0.3,0.1,0.4,0.1c0.4,0,0.8-0.3,1-0.7l0.4-1c1.5,0.5,2.9,0.8,4.4,0.9v3.4h-4.1v2.2H34v-2.2h-4.3V49   c5.9-0.4,11.4-4.1,13.9-9.9C45.4,35.1,45.5,30.6,43.9,26.5z M20.4,35.8c-0.9-2.2-0.8-4.6,0.1-6.7c1.4-3.3,4.7-5.3,8.1-5.3   c1.2,0,2.4,0.2,3.5,0.7c2.2,0.9,3.8,2.7,4.7,4.8c0.9,2.2,0.8,4.6-0.1,6.7c-1.9,4.4-7.1,6.5-11.6,4.5C22.9,39.7,21.3,37.9,20.4,35.8   z M41.6,38.2c-3,6.8-10.7,10.2-17.7,7.8l1.3-3c1.1,0.3,2.2,0.5,3.3,0.5c4.3,0,8.3-2.5,10.1-6.6c1.2-2.7,1.2-5.7,0.1-8.4   c-0.9-2.4-2.7-4.3-4.9-5.6l1.3-3C41.7,23.4,44.6,31.4,41.6,38.2z"/>
	<rect x="57.2" y="4.9" class="st0" width="2.2" height="63.6"/>
</g>
</svg>