<?xml version="1.0" encoding="utf-8"?>
<!-- Generator: Adobe Illustrator 27.0.1, SVG Export Plug-In . SVG Version: 6.00 Build 0)  -->
<svg version="1.1" id="Ebene_1" xmlns="http://www.w3.org/2000/svg" xmlns:xlink="http://www.w3.org/1999/xlink" x="0px" y="0px"
	 viewBox="0 0 66.6 91" style="enable-background:new 0 0 66.6 91;" xml:space="preserve">
<style type="text/css">
	.st0{fill:none;stroke:#000000;stroke-width:0.5;stroke-miterlimit:10;}
</style>
<path d="M60.7,54.1c-7.7,17.6-27.8,26-45.9,19.2l3.4-8c14.2,5,29.6-2.3,34.8-16.3c4.7-12.9-1-27.2-13.2-33.4l3.4-8
	C60.7,15.8,68.4,36.3,60.7,54.1L60.7,54.1z M5.5,30C10.9,17.6,25.2,12,37.6,17.3C50,22.6,55.5,37,50.1,49.3
	c-5.4,12.4-19.7,17.9-32.1,12.5l0,0C5.8,56.7,0.1,42.5,5.4,30.3C5.5,30.3,5.5,30.1,5.5,30 M44.6,4.7l1.6-3.6c0.3-0.7,0-1.6-0.8-2
	c-0.7-0.3-1.6,0-2,0.8l-6.2,14.3c-14.2-5-29.6,2.3-34.8,16.3c-4.7,12.9,1,27.2,13.2,33.4L9.4,78.3c-0.3,0.8,0.2,1.6,0.8,1.8
	c0.7,0.2,1.5,0,1.8-0.7l1.6-3.7c4.1,1.6,8.5,2.4,12.7,2.6v10.9H15.1V92h11.2l0,0h2.8l0,0h11.7v-2.8H29.1V78.3
	c21.7-0.8,38.3-18.9,37.4-40.2C65.9,23.8,57.5,10.9,44.6,4.7L44.6,4.7z"/>
<path class="st0" d="M60.7,54.1c-7.7,17.6-27.8,26-45.9,19.2l3.4-8c14.2,5,29.6-2.3,34.8-16.3c4.7-12.9-1-27.2-13.2-33.4l3.4-8
	C60.7,15.8,68.4,36.3,60.7,54.1L60.7,54.1z M5.5,30C10.9,17.6,25.2,12,37.6,17.3C50,22.6,55.5,37,50.1,49.3
	c-5.4,12.4-19.7,17.9-32.1,12.5l0,0C5.8,56.7,0.1,42.5,5.4,30.3C5.5,30.3,5.5,30.1,5.5,30z M44.6,4.7l1.6-3.6c0.3-0.7,0-1.6-0.8-2
	c-0.7-0.3-1.6,0-2,0.8l-6.2,14.3c-14.2-5-29.6,2.3-34.8,16.3c-4.7,12.9,1,27.2,13.2,33.4L9.4,78.3c-0.3,0.8,0.2,1.6,0.8,1.8
	c0.7,0.2,1.5,0,1.8-0.7l1.6-3.7c4.1,1.6,8.5,2.4,12.7,2.6v10.9H15.1V92h11.2l0,0h2.8l0,0h11.7v-2.8H29.1V78.3
	c21.7-0.8,38.3-18.9,37.4-40.2C65.9,23.8,57.5,10.9,44.6,4.7L44.6,4.7z"/>
</svg>
