<?xml version="1.0" encoding="utf-8"?>
<!-- Generator: Adobe Illustrator 27.0.1, SVG Export Plug-In . SVG Version: 6.00 Build 0)  -->
<svg version="1.1" id="Ebene_1" xmlns="http://www.w3.org/2000/svg" xmlns:xlink="http://www.w3.org/1999/xlink" x="0px" y="0px"
	 viewBox="0 0 483.3 106" style="enable-background:new 0 0 483.3 106;" xml:space="preserve">
<style type="text/css">
	.st0{fill:none;stroke:#000000;stroke-width:0.5;stroke-miterlimit:10;}
	.st1{fill:none;stroke:#000000;stroke-width:2.5;}
	.st2{fill:#1D1D1B;}
</style>
<path d="M69.5,57.7c-4.7,10.8-17.1,16-28.2,11.8l2.1-4.9c8.7,3.1,18.2-1.4,21.4-10c2.9-7.9-0.6-16.7-8.1-20.5l2.1-4.9
	C69.5,34.2,74.2,46.8,69.5,57.7L69.5,57.7z M35.6,42.9c3.3-7.6,12.1-11,19.7-7.8c7.6,3.3,11,12.1,7.7,19.7
	c-3.3,7.6-12.1,11-19.7,7.7c0,0,0,0,0,0c-7.5-3.2-11-11.9-7.8-19.4C35.6,43.1,35.6,43,35.6,42.9 M59.6,27.4l1-2.2
	c0.2-0.4,0-1-0.5-1.2c-0.4-0.2-1,0-1.2,0.5l-3.8,8.8c-8.7-3.1-18.2,1.4-21.4,10c-2.9,7.9,0.6,16.7,8.1,20.5l-3.8,8.8
	c-0.2,0.5,0.1,1,0.5,1.1c0.4,0.1,0.9,0,1.1-0.4l1-2.3c2.5,1,5.2,1.5,7.8,1.6v6.7h-6.9V81h6.9v0h1.7v0h7.2v-1.7h-7.2v-6.7
	C63.4,72.1,73.6,61,73.1,47.9C72.7,39.1,67.5,31.2,59.6,27.4L59.6,27.4z"/>
<path class="st0" d="M69.5,57.7c-4.7,10.8-17.1,16-28.2,11.8l2.1-4.9c8.7,3.1,18.2-1.4,21.4-10c2.9-7.9-0.6-16.7-8.1-20.5l2.1-4.9
	C69.5,34.2,74.2,46.8,69.5,57.7L69.5,57.7z M35.6,42.9c3.3-7.6,12.1-11,19.7-7.8c7.6,3.3,11,12.1,7.7,19.7
	c-3.3,7.6-12.1,11-19.7,7.7c0,0,0,0,0,0c-7.5-3.2-11-11.9-7.8-19.4C35.6,43.1,35.6,43,35.6,42.9z M59.6,27.4l1-2.2
	c0.2-0.4,0-1-0.5-1.2c-0.4-0.2-1,0-1.2,0.5l-3.8,8.8c-8.7-3.1-18.2,1.4-21.4,10c-2.9,7.9,0.6,16.7,8.1,20.5l-3.8,8.8
	c-0.2,0.5,0.1,1,0.5,1.1c0.4,0.1,0.9,0,1.1-0.4l1-2.3c2.5,1,5.2,1.5,7.8,1.6v6.7h-6.9V81h6.9v0h1.7v0h7.2v-1.7h-7.2v-6.7
	C63.4,72.1,73.6,61,73.1,47.9C72.7,39.1,67.5,31.2,59.6,27.4L59.6,27.4z"/>
<rect x="6.8" y="6.7" class="st1" width="90.4" height="91.7"/>
<g>
	<path class="st2" d="M134,53.1c0-7.1,5.5-12.9,12.5-12.9c7.1,0,12.6,5.8,12.6,12.9c0,7-5.5,12.8-12.6,12.8
		C139.5,65.9,134,60.1,134,53.1z M155.9,53.1c0-5.3-4-9.9-9.3-9.9c-5.2,0-9.3,4.5-9.3,9.9c0,5.3,4,9.8,9.3,9.8
		C151.8,62.9,155.9,58.4,155.9,53.1z"/>
	<path class="st2" d="M183.7,43.7h-11.2v8.1h8.9v3.1h-8.9v10.7h-3.3V40.7h14.4V43.7z"/>
	<path class="st2" d="M209.2,62.5h11.7v3h-15V40.7h14.6v3h-11.4v8.1h9.9v3.1h-9.9V62.5z"/>
	<path class="st2" d="M234.3,62.5h10.2v3H231V40.7h3.3V62.5z"/>
	<path class="st2" d="M251.4,58.5h3.2c0.1,2.2,2.2,4.4,5.5,4.4c3.2,0,5-2.1,5-4.3c0-2.4-2.2-3.5-4.3-4l-3.2-0.8
		c-5.3-1.3-6.1-4.4-6.1-6.4c0-4.3,3.9-7.2,8.2-7.2c4.4,0,7.8,2.8,7.8,7.2h-3.2c0-2.5-2.1-4.2-4.7-4.2c-2.5,0-4.8,1.7-4.8,4.1
		c0,0.9,0.3,2.6,3.6,3.5l3.2,0.9c4.2,1.1,6.7,3.3,6.7,6.8c0,3.9-3.1,7.4-8.3,7.4C254.9,65.9,251.4,62.3,251.4,58.5z"/>
	<path class="st2" d="M281.6,62.5h11.7v3h-15V40.7H293v3h-11.4v8.1h9.9v3.1h-9.9V62.5z"/>
	<path class="st2" d="M328.5,40.7h3.5l-8.4,24.8h-2.8l-4.5-15.7l-4.4,15.7H309l-8.4-24.8h3.5l6.3,19.6l4.6-16.2h2.5l4.6,16.2
		L328.5,40.7z"/>
	<path class="st2" d="M356.3,40.7h3.3v24.8h-3.3V54.6h-12.2v10.8h-3.3V40.7h3.3v11h12.2V40.7z"/>
	<path class="st2" d="M374.5,62.5h11.7v3h-15V40.7h14.6v3h-11.4v8.1h9.9v3.1h-9.9V62.5z"/>
	<path class="st2" d="M409.4,65.5l-6.5-9.4h-3.2v9.4h-3.3V40.7h9.3c5.4,0,7.5,3.9,7.5,7.7c0,3.6-2.1,7.4-6.5,7.7l6.6,9.3H409.4z
		 M399.7,43.7v9.4h5.2c3.6,0,5.1-1.9,5.1-4.7c0-2.8-1.6-4.7-4.1-4.7H399.7z"/>
	<path class="st2" d="M426.7,62.5h11.7v3h-15V40.7h14.6v3h-11.4v8.1h9.9v3.1h-9.9V62.5z"/>
</g>
<rect x="6.8" y="6.7" class="st1" width="468.4" height="91.7"/>
</svg>
