<?xml version="1.0" encoding="UTF-8"?>
<svg xmlns="http://www.w3.org/2000/svg" version="1.1" viewBox="0 0 294.8 283.4">
  <!-- Generator: Adobe Illustrator 28.6.0, SVG Export Plug-In . SVG Version: 1.2.0 Build 709)  -->
  <g>
    <g id="Ebene_1">
      <g>
        <path d="M123.1,175.6l-8.7,20.1c-.4,1,.2,2.2,1.2,2.6.9.3,2,0,2.4-1l2.2-5.2c5.7,2.2,11.8,3.5,18,3.7v15.3h-15.9v4h15.9c0,.1,4,.1,4,.1h0c0-.1,16.4-.1,16.4-.1v-4h-16.4v-15.3c30.1-1.2,53.5-26.5,52.3-56.6-.7-20.2-12.7-38.3-30.9-47l2.2-5.1c.4-1,0-2.2-1.1-2.7-1-.4-2.2,0-2.6,1.1l-8.7,20.1c-19.9-7.2-41.7,3.1-48.9,23-6.5,18.1,1.4,38.3,18.6,47ZM162,95.9c24.4,11.8,35.1,40.7,24.4,65.6-10.8,24.8-39.2,36.7-64.5,27l4.9-11.3c19.9,7.2,41.7-3.1,48.9-23,6.5-18.1-1.4-38.3-18.6-47l4.9-11.3ZM108.5,128.3c.1-.2.2-.4.3-.5,7.5-17.3,27.7-25.3,45-17.7,17.3,7.5,25.3,27.7,17.7,45-7.6,17.3-27.7,25.3-45,17.7-17.2-7.3-25.3-27.2-18-44.5Z"/>
        <path d="M37.5,150.7h0c1.7,0,2.9,1.4,3,3.8.1,2.7-.8,5-2.6,7.2l2.9,2.2c2.3-2.8,3.3-6.1,3.1-9.5-.2-4.7-2.9-7.9-7.1-7.7h0c-3.7.2-5.3,2.7-6.2,7.5-.8,4.4-1.5,5.4-3.2,5.5h0c-1.5,0-2.7-1.2-2.8-3.5-.1-2,.6-4.1,2-6.2l-3.1-2c-1.7,2.4-2.6,5-2.4,8.3.2,4.4,3,7.5,6.9,7.3h0c4.1-.2,5.4-3,6.3-7.8.8-4.2,1.6-5.1,3.2-5.2Z"/>
        <polygon points="26.2 132.1 44.7 135.1 45.3 131.2 26.8 128.2 27.9 121.2 24.3 120.6 21.4 138.6 25 139.1 26.2 132.1"/>
        <path d="M51.8,110.2c2.2-5.4.5-10.2-5.7-12.7l-11.8-4.8-1.5,3.6,11.9,4.9c3.8,1.6,4.9,4.3,3.6,7.6-1.3,3.3-4.2,4.4-8,2.8l-11.8-4.8-1.5,3.6,11.9,4.9c6,2.5,10.5.3,12.7-5.1Z"/>
        <path d="M63.5,88.3c4.2-5.7,3.2-12.5-1.9-16.2h0c-5.1-3.8-11.8-2.8-16,2.9l-5,6.7,18,13.3,5-6.7ZM45.8,80.7l2.6-3.5c2.8-3.8,7.2-4.3,10.7-1.7h0c3.5,2.7,4.2,7,1.4,10.8l-2.6,3.5-12.2-9.1Z"/>
        <rect x="67.7" y="53.4" width="3.9" height="22.4" transform="translate(-25.3 64.4) rotate(-42.7)"/>
        <path d="M77.8,57.1c3.3,5.4,10.1,7.3,16,3.7,5.9-3.6,7.3-10.6,4-16h0c-3.3-5.4-10.1-7.4-16-3.8-5.9,3.6-7.3,10.6-4,16h0ZM83.6,44.2c3.8-2.3,8.4-.9,10.6,2.8h0c2.3,3.8,1.5,8.4-2.3,10.7-3.8,2.3-8.4.9-10.6-2.8h0c-2.3-3.8-1.5-8.4,2.3-10.7Z"/>
        <polygon points="122.7 28.9 126.3 47.3 130.2 46.6 126.5 28.2 133.5 26.8 132.8 23.2 114.9 26.7 115.7 30.3 122.7 28.9"/>
        <path d="M144.7,39.5l10.6.2,2.2,5.4h4.2c0,0-9.5-22.6-9.5-22.6h-3.6c0,0-10.2,22.4-10.2,22.4h4c0,0,2.4-5.3,2.4-5.3ZM150.2,27.1l3.7,9h-7.7c0-.1,4-9,4-9Z"/>
        <path d="M172.8,39.8l4.8,1.3,3.3,9,4.5,1.2-3.7-9.8c3.2,0,5.9-1.6,6.9-5.2h0c.5-1.9.3-3.7-.5-5.2-1-1.7-2.9-3.1-5.7-3.8l-9.6-2.6-5.8,21.6,3.8,1,2-7.5ZM175.7,29.1l5.5,1.5c2.8.8,4.1,2.5,3.5,4.8h0c-.6,2.3-2.7,3.2-5.4,2.5l-5.6-1.5,1.9-7.3Z"/>
        <path d="M197.2,50.8l9.3,5.1-.6,5.8,3.6,2,2.3-24.5-3.2-1.8-19.6,15,3.5,2,4.6-3.6ZM207.8,42.5l-1,9.7-6.7-3.7,7.7-6Z"/>
        <path d="M245.5,85.3h0c4.9-4,5.9-11,1.5-16.4-4.4-5.3-11.5-5.8-16.4-1.8h0c-4.9,4-5.9,11-1.5,16.4,4.4,5.3,11.5,5.8,16.4,1.8ZM233.3,70.4h0c3.4-2.8,8.1-2.6,10.9.8,2.8,3.4,2,8.2-1.3,10.9h0c-3.4,2.8-8.1,2.6-10.9-.8-2.8-3.4-2-8.2,1.3-10.9Z"/>
        <polygon points="241.7 102.1 243.4 105.6 260.2 97.4 263.4 103.8 266.6 102.2 258.7 85.8 255.4 87.4 258.5 93.9 241.7 102.1"/>
        <polygon points="267.9 118.5 249.7 122.9 250.6 126.7 268.8 122.3 270.5 129.2 274 128.3 269.7 110.7 266.2 111.5 267.9 118.5"/>
        <path d="M264.2,137.2h0c-6.3,0-11.5,4.9-11.4,11.8,0,6.9,5.4,11.7,11.7,11.7h0c6.3,0,11.5-4.9,11.4-11.8,0-6.9-5.4-11.7-11.7-11.7ZM264.4,156.5h0c-4.4,0-7.9-3.1-7.9-7.5,0-4.4,3.5-7.6,7.9-7.7h0c4.4,0,7.9,3.1,7.9,7.5,0,4.4-3.5,7.6-7.9,7.7Z"/>
        <path d="M218,241c-20.1,15.4-44.2,23.5-69.6,23.5s-49.5-8.1-69.6-23.5c-19.5-14.9-34-36-40.7-59.5l-3.4,1c7,24.2,21.9,45.9,41.9,61.3,20.8,15.9,45.6,24.2,71.8,24.2s51-8.4,71.8-24.2c20.1-15.4,35-37.1,41.9-61.3l-3.4-1c-6.8,23.5-21.2,44.6-40.7,59.5Z"/>
      </g>
    </g>
  </g>
</svg>